<?xml version="1.0" standalone="no"?>
<!DOCTYPE svg PUBLIC "-//W3C//DTD SVG 20010904//EN"
 "http://www.w3.org/TR/2001/REC-SVG-20010904/DTD/svg10.dtd">
<svg version="1.0" xmlns="http://www.w3.org/2000/svg"
 width="1024.000000pt" height="1024.000000pt" viewBox="0 0 1024.000000 1024.000000"
 preserveAspectRatio="xMidYMid meet">
<metadata>
Created by potrace 1.11, written by Peter Selinger 2001-2013
</metadata>
<g transform="translate(0.000000,1024.000000) scale(0.100000,-0.100000)"
fill="#000000" stroke="none">
<path d="M0 5120 l0 -5120 5120 0 5120 0 0 5120 0 5120 -5120 0 -5120 0 0
-5120z m7090 1030 l0 -2030 405 0 405 0 0 -1030 0 -1030 -515 0 -515 0 0 540
0 540 -1750 0 -1750 0 0 -540 0 -540 -515 0 -515 0 0 1030 0 1030 278 0 278 0
59 70 c283 333 418 788 496 1680 7 77 13 544 16 1218 l5 1092 1809 0 1809 0 0
-2030z"/>
<path d="M4540 6668 c0 -870 -27 -1305 -105 -1723 -56 -296 -155 -570 -271
-753 -19 -29 -34 -57 -34 -62 0 -7 329 -10 930 -10 l930 0 0 1545 0 1545 -725
0 -725 0 0 -542z"/>
</g>
</svg>
