<svg xmlns="http://www.w3.org/2000/svg" style="border: 0 !important; clip: rect(0 0 0 0) !important; height: 1px !important; margin: -1px !important; overflow: hidden !important; padding: 0 !important; position: absolute !important; width: 1px !important;" class="root-svg-symbols-element">
    <symbol id="back" viewBox="0 0 16 27">
      <path d="M14.5385 25.6926L2.23076 13.3848L14.5385 1.07715" stroke="#0458FE" stroke-width="2" stroke-linecap="round"/>
    </symbol>
    <symbol id="bookmark" viewBox="0 0 30 41">
      <path d="M30 3.16988e-05L0 0V39.5455C0 40.0697 0.300471 40.5475 0.772924 40.7745C1.24538 41.0016 1.80617 40.9378 2.21549 40.6103L15 30.3827L27.7845 40.6103C28.1938 40.9378 28.7546 41.0016 29.2271 40.7745C29.6995 40.5475 30 40.0697 30 39.5455V3.16988e-05Z"/>
    </symbol>
    <symbol id="checkmark" viewBox="0 0 30 30">
      <path fill-rule="evenodd" clip-rule="evenodd" d="M0 15C0 6.71573 6.71573 0 15 0C23.2843 0 30 6.71573 30 15C30 23.2843 23.2843 30 15 30C6.71573 30 0 23.2843 0 15ZM14.1436 21.4213L22.7809 10.6246L21.2192 9.37524L13.8565 18.5786L8.64023 14.2317L7.35986 15.7682L14.1436 21.4213Z"/>
    </symbol>
    <symbol id="comment" viewBox="0 0 40 40">
      <path fill-rule="evenodd" clip-rule="evenodd" d="M0 3.99821C0 1.78727 1.78981 0 4 0H36C38.2102 0 40 1.78727 40 3.99821V27.9826C40 30.1935 38.2102 31.9808 36 31.9808H20.4442L10.133 39.7092C9.72894 40.012 9.18847 40.0606 8.73686 39.8347C8.28525 39.6088 8 39.1472 8 38.6423V31.9808H4C1.78981 31.9808 0 30.1935 0 27.9826V3.99821ZM10.6667 10.6597H29.3333V13.3263H10.6667V10.6597ZM10.6667 18.6545H24V21.3211H10.6667V18.6545Z"/>
    </symbol>
    <symbol id="doc-check" viewBox="0 0 30 35">
      <path fill-rule="evenodd" clip-rule="evenodd" d="M0 3.46154C0 1.54979 1.54978 0 3.46154 0H22.401L30 7.59899V31.1538C30 33.0656 28.4502 34.6154 26.5385 34.6154H3.46154C1.54978 34.6154 0 33.0656 0 31.1538V3.46154ZM13.9024 23.6111L22.7915 13.4522L21.0548 11.9326L13.79 20.2352L10.0467 16.4919L8.41496 18.1237L13.9024 23.6111Z"/>
    </symbol>
    <symbol id="down" viewBox="0 0 12 7">
      <path d="M11.0001 1.36833L6.13184 6.2366L1.26356 1.36833" stroke="currentColor" stroke-linecap="round" stroke-linejoin="round"/>
    </symbol>
    <symbol id="remove" viewBox="0 0 30 30">
      <path fill-rule="evenodd" clip-rule="evenodd" d="M0 15C0 6.71573 6.71573 0 15 0C23.2843 0 30 6.71573 30 15C30 23.2843 23.2843 30 15 30C6.71573 30 0 23.2843 0 15ZM20.293 21.7072L15.0001 16.4143L9.70718 21.7072L8.29297 20.293L13.5859 15.0001L8.29297 9.70718L9.70718 8.29297L15.0001 13.5859L20.293 8.29297L21.7072 9.70718L16.4143 15.0001L21.7072 20.293L20.293 21.7072Z"/>
    </symbol>
    <symbol id="thumb-up" viewBox="0 0 40 40">
      <path d="M24.8314 7.98527C26.0991 5.44974 25.201 2.36561 22.7702 0.907112C20.2486 -0.605819 16.9808 0.165618 15.4021 2.64649L8 14.2783V33.3332C8 37.0151 10.9848 39.9999 14.6667 39.9999H28C30.0984 39.9999 32.0743 39.0119 33.3333 37.3332L40 28.4444V19.9999C40 16.318 37.0152 13.3332 33.3333 13.3332H22.1574L24.8314 7.98527Z"/><path d="M0 13.3332V39.9999H2.66667V13.3332H0Z"/>
    </symbol></svg>