<svg width="40" height="40" viewBox="0 0 40 40" xmlns="http://www.w3.org/2000/svg"><path fill-rule="evenodd" clip-rule="evenodd" d="M0 3.99821C0 1.78727 1.78981 0 4 0H36C38.2102 0 40 1.78727 40 3.99821V27.9826C40 30.1935 38.2102 31.9808 36 31.9808H20.4442L10.133 39.7092C9.72894 40.012 9.18847 40.0606 8.73686 39.8347C8.28525 39.6088 8 39.1472 8 38.6423V31.9808H4C1.78981 31.9808 0 30.1935 0 27.9826V3.99821ZM10.6667 10.6597H29.3333V13.3263H10.6667V10.6597ZM10.6667 18.6545H24V21.3211H10.6667V18.6545Z"/></svg>