<svg width="154" height="37" viewBox="0 0 154 37" fill="none" xmlns="http://www.w3.org/2000/svg"><path d="M65.3889 12.3061V4.14453H66.9783L69.2799 9.37833H69.7749L72.0766 4.14453H73.6662V12.3061H72.6787V5.31135V5.19436H72.6584L70.4205 10.3235H68.6111L66.3877 5.19436H66.3645V5.31135V12.3061H65.3889Z" fill="#6D798F"/><path d="M76.2646 11.5276C75.9561 11.2607 75.7132 10.9419 75.5513 10.5907C75.3893 10.2394 75.3113 9.86313 75.3223 9.48475C75.3201 9.10645 75.404 8.7316 75.5689 8.38149C75.7338 8.03145 75.976 7.71307 76.2823 7.44445C76.5885 7.17592 76.9521 6.96246 77.3533 6.81628C77.7538 6.67011 78.1844 6.59408 78.6188 6.59255C79.0538 6.59102 79.4845 6.66401 79.8872 6.80735C80.2891 6.9507 80.655 7.16158 80.9634 7.42796C81.2726 7.69437 81.5177 8.01106 81.6856 8.35992C81.8534 8.70885 81.941 9.08311 81.9425 9.46134C81.9263 10.0256 81.7224 10.5735 81.355 11.0388C80.9877 11.5041 80.4739 11.8668 79.8746 12.083C79.2754 12.2993 78.6173 12.3596 77.9798 12.2569C77.3416 12.1542 76.7519 11.8928 76.2815 11.5043L76.2646 11.5276ZM76.986 8.00215C76.7718 8.19583 76.6047 8.42455 76.4935 8.67514C76.3824 8.92565 76.3294 9.19294 76.3382 9.46134C76.3308 9.72967 76.3838 9.99667 76.495 10.247C76.6062 10.4974 76.7725 10.7263 76.986 10.9206C77.427 11.2876 78.0137 11.4923 78.6239 11.4923C79.2342 11.4923 79.8209 11.2876 80.2626 10.9206C80.4768 10.7271 80.6439 10.4984 80.7551 10.2478C80.8662 9.99726 80.9192 9.72989 80.9097 9.46134C80.92 9.19309 80.8677 8.92572 80.7573 8.67506C80.6469 8.42448 80.4798 8.19569 80.2655 8.00215C79.8275 7.63047 79.2393 7.42245 78.6276 7.42245C78.0151 7.42245 77.4277 7.63047 76.989 8.00215H76.986Z" fill="#6D798F"/><path d="M83.6104 11.5022C83.3307 11.2299 83.112 10.9072 82.9678 10.5536C82.8242 10.2 82.7572 9.82272 82.7727 9.44434C82.7616 9.06942 82.8301 8.69619 82.9751 8.34675C83.1201 7.9973 83.338 7.67869 83.6163 7.40975C83.9071 7.13806 84.2538 6.92548 84.6359 6.78523C85.0172 6.64498 85.4258 6.58005 85.835 6.59451C86.2451 6.60896 86.647 6.70247 87.0166 6.86922C87.3861 7.03597 87.7152 7.2724 87.9831 7.56378C88.2231 7.84749 88.4027 8.17221 88.5117 8.52003H87.5841C87.4921 8.31605 87.3611 8.12973 87.1977 7.97072C87.0041 7.78617 86.7722 7.64167 86.516 7.54656C86.2598 7.45145 85.9852 7.40783 85.7099 7.41847C85.4427 7.41316 85.1769 7.46234 84.9311 7.56268C84.6859 7.66309 84.4658 7.81216 84.2877 7.9998C83.8997 8.39121 83.6884 8.90931 83.7002 9.44434C83.6833 9.98276 83.8946 10.5054 84.2877 10.8976C84.4651 11.082 84.6815 11.2291 84.9237 11.3292C85.1652 11.4294 85.4272 11.4804 85.6915 11.479C85.9808 11.4924 86.2694 11.445 86.5373 11.3405C86.8046 11.2359 87.0438 11.0767 87.2374 10.8744C87.4119 10.6998 87.5473 10.4942 87.6364 10.2698H88.5639C88.4042 10.8654 88.0324 11.3917 87.5105 11.7617C86.9886 12.1317 86.3481 12.3232 85.6944 12.3044C85.3072 12.3146 84.9215 12.2485 84.5623 12.1103C84.203 11.9722 83.8791 11.765 83.6104 11.5022Z" fill="#6D798F"/><path d="M89.3926 12.3026V6.59253H90.4114V8.8778H91.6982L93.7565 6.59253H94.9924L92.6154 9.27576L95.186 12.2906H93.8993L91.7085 9.73703H90.4217V12.3057L89.3926 12.3026Z" fill="#6D798F"/><path d="M96.0111 11.5154C95.741 11.253 95.529 10.9395 95.3869 10.5943C95.2455 10.2491 95.1778 9.8794 95.1874 9.50772C95.1756 9.12927 95.2411 8.75236 95.381 8.39923C95.5209 8.0461 95.7321 7.72404 96.0023 7.4521C96.2725 7.18015 96.5956 6.96394 96.9534 6.81627C97.3104 6.66862 97.6947 6.59253 98.0834 6.59253C98.4713 6.59253 98.8556 6.66862 99.2134 6.81627C99.5704 6.96394 99.8943 7.18015 100.164 7.4521C100.434 7.72404 100.645 8.0461 100.786 8.39923C100.926 8.75236 100.991 9.12927 100.979 9.50772C100.965 10.0628 100.786 10.6019 100.464 11.0598C100.142 11.5177 99.6904 11.8746 99.1648 12.0871C98.6384 12.2997 98.0606 12.3588 97.5011 12.2574C96.9409 12.1559 96.4234 11.8981 96.0111 11.5154ZM96.6464 8.05066C96.4587 8.24059 96.3115 8.46533 96.2136 8.71165C96.1164 8.95796 96.0708 9.22084 96.0789 9.48475C96.0708 9.74858 96.1171 10.0114 96.2143 10.2576C96.3115 10.5039 96.4587 10.7287 96.6464 10.9188C97.0336 11.2795 97.5482 11.4807 98.0834 11.4807C98.6186 11.4807 99.1331 11.2795 99.5196 10.9188C99.7066 10.7279 99.8523 10.5029 99.9502 10.2569C100.047 10.0108 100.095 9.74844 100.088 9.48475C100.095 9.22091 100.049 8.95826 99.9517 8.71202C99.8545 8.46578 99.7073 8.24096 99.5196 8.05066C99.1353 7.68539 98.62 7.48096 98.0834 7.48096C97.5467 7.48096 97.0307 7.68539 96.6464 8.05066Z" fill="#6D798F"/><path d="M102.636 12.3049V6.59528H105.566C106.042 6.57054 106.511 6.71319 106.883 6.99623C107.038 7.1231 107.161 7.28116 107.243 7.45895C107.326 7.63673 107.365 7.82982 107.36 8.02416C107.362 8.2001 107.335 8.37516 107.279 8.54271C107.234 8.67551 107.165 8.79918 107.073 8.90747C106.999 8.99087 106.913 9.06397 106.817 9.12448C106.747 9.17182 106.671 9.21032 106.59 9.2391C106.549 9.25338 106.506 9.26251 106.464 9.26619C106.512 9.27024 106.56 9.2804 106.606 9.29637C106.704 9.32596 106.799 9.36748 106.887 9.41997C107.005 9.48747 107.116 9.56624 107.218 9.6551C107.336 9.76824 107.427 9.90384 107.487 10.053C107.564 10.239 107.603 10.4377 107.6 10.6378C107.611 10.864 107.568 11.0896 107.476 11.2982C107.384 11.5067 107.244 11.693 107.067 11.8437C106.649 12.1695 106.118 12.3332 105.579 12.3018L102.636 12.3049ZM103.583 8.93757H105.497C106.094 8.93757 106.394 8.69038 106.394 8.19304C106.394 7.69562 106.094 7.45144 105.497 7.45144H103.583V8.93757ZM103.583 11.4487H105.557C105.845 11.467 106.129 11.3857 106.359 11.2196C106.451 11.1412 106.523 11.0443 106.571 10.9358C106.618 10.8273 106.64 10.7101 106.634 10.5926C106.64 10.4747 106.619 10.3569 106.571 10.2479C106.524 10.1389 106.451 10.0414 106.359 9.96258C106.129 9.79754 105.844 9.7173 105.557 9.73644H103.583V11.4487Z" fill="#6D798F"/><path d="M109.27 11.4715C108.993 11.2027 108.776 10.8845 108.632 10.5356C108.488 10.1867 108.42 9.81425 108.431 9.44014C108.42 9.06596 108.487 8.69339 108.632 8.34446C108.776 7.99553 108.993 7.67736 109.27 7.40868C109.56 7.13734 109.906 6.92504 110.287 6.78497C110.668 6.64491 111.076 6.58007 111.484 6.5945C111.893 6.60892 112.295 6.7023 112.663 6.86883C113.032 7.03536 113.361 7.27147 113.629 7.56253C113.868 7.84521 114.046 8.16963 114.153 8.51723H113.227C113.137 8.31303 113.006 8.12693 112.842 7.9688C112.649 7.78425 112.418 7.63975 112.162 7.54479C111.907 7.44982 111.633 7.4064 111.358 7.41739C111.091 7.41209 110.826 7.46123 110.581 7.56142C110.336 7.66161 110.117 7.81046 109.939 7.99781C109.558 8.39459 109.356 8.91468 109.374 9.44883C109.357 9.98599 109.567 10.5078 109.957 10.8998C110.135 11.0838 110.35 11.2305 110.592 11.3306C110.833 11.4306 111.094 11.4815 111.358 11.4803C111.647 11.4938 111.935 11.4467 112.202 11.3423C112.468 11.2379 112.707 11.0788 112.9 10.8767C113.076 10.7038 113.212 10.4982 113.298 10.273H114.223C114.122 10.6451 113.94 10.9932 113.687 11.2946C113.408 11.6207 113.054 11.8817 112.65 12.057C112.247 12.2323 111.805 12.3169 111.361 12.3045C110.97 12.3121 110.581 12.242 110.221 12.0984C109.86 11.9549 109.536 11.7413 109.27 11.4715Z" fill="#6D798F"/><path d="M115.052 12.3026V6.59253H116.073V8.8778H117.359L119.422 6.59253H120.648L118.265 9.27576L120.845 12.2906H119.555L117.37 9.73703H116.083V12.3057L115.052 12.3026Z" fill="#6D798F"/><path d="M121.673 12.3057V6.59253H122.567V10.8758V10.9905H122.587L125.623 6.59253H126.639V12.3057H125.745V8.02232V7.90771H125.721L122.689 12.3057H121.673Z" fill="#6D798F"/><path d="M128.295 12.3061V6.4751H129.188V10.8469V10.9638H129.21L132.244 6.4751H133.261V12.3061H132.366V7.93439V7.81741H132.343L129.308 12.3061H128.295ZM129.105 4.14453H129.943C129.94 4.24037 129.958 4.33572 129.994 4.42361C130.032 4.5115 130.087 4.58971 130.157 4.65252C130.34 4.79183 130.563 4.85952 130.789 4.84339C131.019 4.8631 131.249 4.79521 131.434 4.65252C131.503 4.58941 131.558 4.51108 131.595 4.4232C131.632 4.33533 131.649 4.24013 131.645 4.14453H132.491C132.496 4.34408 132.456 4.54201 132.376 4.72372C132.296 4.90542 132.178 5.06626 132.03 5.19436C131.678 5.48309 131.235 5.62776 130.787 5.60075C130.339 5.627 129.897 5.48236 129.546 5.19436C129.402 5.06404 129.288 4.90226 129.211 4.7207C129.135 4.53914 129.099 4.34234 129.105 4.14453Z" fill="#6D798F"/><path d="M65.3889 22.0999V16.3867H66.2837V20.6723V20.787H66.3076L69.341 16.3867H70.3551V22.0999H69.4603V17.8143V17.6996H69.4394L66.406 22.0999H65.3889Z" fill="#6D798F"/><path d="M72.0103 22.0999V16.3867H72.9072V18.7288H76.0797V16.3867H76.9764V22.0999H76.0797V19.5859H72.9162V22.0999H72.0103Z" fill="#6D798F"/><path d="M78.6321 22.0999V16.3867H79.5294V18.7288H82.7008V16.3867H83.5981V22.0999H82.7008V19.5859H79.5294V22.0999H78.6321Z" fill="#6D798F"/><path d="M86.0792 21.3096C85.809 21.0469 85.597 20.7334 85.4556 20.3883C85.3143 20.0432 85.2458 19.6735 85.2554 19.3019C85.2429 18.9235 85.3084 18.5466 85.449 18.1934C85.5889 17.8403 85.8002 17.5182 86.0703 17.2463C86.3398 16.9744 86.6637 16.7582 87.0207 16.6105C87.3785 16.4628 87.7627 16.3867 88.1507 16.3867C88.5394 16.3867 88.9236 16.4628 89.2807 16.6105C89.6384 16.7582 89.9616 16.9744 90.2318 17.2463C90.5019 17.5182 90.7132 17.8403 90.8531 18.1934C90.9929 18.5466 91.0584 18.9235 91.0467 19.3019C91.0327 19.857 90.8538 20.3961 90.5314 20.854C90.2097 21.3119 89.7584 21.6687 89.2321 21.8813C88.7065 22.0939 88.1286 22.153 87.5684 22.0516C87.0089 21.9501 86.4914 21.6923 86.0792 21.3096ZM86.7144 17.8449C86.526 18.0346 86.3788 18.2593 86.2809 18.5057C86.1837 18.752 86.1381 19.015 86.1461 19.279C86.1381 19.5429 86.1837 19.8057 86.2809 20.0521C86.3788 20.2984 86.526 20.5232 86.7144 20.713C87.0987 21.0783 87.614 21.2827 88.1507 21.2827C88.6873 21.2827 89.2034 21.0783 89.5876 20.713C89.7761 20.5232 89.9233 20.2984 90.0205 20.0521C90.1177 19.8057 90.164 19.5429 90.1552 19.279C90.164 19.015 90.1184 18.752 90.0205 18.5057C89.9233 18.2593 89.7761 18.0346 89.5876 17.8449C89.2034 17.4796 88.6873 17.2752 88.1507 17.2752C87.614 17.2752 87.0987 17.4796 86.7144 17.8449Z" fill="#6D798F"/><path d="M92.7029 22.0998V16.3899H95.6401C96.1171 16.3634 96.5875 16.5051 96.9615 16.788C97.1168 16.9147 97.2405 17.0728 97.3229 17.2508C97.4061 17.4287 97.4459 17.622 97.44 17.8166C97.4415 17.9926 97.4142 18.1678 97.3575 18.3354C97.2832 18.5767 97.1183 18.7837 96.8952 18.9176C96.8246 18.9649 96.748 19.0034 96.667 19.0322C96.6265 19.0485 96.5838 19.0588 96.5404 19.0624C96.5897 19.0666 96.6383 19.0757 96.6862 19.0895C96.7855 19.1197 96.8798 19.1623 96.9681 19.2162C97.0815 19.2831 97.1875 19.3609 97.2847 19.4485C97.4032 19.5626 97.4952 19.6993 97.5541 19.8496C97.6321 20.0346 97.6711 20.2325 97.6682 20.4318C97.6778 20.6577 97.6351 20.883 97.543 21.0916C97.451 21.3 97.3119 21.4867 97.1359 21.6384C96.7149 21.9631 96.1812 22.1256 95.6401 22.0938L92.7029 22.0998ZM93.654 18.7306H95.5709C96.1723 18.7306 96.4705 18.4832 96.4705 17.9885C96.4705 17.4939 96.1819 17.2556 95.5797 17.2556H93.6628L93.654 18.7306ZM93.654 21.2432H95.6305C95.9191 21.2629 96.2055 21.1814 96.4359 21.014C96.5227 20.932 96.5919 20.8343 96.6398 20.7266C96.6869 20.6189 96.7112 20.5033 96.7112 20.3865C96.7112 20.2698 96.6869 20.1542 96.6398 20.0464C96.5919 19.9387 96.5227 19.8411 96.4359 19.7591C96.2055 19.5917 95.9191 19.5102 95.6305 19.5299H93.654V21.2432Z" fill="#6D798F"/><path d="M99.3135 21.2862C98.7687 20.7347 98.4765 20.0022 98.4986 19.2476C98.4757 18.4929 98.7687 17.7603 99.3135 17.209C99.563 16.9464 99.8685 16.7373 100.21 16.5956C100.552 16.454 100.922 16.3831 101.294 16.3877C101.722 16.376 102.145 16.4672 102.525 16.6527C102.815 16.7911 103.068 16.9904 103.264 17.2352L103.368 17.3983V16.4839H104.291V21.9968H103.368V21.1056L103.264 21.26C103.074 21.4998 102.827 21.6943 102.544 21.8278C102.156 22.0182 101.722 22.1115 101.286 22.0987C100.915 22.1032 100.547 22.033 100.207 21.893C99.867 21.7529 99.563 21.546 99.3135 21.2862ZM100.005 17.774C99.6256 18.1717 99.4232 18.6939 99.443 19.2301C99.4239 19.7663 99.6256 20.2883 100.005 20.6862C100.189 20.8675 100.409 21.0117 100.652 21.1103C100.895 21.2088 101.158 21.2596 101.423 21.2596C101.688 21.2596 101.949 21.2088 102.193 21.1103C102.436 21.0117 102.656 20.8675 102.839 20.6862C103.219 20.2883 103.421 19.7663 103.402 19.2301C103.421 18.6939 103.219 18.1717 102.839 17.774C102.656 17.5927 102.436 17.4485 102.193 17.3499C101.949 17.2515 101.688 17.2006 101.423 17.2006C101.158 17.2006 100.895 17.2515 100.652 17.3499C100.409 17.4485 100.189 17.5927 100.005 17.774Z" fill="#6D798F"/><path d="M105.946 22.3597V16.3867H106.886V21.4635H109.971V16.3867H110.911V21.4635H111.74V23.7322H110.801V22.3597H105.946Z" fill="#6D798F"/><path d="M112.568 22.0999V16.3867H113.462V20.6723V20.787H113.483L116.519 16.3867H117.535V22.0999H116.641V17.8143V17.6996H116.62L113.584 22.0999H112.568Z" fill="#6D798F"/><path d="M120.015 21.3096C119.745 21.0469 119.533 20.7334 119.391 20.3883C119.25 20.0432 119.182 19.6735 119.191 19.3019C119.179 18.9235 119.245 18.5466 119.384 18.1934C119.524 17.8403 119.736 17.5182 120.006 17.2463C120.276 16.9744 120.599 16.7582 120.957 16.6105C121.314 16.4628 121.698 16.3867 122.087 16.3867C122.475 16.3867 122.859 16.4628 123.217 16.6105C123.574 16.7582 123.897 16.9744 124.167 17.2463C124.437 17.5182 124.649 17.8403 124.788 18.1934C124.929 18.5466 124.995 18.9235 124.982 19.3019C124.968 19.857 124.789 20.3961 124.467 20.854C124.145 21.3119 123.694 21.6687 123.168 21.8813C122.642 22.0939 122.064 22.153 121.504 22.0516C120.944 21.9501 120.427 21.6923 120.015 21.3096ZM120.65 17.8449C120.461 18.0346 120.314 18.2593 120.217 18.5057C120.119 18.752 120.073 19.015 120.082 19.279C120.073 19.5429 120.12 19.8057 120.217 20.0521C120.314 20.2984 120.461 20.5232 120.65 20.713C121.034 21.0783 121.55 21.2827 122.087 21.2827C122.623 21.2827 123.139 21.0783 123.523 20.713C123.711 20.5232 123.859 20.2984 123.956 20.0521C124.054 19.8057 124.099 19.5429 124.091 19.279C124.099 19.015 124.054 18.752 123.957 18.5057C123.859 18.2593 123.711 18.0346 123.523 17.8449C123.139 17.4796 122.623 17.2752 122.087 17.2752C121.55 17.2752 121.034 17.4796 120.65 17.8449Z" fill="#6D798F"/><path d="M126.639 22.0999V16.3867H127.536V18.7288H130.709V16.3867H131.605V22.0999H130.709V19.5859H127.545V22.0999H126.639Z" fill="#6D798F"/><path d="M133.261 22.0999V16.3867H134.158V18.7288H137.329V16.3867H138.227V22.0999H137.329V19.5859H134.158V22.0999H133.261Z" fill="#6D798F"/><path d="M139.882 22.0979V16.3867H140.866V18.3267H142.354C142.976 18.3028 143.583 18.497 144.056 18.8697C144.262 19.0377 144.428 19.2442 144.542 19.4757C144.655 19.7072 144.714 19.9583 144.714 20.2123C144.714 20.4663 144.655 20.7174 144.542 20.9489C144.428 21.1804 144.262 21.387 144.056 21.5548C143.583 21.9276 142.976 22.1217 142.354 22.0979H139.882ZM140.866 21.2411H142.354C142.716 21.2625 143.074 21.1605 143.361 20.9545C143.474 20.8611 143.565 20.7467 143.626 20.6188C143.689 20.491 143.721 20.3524 143.721 20.2123C143.721 20.0722 143.689 19.9337 143.626 19.8057C143.565 19.6779 143.474 19.5635 143.361 19.4701C143.076 19.2602 142.718 19.1529 142.354 19.1684H140.866V21.2411ZM145.52 22.0979V16.3867H146.504V22.0979H145.52Z" fill="#6D798F"/><path d="M148.159 22.0999V16.2719H149.053V20.6436V20.7606H149.074L152.11 16.2719H153.125V22.0999H152.232V17.7281V17.6111H152.207L149.172 22.0999H148.159ZM148.972 13.9382H149.819C149.815 14.0342 149.833 14.1296 149.869 14.2176C149.907 14.3056 149.962 14.3837 150.033 14.4462C150.221 14.5729 150.44 14.6403 150.665 14.6403C150.889 14.6403 151.108 14.5729 151.296 14.4462C151.367 14.3837 151.423 14.3056 151.46 14.2176C151.497 14.1296 151.514 14.0342 151.51 13.9382H152.357C152.364 14.1391 152.327 14.3392 152.249 14.5232C152.17 14.7072 152.052 14.8703 151.904 15.0004C151.541 15.2666 151.108 15.4096 150.663 15.4096C150.218 15.4096 149.785 15.2666 149.423 15.0004C149.275 14.8699 149.158 14.7065 149.08 14.5227C149.002 14.3387 148.965 14.1389 148.972 13.9382Z" fill="#6D798F"/><path d="M65.3889 31.8942V26.1812H66.2648V28.4676H67.3713L69.1406 26.1812H70.1887L68.145 28.8657L70.3551 31.8822H69.2574L67.3772 29.3122H66.2706V31.8822L65.3889 31.8942Z" fill="#6D798F"/><path d="M70.355 31.8942L72.006 26.1812H74.4979L76.1491 31.8942H75.1332L73.775 27.0378H72.7131L71.3581 31.8942H70.355Z" fill="#6D798F"/><path d="M77.7861 31.0725C77.2642 30.5088 76.9763 29.7856 76.9763 29.037C76.9763 28.2884 77.2642 27.5652 77.7861 27.0015C78.0356 26.7394 78.3411 26.5306 78.6834 26.3891C79.025 26.2477 79.3946 26.1769 79.7685 26.1814C80.1962 26.1712 80.6202 26.2622 81.0008 26.4461C81.2894 26.587 81.5419 26.7854 81.7407 27.0276L81.8459 27.1934V26.2774H82.7705V31.785H81.8459V30.9126L81.7407 31.0667C81.5537 31.301 81.3122 31.4919 81.0347 31.6251C80.6453 31.8135 80.2117 31.9056 79.7744 31.8926C79.3997 31.898 79.0287 31.8276 78.6856 31.6861C78.3426 31.5447 78.0364 31.3354 77.7861 31.0725ZM78.4677 27.5656C78.1034 27.9768 77.9039 28.4954 77.9039 29.0312C77.9039 29.567 78.1034 30.0857 78.4677 30.4968C78.6511 30.6769 78.8712 30.8203 79.1148 30.9182C79.3585 31.016 79.6206 31.0665 79.8856 31.0665C80.1498 31.0665 80.4119 31.016 80.6556 30.9182C80.8992 30.8203 81.1193 30.6769 81.3034 30.4968C81.6692 30.0867 81.871 29.5676 81.871 29.0312C81.871 28.4948 81.6692 27.9757 81.3034 27.5656C81.1201 27.3847 80.9 27.2408 80.6563 27.1424C80.4126 27.0441 80.1506 26.9933 79.8856 26.9933C79.6206 26.9933 79.3577 27.0441 79.1141 27.1424C78.8704 27.2408 78.6503 27.3847 78.4677 27.5656Z" fill="#6D798F"/><path d="M85.2716 31.0781C84.7276 30.5204 84.4265 29.7923 84.4265 29.037C84.4265 28.2817 84.7276 27.5536 85.2716 26.9958C85.5624 26.7249 85.9091 26.5128 86.2912 26.3729C86.6732 26.233 87.0818 26.1683 87.4918 26.1826C87.9019 26.1971 88.3045 26.2903 88.6741 26.4567C89.0436 26.6231 89.3734 26.8588 89.6414 27.1495C89.8828 27.4318 90.0632 27.756 90.1707 28.1034H89.2424C89.1489 27.895 89.0149 27.7052 88.8463 27.5438C88.6527 27.3598 88.4201 27.2157 88.1639 27.1208C87.9077 27.0259 87.6324 26.9824 87.3571 26.993C87.0892 26.9877 86.8234 27.0368 86.5775 27.1369C86.3317 27.2369 86.1123 27.3857 85.9334 27.5728C85.5499 27.9681 85.3452 28.4882 85.3644 29.0225C85.3474 29.5596 85.5594 30.081 85.9525 30.4721C86.13 30.6561 86.3464 30.8028 86.5886 30.9027C86.8308 31.0027 87.0928 31.0535 87.3571 31.0521C87.6472 31.0654 87.9357 31.0182 88.2037 30.9139C88.4716 30.8096 88.7109 30.6508 88.9045 30.449C89.0745 30.2804 89.2063 30.0811 89.2917 29.8633H90.22C90.1191 30.2351 89.9358 30.5828 89.6819 30.8839C89.4036 31.2086 89.0488 31.4686 88.6461 31.6436C88.2427 31.8187 87.8017 31.9039 87.3571 31.8928C86.9684 31.9011 86.5812 31.8329 86.222 31.6926C85.8627 31.5523 85.5388 31.3429 85.2716 31.0781Z" fill="#6D798F"/><path d="M90.2197 27.0378V26.1812H95.1858V27.0378H93.165V31.8942H92.25V27.0378H90.2197Z" fill="#6D798F"/><path d="M96.8413 31.0782C96.3091 30.523 96.0139 29.7941 96.0139 29.0372C96.0139 28.2804 96.3091 27.5515 96.8413 26.9962C97.1093 26.7299 97.431 26.5201 97.7873 26.3799C98.1429 26.2397 98.5249 26.1722 98.9084 26.1815C99.2927 26.1732 99.674 26.2403 100.031 26.3788C100.387 26.5173 100.711 26.7243 100.981 26.9873C101.252 27.2503 101.465 27.5637 101.607 27.9087C101.749 28.2535 101.817 28.6227 101.807 28.9937V29.3126H96.926C96.9717 29.7962 97.2028 30.2459 97.5738 30.5737C97.936 30.9007 98.416 31.0777 98.9114 31.0667C99.4392 31.0791 99.9523 30.9037 100.355 30.5737C100.529 30.4374 100.677 30.2701 100.787 30.0809H101.687C101.476 30.6248 101.096 31.0917 100.598 31.4165C100.1 31.7413 99.5091 31.9078 98.9084 31.8929C98.5249 31.9025 98.1429 31.835 97.7866 31.6948C97.431 31.5546 97.1093 31.3446 96.8413 31.0782ZM96.9437 28.5443H100.844C100.781 28.1199 100.561 27.7318 100.225 27.4514C99.8632 27.1493 99.3965 26.9899 98.918 27.0049C98.4366 26.9919 97.9676 27.1509 97.6003 27.4514C97.2528 27.7275 97.0195 28.1155 96.9437 28.5443Z" fill="#6D798F"/><path d="M103.463 34.3423V26.3081H104.385V27.2305L104.502 27.0552C104.69 26.8072 104.933 26.6061 105.212 26.468C105.6 26.2662 106.033 26.1677 106.469 26.182C106.843 26.1774 107.212 26.2523 107.553 26.4018C107.894 26.5514 108.2 26.772 108.45 27.0491C108.97 27.6452 109.257 28.4099 109.257 29.2014C109.257 29.9929 108.97 30.7576 108.45 31.3537C108.041 31.7835 107.507 32.0719 106.924 32.177C106.34 32.2821 105.738 32.1983 105.206 31.9379C104.923 31.8023 104.681 31.5957 104.502 31.3383L104.385 31.1754V34.3423H103.463ZM104.96 27.6702C104.595 28.1038 104.394 28.6527 104.394 29.2199C104.394 29.787 104.595 30.3359 104.96 30.7695C105.144 30.96 105.363 31.1115 105.606 31.215C105.849 31.3185 106.11 31.3719 106.374 31.3719C106.639 31.3719 106.9 31.3185 107.143 31.215C107.386 31.1115 107.605 30.96 107.788 30.7695C108.154 30.3359 108.355 29.787 108.355 29.2199C108.355 28.6527 108.154 28.1038 107.788 27.6702C107.606 27.479 107.387 27.3267 107.144 27.2227C106.901 27.1187 106.639 27.0651 106.374 27.0651C106.11 27.0651 105.848 27.1187 105.605 27.2227C105.362 27.3267 105.143 27.479 104.96 27.6702Z" fill="#6D798F"/><path d="M57.4752 0.0754395H43.7388V35.5861H57.4752V0.0754395Z" fill="#6D798F"/><path d="M35.6064 0.0754395H21.8699V32.3924H35.6064V0.0754395Z" fill="#6D798F"/><path d="M0 36.1566V22.2527C5.80269 22.2453 11.3653 19.9043 15.4658 15.7438C19.5664 11.5833 21.8696 5.94362 21.8696 0.0634766H35.606C35.5988 9.63167 31.8455 18.806 25.17 25.5728C18.4945 32.3397 9.44217 36.1461 0 36.1566Z" fill="#6D798F"/><path d="M21.8699 36.1566V22.2527C27.6733 22.2464 33.2368 19.9058 37.3382 15.7452C41.4396 11.5846 43.7434 5.9443 43.7434 0.0634766H57.4798C57.4716 9.63204 53.7174 18.8063 47.0413 25.5731C40.3651 32.3398 31.3124 36.1461 21.8699 36.1566Z" fill="#6D798F"/></svg>