<svg width="246" height="50" viewBox="0 0 246 50" fill="none" xmlns="http://www.w3.org/2000/svg"><path d="M93.0439 34.279C97.186 34.279 99.5423 32.0468 99.5423 28.7728C99.5423 25.9205 97.9053 24.3579 94.4081 23.7378L92.7959 23.4402C91.1341 23.1426 90.39 22.5969 90.39 21.2824C90.39 19.9926 91.3573 19.2485 93.2176 19.2485C95.053 19.2485 96.2435 19.9678 97.0868 21.0343L99.319 18.9261C97.9301 17.2643 95.9955 16.3714 93.3912 16.3714C89.5219 16.3714 87.1161 18.3804 87.1161 21.4808C87.1161 24.3083 88.8027 25.9701 92.2999 26.5157L93.9368 26.7638C95.7474 27.0862 96.2931 27.8055 96.2931 28.9712C96.2931 30.4346 95.2514 31.4019 93.2424 31.4019C91.4566 31.4019 89.9932 30.6578 88.8027 29.2689L86.5952 31.4019C88.0586 33.1133 90.0924 34.279 93.0439 34.279Z" fill="#6D798F"/><path d="M106.572 33.9814H108.854V31.4515H106.398V23.5642H109.052V21.0343H106.398V17.4875H103.546V19.695C103.546 20.5879 103.248 21.0343 102.306 21.0343H101.314V23.5642H103.224V30.6826C103.224 32.7908 104.389 33.9814 106.572 33.9814Z" fill="#6D798F"/><path d="M115.005 34.279C116.94 34.279 118.354 33.4109 118.775 31.7491H118.924C119.123 33.0885 119.966 33.9814 121.33 33.9814H123.091V31.4515H121.801V25.35C121.801 22.3985 119.941 20.7367 116.444 20.7367C113.84 20.7367 112.327 21.7288 111.384 23.217L113.269 24.9036C113.889 24.0107 114.733 23.2666 116.221 23.2666C117.907 23.2666 118.627 24.1099 118.627 25.5484V26.4909H116.419C112.897 26.4909 110.888 27.8055 110.888 30.4594C110.888 32.766 112.376 34.279 115.005 34.279ZM116.072 31.9724C114.832 31.9724 114.113 31.4515 114.113 30.4098V29.9881C114.113 28.9712 114.931 28.4008 116.593 28.4008H118.627V30.1122C118.627 31.3275 117.486 31.9724 116.072 31.9724Z" fill="#6D798F"/><path d="M128.835 33.9814V26.0445C128.835 24.6307 129.951 24.0355 132.084 24.0355H133.077V21.0343H132.382C130.323 21.0343 129.282 22.3489 128.959 23.713H128.835V21.0343H125.661V33.9814H128.835Z" fill="#6D798F"/><path d="M139.537 33.9814H141.819V31.4515H139.364V23.5642H142.018V21.0343H139.364V17.4875H136.511V19.695C136.511 20.5879 136.214 21.0343 135.271 21.0343H134.279V23.5642H136.189V30.6826C136.189 32.7908 137.355 33.9814 139.537 33.9814Z" fill="#6D798F"/><path d="M152.51 33.9814H155.684V21.0343H152.51V29.5913C152.51 30.9802 151.245 31.6499 149.98 31.6499C148.467 31.6499 147.797 30.6826 147.797 28.8968V21.0343H144.622V29.2193C144.622 32.4436 146.111 34.279 148.765 34.279C150.898 34.279 151.939 33.1133 152.386 31.8235H152.51V33.9814Z" fill="#6D798F"/><path d="M159.353 38.9419H162.527V31.8235H162.627C163.123 33.2869 164.487 34.279 166.198 34.279C169.472 34.279 171.283 31.8235 171.283 27.4831C171.283 23.1674 169.472 20.7367 166.198 20.7367C164.487 20.7367 163.098 21.6792 162.627 23.1674H162.527V21.0343H159.353V38.9419ZM165.181 31.6499C163.668 31.6499 162.527 30.881 162.527 29.5417V25.4244C162.527 24.1595 163.668 23.341 165.181 23.341C166.818 23.341 167.959 24.5563 167.959 26.3917V28.624C167.959 30.4594 166.818 31.6499 165.181 31.6499Z" fill="#6D798F"/><path d="M191.322 33.9814H194.149V24.5563H187.601V27.3094H190.999V28.4256C190.999 30.385 189.338 31.3771 187.304 31.3771C184.699 31.3771 183.013 29.7401 183.013 26.7142V23.9363C183.013 20.8855 184.699 19.2733 187.254 19.2733C189.313 19.2733 190.528 20.3895 191.148 21.8776L193.802 20.3151C192.562 17.7852 190.33 16.3714 187.254 16.3714C182.641 16.3714 179.54 19.571 179.54 25.3748C179.54 31.1787 182.616 34.279 186.684 34.279C189.288 34.279 190.925 32.9893 191.223 31.3027H191.322V33.9814Z" fill="#6D798F"/><path d="M205.482 33.9814H208.657V21.0343H205.482V29.5913C205.482 30.9802 204.217 31.6499 202.952 31.6499C201.439 31.6499 200.77 30.6826 200.77 28.8968V21.0343H197.595V29.2193C197.595 32.4436 199.083 34.279 201.737 34.279C203.87 34.279 204.912 33.1133 205.358 31.8235H205.482V33.9814Z" fill="#6D798F"/><path d="M213.912 19.1493C215.202 19.1493 215.772 18.4797 215.772 17.5619V17.0659C215.772 16.1482 215.202 15.4785 213.912 15.4785C212.598 15.4785 212.052 16.1482 212.052 17.0659V17.5619C212.052 18.4797 212.598 19.1493 213.912 19.1493ZM212.325 33.9814H215.5V21.0343H212.325V33.9814Z" fill="#6D798F"/><path d="M227.216 33.9814H230.39V15.6273H227.216V23.1674H227.092C226.645 21.6792 225.231 20.7367 223.52 20.7367C220.271 20.7367 218.46 23.1674 218.46 27.4831C218.46 31.8235 220.271 34.279 223.52 34.279C225.231 34.279 226.62 33.2869 227.092 31.8235H227.216V33.9814ZM224.537 31.6499C222.9 31.6499 221.784 30.4594 221.784 28.624V26.3917C221.784 24.5563 222.9 23.341 224.537 23.341C226.05 23.341 227.216 24.1595 227.216 25.4244V29.5417C227.216 30.881 226.05 31.6499 224.537 31.6499Z" fill="#6D798F"/><path d="M239.285 34.279C241.691 34.279 243.576 33.3613 244.642 31.8979L242.931 29.9881C242.137 31.0051 241.195 31.7491 239.632 31.7491C237.549 31.7491 236.482 30.4842 236.482 28.624V28.3015H245.089V27.2598C245.089 23.713 243.229 20.7367 239.186 20.7367C235.391 20.7367 233.183 23.3906 233.183 27.4831C233.183 31.6251 235.465 34.279 239.285 34.279ZM239.235 23.1178C240.872 23.1178 241.79 24.3331 241.79 26.1189V26.3421H236.482V26.1437C236.482 24.3579 237.574 23.1178 239.235 23.1178Z" fill="#6D798F"/><path d="M39.5742 12.4855C32.6787 19.381 32.6557 30.5378 39.5228 37.4049L64.4937 12.4341C57.6265 5.56695 46.4697 5.58996 39.5742 12.4855Z" fill="#6D798F"/><mask id="mask0_87_490" style="mask-type:alpha" maskUnits="userSpaceOnUse" x="34" y="7" width="31" height="31"><path d="M39.5744 12.4862C32.6789 19.3817 32.6559 30.5385 39.5231 37.4057L64.4939 12.4348C57.6268 5.56768 46.4699 5.59069 39.5744 12.4862Z" fill="#6D798F"/></mask><g mask="url(#mask0_87_490)" fill="#6D798F"><path transform="rotate(45 65.029 7.267)" d="M65.029 7.267H66.691V62.399H65.029z"/><path transform="rotate(45 55.584 2.84)" d="M55.584 2.84H57.246V57.971999999999994H55.584z"/><path transform="rotate(45 61.848 5.807)" d="M61.848 5.807H63.51V60.939H61.848z"/><path transform="rotate(45 52.6 1.184)" d="M52.6 1.184H54.262V56.315999999999995H52.6z"/><path transform="rotate(45 58.435 4.632)" d="M58.435 4.632H60.097V59.763999999999996H58.435z"/></g><path d="M39.5746 37.5147C46.4701 44.4102 57.6269 44.4332 64.494 37.5661L39.5232 12.5952C32.6561 19.4623 32.6791 30.6192 39.5746 37.5147Z" fill="#6D798F"/><path d="M31.3972 25H10.5371C5.52605 25 1.46753 21.0272 1.46753 16.133C1.46753 11.2339 5.53112 7.26611 10.5371 7.26611H31.3972V25Z" fill="#6D798F"/><path d="M-4.02455e-05 25.0014L20.8024 25.0014C25.7996 25.0014 29.8469 28.9632 29.8469 33.8439C29.8469 38.7294 25.7946 42.6863 20.8024 42.6863L-4.17915e-05 42.6863L-4.02455e-05 25.0014Z" fill="#6D798F"/><path d="M51.9456 25.0015V25.0015C61.7171 25.0015 69.6385 32.9229 69.6385 42.6944V42.6944H51.9456V25.0015Z" fill="#6D798F"/><rect x="12.162" y="25.002" width="17.684" height="17.684" rx="8.842" fill="#6D798F"/><rect x="13.842" y="26.68" width="14.326" height="14.326" rx="7.163" fill="#6D798F"/><rect x="15.582" y="28.42" width="10.845" height="10.845" rx="5.423" fill="#6D798F"/><rect x="17.379" y="30.218" width="7.251" height="7.251" rx="3.626" fill="#6D798F"/><rect x="19.126" y="31.964" width="3.757" height="3.757" rx="1.879" fill="#6D798F"/><rect x="1.492" y="7.266" width="17.734" height="17.734" rx="8.867" fill="#6D798F"/><rect x="3.196" y="8.971" width="14.326" height="14.326" rx="7.163" fill="#6D798F"/><rect x="4.936" y="10.711" width="10.845" height="10.845" rx="5.423" fill="#6D798F"/><rect x="6.734" y="12.508" width="7.251" height="7.251" rx="3.626" fill="#6D798F"/><rect x="8.48" y="14.255" width="3.757" height="3.757" rx="1.879" fill="#6D798F"/></svg>