<svg width="111" height="36" viewBox="0 0 111 36" fill="none" xmlns="http://www.w3.org/2000/svg"><path fill-rule="evenodd" clip-rule="evenodd" d="M58.2292 7.97631H59.7541L59.1645 6.04306H58.8188L58.2292 7.97631ZM60.0681 8.99143H57.9314L57.477 10.4966H56.3217L58.1042 4.9276H59.9184L61.7103 10.4966H60.5225L60.0681 8.99143ZM63.6939 5.9653V10.4966H62.5027V4.9276H66.624V5.9653H63.6939ZM71.8542 9.45802V10.4966H67.5747V4.9276H71.7669V5.9653H68.7573V7.13511H71.0995V8.14856H68.7573V9.45802H71.8542ZM77.8761 4.9276V10.4966H76.684V8.16361H74.1545V10.4966H72.9633V4.9276H74.1545V7.09665H76.684V4.9276H77.8761ZM83.2647 5.95025H81.4847V10.4966H80.2901V5.95025H78.5102V4.9276H83.2647V5.95025ZM88.8116 8.7874C88.637 9.8853 87.7735 10.6512 86.4506 10.6512C84.722 10.6512 83.7404 9.47558 83.7404 7.789C83.7404 6.10327 84.7305 4.9276 86.4506 4.9276C87.7102 4.9276 88.5583 5.62414 88.7559 6.63675H87.5202C87.385 6.19608 87.0128 5.9561 86.4506 5.9561C85.4357 5.9561 84.953 6.7605 84.953 7.789C84.953 8.80998 85.4357 9.62274 86.4506 9.62274C87.0607 9.62274 87.4723 9.31336 87.5836 8.78657H88.8116V8.7874ZM94.0418 5.95025H92.2619V10.4966H91.0673V5.95025H89.2873V4.9276H94.0418V5.95025ZM98.3565 8.81918C98.3565 8.35092 98.0578 8.10926 97.4451 8.10926H96.034V9.50568H97.4288C98.0261 9.50568 98.3565 9.2866 98.3565 8.82001V8.81918ZM98.1947 6.51132C98.1947 6.09909 97.92 5.8959 97.3801 5.8959H96.034V7.13762H97.3878C97.9295 7.13595 98.1947 6.93359 98.1947 6.51216V6.51132ZM99.5896 8.88105C99.5896 9.80921 98.9683 10.4966 97.6068 10.4966H94.8342V4.9276H97.5332C98.8074 4.9276 99.4278 5.60658 99.4278 6.40178C99.4278 6.90934 99.1942 7.34583 98.8237 7.52477V7.68114C99.2345 7.84503 99.5896 8.3275 99.5896 8.88105ZM104.71 7.78984C104.71 6.76887 104.223 5.9561 103.155 5.9561C102.095 5.9561 101.601 6.76887 101.601 7.789C101.601 8.80998 102.095 9.62274 103.155 9.62274C104.223 9.62274 104.71 8.80998 104.71 7.789V7.78984ZM105.929 7.78984C105.929 9.4137 104.956 10.6512 103.155 10.6512C101.353 10.6512 100.382 9.4137 100.382 7.789C100.382 6.16514 101.353 4.9276 103.155 4.9276C104.956 4.9276 105.929 6.16514 105.929 7.789V7.78984ZM57.8937 15.1365V19.0281H58.0503L60.1726 15.1365H61.7103V20.7055H60.6047V16.7286H60.4472L58.2779 20.7055H56.7967V15.1365H57.8937ZM68.0496 15.1365V20.7055H66.8576V18.3725H64.328V20.7055H63.136V15.1365H64.328V17.3056H66.8576V15.1365H68.0496ZM74.2306 15.1365V20.7055H73.0394V18.3725H70.5099V20.7055H69.3178V15.1365H70.5099V17.3056H73.0394V15.1365H74.2306ZM79.5097 17.9979C79.5097 16.9778 79.0236 16.165 77.9557 16.165C76.8945 16.165 76.4008 16.9769 76.4008 17.9979C76.4008 19.0189 76.8954 19.8308 77.9557 19.8308C79.0236 19.8308 79.5097 19.0197 79.5097 17.9979ZM80.7291 17.9979C80.7291 19.6226 79.7561 20.8601 77.9557 20.8601C76.1535 20.8601 75.1813 19.6226 75.1813 17.9979C75.1813 16.374 76.1535 15.1365 77.9557 15.1365C79.7561 15.1365 80.7282 16.374 80.7282 17.9979H80.7291ZM85.3595 19.0281C85.3595 18.5598 85.0617 18.3182 84.4481 18.3182H83.0379V19.7146H84.4327C85.03 19.7146 85.3595 19.4955 85.3595 19.0289V19.0281ZM85.1978 16.7202C85.1978 16.308 84.9239 16.1048 84.3831 16.1048H83.0379V17.3457H84.3917C84.9333 17.344 85.1978 17.1417 85.1978 16.7202ZM86.5926 19.09C86.5926 20.0181 85.9714 20.7055 84.6099 20.7055H81.8373V15.1365H84.5371C85.8113 15.1365 86.4309 15.8155 86.4309 16.6107C86.4309 17.1183 86.1981 17.5547 85.8276 17.7337V17.89C86.2375 18.0539 86.5926 18.5364 86.5926 19.09ZM88.9767 18.1852H90.5016L89.912 16.252H89.5663L88.9767 18.1852ZM90.8148 19.2003H88.6789L88.2237 20.7055H87.0684L88.8518 15.1365H90.6659L92.457 20.7055H91.2701L90.8148 19.2003ZM97.6539 20.7272H93.2494V15.1365H94.4235V19.6853H96.8187V15.1365H97.9928V19.6853H98.7963V22.0977H97.6539V20.7264V20.7272ZM100.844 15.1365V19.0281H101.002L103.122 15.1365H104.661V20.7055H103.556V16.7286H103.399L101.229 20.7055H99.7479V15.1365H100.844ZM110.03 13.7434C109.967 14.4751 109.431 14.93 108.539 14.93C107.648 14.93 107.111 14.4751 107.049 13.7434H107.916C107.948 14.0052 108.152 14.2217 108.539 14.2217C108.918 14.2217 109.122 14.0144 109.162 13.7434H110.03ZM107.183 15.2067V19.049H107.341L109.463 15.2067H111V20.7046H109.895V16.7771H109.737L107.568 20.7046H106.087V15.2067H107.183ZM56.7967 25.5026H58.6587L59.5864 27.7252H59.7447L60.6723 25.5026H62.5027V31.0716H61.3911V26.7276H61.2311L60.1931 29.2069H59.1063L58.0683 26.7276H57.9074V31.0707H56.7967V25.5018V25.5026ZM67.7818 28.2093C67.7818 27.1892 67.2957 26.3764 66.2278 26.3764C65.1666 26.3764 64.6729 27.1883 64.6729 28.2093C64.6729 29.2303 65.1675 30.0422 66.2278 30.0422C67.2957 30.0422 67.7818 29.2311 67.7818 28.2093ZM69.0012 28.2093C69.0012 29.834 68.0274 31.0707 66.2278 31.0707C64.4256 31.0707 63.4534 29.8332 63.4534 28.2093C63.4534 26.5855 64.4256 25.3479 66.2278 25.3479C68.0274 25.3479 69.0003 26.5855 69.0003 28.2093H69.0012ZM74.8647 29.2077C74.691 30.3056 73.8267 31.0707 72.5029 31.0707C70.776 31.0707 69.7936 29.8959 69.7936 28.2093C69.7936 26.5236 70.7837 25.3479 72.5037 25.3479C73.7634 25.3479 74.6114 26.0436 74.81 27.0571H73.5734C73.4382 26.6164 73.066 26.3764 72.5037 26.3764C71.4888 26.3764 71.0062 27.1808 71.0062 28.2093C71.0062 29.2303 71.4888 30.0422 72.5037 30.0422C73.1139 30.0422 73.5255 29.7328 73.6367 29.2077H74.8647ZM75.9738 25.5026H77.1709V27.6784H78.4939L79.5798 25.5026H80.8138L79.4994 28.2093L80.8883 31.0707H79.6517L78.505 28.7303H77.1718V31.0716H75.9738V25.5026ZM85.202 29.3942C85.202 28.9259 84.9034 28.6834 84.2907 28.6834H82.8796V30.0807H84.2744C84.8717 30.0807 85.202 29.8616 85.202 29.3942ZM85.0395 27.0863C85.0395 26.6733 84.7656 26.4709 84.2256 26.4709H82.8796V27.711H84.2334C84.775 27.7093 85.0403 27.5069 85.0403 27.0863H85.0395ZM86.4343 29.4561C86.4343 30.3842 85.813 31.0707 84.4516 31.0707H81.6798V25.5018H84.3788C85.653 25.5018 86.2734 26.1816 86.2734 26.9768C86.2734 27.4835 86.0398 27.92 85.6693 28.0998V28.2553C86.08 28.42 86.4343 28.9025 86.4343 29.4561ZM92.5314 31.0707H93.7252V25.5018H92.5314V31.0707ZM90.6711 29.2303C90.6711 28.7077 90.3827 28.4117 89.5886 28.4117H88.5788V30.0506H89.5886C90.3827 30.0506 90.6711 29.7604 90.6711 29.2303ZM87.385 31.0707V25.5018H88.5788V27.3899H89.7717C91.1109 27.3899 91.8956 28.0839 91.8956 29.2228C91.8956 30.3767 91.1101 31.0707 89.7717 31.0707H87.385ZM9.53592 31.9947C9.28775 32.2957 8.90781 32.3969 8.6836 32.2221C8.48678 32.0675 8.48079 31.7472 8.65194 31.4679C8.51036 31.5 8.38561 31.5815 8.30109 31.697C8.08886 31.9964 8.21209 32.4421 8.5792 32.6921C8.94717 32.9446 9.41783 32.9036 9.63091 32.6059C9.77895 32.3986 9.76183 32.1193 9.61379 31.8843C9.59154 31.9211 9.56587 31.9596 9.53592 31.9947ZM22.1136 10.7641C21.6711 10.3502 21.8021 9.53244 21.8021 9.53244C21.6155 9.68546 21.3776 10.7533 21.7721 11.2943C22.2291 11.9214 22.6381 12.0084 23.0001 12.6915C23.0446 12.5945 22.9881 12.3504 22.894 12.1672C22.7519 11.8888 22.6972 11.658 23.0309 11.5627C23.9791 11.2943 24.8596 12.6288 25.3774 12.6062C26.1013 12.5761 26.263 11.9415 26.2947 11.9114C26.3255 11.8804 25.9139 12.1856 25.4475 12.1313C24.7099 12.0443 24.3676 11.2349 23.5384 11.0693C23.0078 10.964 22.5585 11.1797 22.1136 10.7641ZM21.6104 25.6322C21.3639 25.9843 21.5522 26.4818 22.2043 26.6674C22.7922 26.8346 23.1815 27.0094 23.4691 27.2929C23.8918 27.7051 24.0895 27.757 24.1904 27.7544L6.13436 3.29371L5.89475 3.46345L20.9498 23.8612C21.1226 24.0953 21.8277 25.3195 21.6104 25.6322ZM21.5402 26.7468C20.8531 26.7636 20.0658 27.0027 19.2725 26.2853C18.2439 25.3571 17.1725 25.9508 17.1725 25.9508C17.1725 25.9508 17.8494 26.6097 17.472 26.8815C16.8593 27.3246 17.3103 27.8431 17.2564 28.0471C17.2008 28.2486 16.5838 28.2904 15.55 27.8297C15.0884 27.6199 14.5731 27.55 14.0705 27.629C13.8026 27.6725 13.8925 27.8623 13.9515 27.9167C13.9515 27.9167 14.3871 28.3055 14.5557 28.4134C14.6926 28.4978 15.0383 28.7788 15.1675 28.6876C15.2933 28.5998 15.0186 28.1023 15.0186 28.1023C15.0186 28.1023 17.0562 28.7671 17.769 28.7671C18.5965 28.7671 17.8212 27.4208 18.4724 27.3573C18.801 27.3238 19.2118 27.8255 19.8869 27.92C20.3593 27.9869 20.8128 27.7912 21.2767 27.6775C21.7696 27.5579 21.9561 28.155 22.0246 28.6809C22.0366 28.7671 22.0545 28.9845 22.1495 29.1442C22.3121 28.3858 22.5286 26.7243 21.5394 26.7468H21.5402ZM26.696 28.3038C26.4273 27.5972 25.9148 27.9024 25.6854 27.8238C25.4552 27.7461 25.1583 27.4668 25.0624 26.7159C24.9666 25.965 24.3137 26.3706 24.3137 26.3706C24.3137 26.3706 25.0693 27.8514 25.3731 28.64C25.6786 29.4276 25.9353 28.8172 26.3067 29.2495C26.6806 29.6818 26.6379 31.9027 26.4256 32.6177C26.1824 33.4341 25.6839 34.1557 25 34.6813C25.5254 34.622 26.5061 33.6144 26.7808 32.9538C27.0974 32.1954 26.916 31.4955 26.916 31.4955L27.3575 31.457L27.088 30.7689L27.515 30.7053C27.5176 30.7053 26.963 29.0079 26.696 28.3038ZM9.13971 29.7086C8.58544 29.5661 8.00761 29.5334 7.44021 29.6124C6.84462 29.6994 6.36455 29.8633 5.86565 29.8382C5.37018 29.8273 4.90552 29.6375 4.60258 29.2863C4.46567 29.1325 4.36811 28.9519 4.29623 28.7595C4.53584 28.2762 5.00136 27.7854 5.83143 27.3347C8.73238 25.7585 7.77224 23.9816 7.59168 21.9213C7.50012 20.876 7.71747 19.9228 8.26771 19.4395C9.04387 18.7555 10.3489 18.8399 10.3489 18.8399C10.2008 18.6535 8.45255 18.0422 7.1176 18.4202C5.68852 18.8266 5.42324 19.8375 5.17678 20.5566C4.96456 21.1804 4.68645 21.9137 3.42252 22.4322C1.29772 23.3035 1.44063 24.9374 1.44063 24.9374C1.44063 24.9374 0.670465 23.3235 2.73536 21.9597C5.3582 20.2288 4.34843 18.8976 5.22556 18.1041C5.91015 17.4853 6.72995 17.584 7.98104 17.9176C7.75684 17.6584 4.43229 16.2955 4.04721 19.1886C3.72032 21.6487 1.3174 21.3058 0.898947 23.6204C0.606285 25.2618 2.19539 26.6373 2.19539 26.6373C2.19539 26.6373 0.92462 24.1513 3.42338 23.1463C5.15197 22.4522 6.13607 21.6512 6.39279 20.8601C6.37824 21.1135 6.38081 21.3819 6.38766 21.6763C6.41504 22.7892 6.95672 23.658 6.78985 25.2233C6.69829 26.0846 5.08779 26.9442 4.18926 27.8289C4.22007 27.4325 4.3296 27.047 4.53241 26.7293C4.75918 26.3906 5.13143 26.0269 5.29402 25.6255C5.42824 25.333 5.4888 25.0134 5.47064 24.6933C5.45247 24.3733 5.35611 24.0621 5.18962 23.7859C5.14855 23.8027 5.11089 23.8177 5.07324 23.8294C5.25551 24.2467 5.35649 24.8797 5.00478 25.4934C4.83107 25.8463 4.52129 26.0955 4.19183 26.5077C3.87131 26.9419 3.68562 27.4572 3.65699 27.9919C3.64844 28.1692 3.66641 28.3515 3.69721 28.5354C3.32925 29.4753 3.74856 30.6894 4.08401 31.2513C4.48535 31.9203 4.86273 32.4095 4.66591 33.1854C4.46909 33.9631 5.15967 33.6938 5.6483 33.7013L6.10954 33.7039C6.4313 33.703 6.56308 33.4747 6.36626 33.1662C6.02397 32.6335 5.48143 31.845 5.04842 31.5072C4.66249 31.2054 4.03095 30.4118 4.09 29.492C4.65992 30.1543 5.30172 30.3625 5.83143 30.4101C6.45355 30.4637 7.04144 30.2345 7.5198 30.161C8.01273 30.0813 8.51687 30.097 9.00365 30.207C9.45077 30.3112 9.86647 30.5169 10.2171 30.8073C10.5483 31.0833 10.7305 31.4512 10.8264 31.8066C11.0061 32.5056 10.514 33.1612 10.117 33.5048C10.1409 33.5316 10.1726 33.5567 10.1991 33.5801C10.894 33.1712 11.2688 32.4579 11.1327 31.6067C11.0061 30.7689 10.2308 29.967 9.13971 29.7086ZM8.57407 16.6165C9.42638 17.4962 10.3429 17.1425 10.7519 17.1902C11.161 17.2361 11.6333 18.2621 11.3843 19.2564C11.1361 20.2514 11.0369 20.0792 10.8666 20.7029C10.6527 21.489 11.6496 22.0517 11.4185 22.7767C11.3544 22.9774 11.2115 23.2667 11.3843 23.4916C11.653 23.8453 12.0894 23.3796 12.6397 23.459C12.9851 23.5043 13.3361 23.437 13.6383 23.2675C13.5733 22.9606 12.3316 23.1488 12.0535 22.6529C11.9311 22.4347 11.6059 20.1745 12.3265 19.1644C12.988 18.2379 12.3735 17.9486 11.9209 17.2002C12.6093 16.8432 13.3028 16.4956 14.0012 16.1575C14.4804 16.6951 14.8175 17.1592 15.1085 17.8081C15.2625 18.13 15.3678 18.477 15.3558 18.8249C15.3644 19.1786 15.23 19.5273 15.0015 19.8417C15.3045 19.7957 15.5809 19.2672 15.6647 18.8592C15.7443 18.4503 15.6835 18.0297 15.5706 17.6409C15.1487 16.3799 14.1672 15.4785 14.1672 15.4785C14.1672 15.4785 12.8408 15.9225 11.6102 16.5756C11.2217 15.8631 10.8315 15.9902 10.3463 16.0304C9.86538 16.0722 9.57528 15.5755 9.57528 15.5755C9.94838 15.6926 10.467 15.7118 11.1627 15.4442C12.7218 14.8422 12.1297 13.5829 12.1297 13.5829C12.1297 13.5829 12.1622 14.4968 11.2303 14.6264C10.6509 14.7059 9.12944 14.338 9.12944 14.338C9.12944 14.338 10.348 14.1991 10.597 13.5135C10.9342 12.5745 11.902 12.944 11.902 12.944C11.902 12.944 11.386 12.3504 10.5902 12.8144C10.105 13.1004 9.29973 13.1916 8.31136 12.7024C7.32555 12.2149 6.96785 13.0243 6.7676 13.0444C6.56907 13.0661 6.41333 12.7475 6.52457 12.4147C6.63582 12.0811 7.76967 11.7675 9.47687 11.704C10.603 11.6622 11.1558 11.8779 11.4006 12.0309C11.4031 11.9406 11.0994 11.5326 10.1709 11.3102C9.2424 11.0861 9.30316 10.7148 9.3468 10.076C9.38959 9.43628 8.43886 9.69131 8.20781 9.61104C7.97676 9.53076 8.1907 9.02822 8.1907 9.02822C7.85953 9.12187 7.60537 9.38443 7.61735 9.77576C7.6242 10.0375 7.88092 10.2256 8.13593 10.3485C8.3918 10.4723 8.43373 10.6964 7.97334 10.9581C7.6028 11.1688 7.06968 11.4431 6.35599 11.7425C4.7686 12.4072 6.75134 13.5528 6.05392 13.904C5.35392 14.2552 5.18363 14.7134 5.14427 14.9643C5.05869 15.5329 5.4472 15.956 5.4472 15.956C6.8121 15.2318 7.7209 15.7386 8.57407 16.6165ZM16.6522 14.5846C16.6522 14.0144 16.8029 13.7401 16.9637 13.7334C17.4549 13.7142 17.5602 14.394 17.567 14.5788C17.5876 15.1206 17.1785 15.3807 17.1785 15.3807C17.5294 15.4099 17.8066 14.935 17.852 14.6331C17.9187 14.1858 17.8374 14.0311 17.6757 13.7351C17.6757 13.7351 18.7034 14.7067 18.5939 15.7854C18.4698 17.0079 17.0596 17.6492 17.0596 17.6492C17.4772 17.7956 18.6855 17.6768 19.4591 16.7135C19.8861 16.1826 20.0726 15.374 19.5549 14.0988C19.086 12.9415 18.1917 11.9615 19.1424 9.74315C20.0701 7.5808 22.5226 7.29817 23.9979 8.32583C24.0819 8.38239 24.1459 8.46302 24.181 8.55662C24.2769 8.81249 23.588 9.14696 23.8901 9.30082C24.0972 9.40868 24.3693 9.43628 24.6038 9.6102C24.8194 9.76908 24.8622 9.90537 24.9717 10.004C25.0539 10.0793 25.0907 10.0943 25.1703 10.0943C24.5028 9.33092 24.3915 8.46045 24.2837 7.54066C23.76 7.40938 22.9291 6.9938 22.1076 6.90015C21.5924 6.84078 20.3465 6.76134 19.0971 7.36172C17.6885 8.03651 16.1996 9.35182 16.1996 12.3989C16.1987 13.71 16.6531 14.659 16.6531 14.5846H16.6522ZM0.983666 21.6788C1.70848 21.4864 1.70848 20.9597 1.71789 20.8518C1.83427 21.0023 1.87449 21.167 1.87706 21.3811C2.19796 20.973 2.12094 20.2665 1.33537 19.8442C1.33537 19.8442 1.37987 20.7724 0.772298 21.1001C0.139051 21.4405 0.0397857 21.6579 0.00470046 21.994C-0.0142355 22.1577 0.0243925 22.3229 0.114235 22.4623C0.196386 22.5961 0.335871 22.6889 0.466799 22.7206C0.275114 22.469 0.237461 21.8761 0.98281 21.6788H0.983666ZM16.1593 8.70295C14.3811 8.80162 13.7598 8.1795 12.5447 7.60755C11.3261 7.0331 10.2787 7.45286 10.0956 7.72295C10.6612 7.75723 11.3047 7.97714 12.525 8.72552C14.987 10.2365 16.1593 8.70295 16.1593 8.70295ZM15.3626 5.01707C15.1042 5.08397 14.4787 5.18347 14.7705 6.59327C15.064 8.0039 15.8436 7.6619 16.0524 7.48129C16.0524 7.48129 14.993 7.37342 14.9622 6.15177C14.9322 4.92593 16.3784 5.1517 16.3784 5.1517C16.292 5.05637 15.7708 4.91004 15.3618 5.01707H15.3626ZM31.2058 22.9473C30.8558 21.7306 29.7399 19.2488 28.9766 18.1166C28.209 16.9845 27.8171 17.7964 27.5116 18.0523C27.2052 18.3081 26.3084 19.7832 25.9148 17.8825C25.5211 15.9794 23.511 14.3321 23.511 14.3321C23.926 15.7645 23.8148 16.813 23.7078 17.732C23.5991 18.6501 23.8379 18.9712 23.8379 19.5256C23.8379 20.0817 22.135 20.4454 22.0451 20.8727C21.9587 21.3008 24.5815 23.0551 27.0786 21.2966C27.8299 20.7673 28.2971 22.8193 28.5359 23.3745C28.7781 23.9314 28.2963 24.102 28.8645 24.7434C29.4336 25.3847 28.9954 25.9249 28.9954 26.3246C28.9954 26.6992 30.1224 27.6407 30.3295 27.435C30.6923 27.0813 29.87 24.9767 29.5422 24.25C29.2145 23.5225 28.6899 21.1712 28.3202 20.5299C28.1063 20.1636 27.0092 20.4237 27.0092 20.4237L26.9322 20.1394C26.9322 20.1394 27.0846 19.9487 27.2257 19.8032C28.3639 18.6485 28.2757 19.1192 29.4567 20.5307C30.6359 21.9397 29.2145 22.4974 30.2414 23.224C31.2691 23.9515 31.5549 24.1656 31.2058 22.9481V22.9473ZM12.4899 4.03289C12.4899 4.03289 12.7081 4.10564 13.1275 4.11484C13.5468 4.1232 13.7539 3.74357 13.7539 3.74357C12.7338 3.64407 12.436 3.29204 12.436 3.29204C12.436 3.29204 13.4081 3.24354 13.9002 3.17999C14.3922 3.1156 15.2891 2.88064 15.2891 2.88064C15.2891 2.88064 15.2548 3.66664 15.2488 4.1232C15.2446 4.57891 15.8444 4.47857 16.0447 4.4167C16.2971 4.33893 16.3356 3.43 16.3784 2.65152C16.4092 2.06285 15.9634 2.05784 15.7084 2.16236C15.3318 2.31538 14.619 2.6741 13.8471 2.90405C13.0761 3.134 11.8678 2.96676 11.8678 2.96676L11.8019 3.21176L12.8177 3.82217L12.4899 4.03289ZM14.1612 7.76559L14.4367 7.6502C14.4367 7.6502 14.2262 7.04815 14.2108 6.51467C14.1988 5.97951 14.423 4.79716 14.423 4.79716H14.162C14.162 4.79716 14.044 5.66595 13.8899 6.42687C13.7376 7.18779 13.3294 7.03895 13.13 7.0239C12.9298 7.00969 11.3432 6.78643 11.3432 6.78643V7.0147L12.246 7.1418C13.0487 7.25469 14.162 7.76476 14.162 7.76476L14.1612 7.76559ZM15.1504 11.1145C14.4958 11.5242 13.421 11.3219 13.421 11.3219C13.5647 11.5192 14.3452 11.7542 14.738 11.7483C15.0785 11.7408 15.3798 11.6095 15.6476 11.3219C16.2312 10.6981 15.9933 9.6587 15.8513 9.52826C15.853 9.52826 15.7879 10.7156 15.1496 11.1145H15.1504ZM13.6366 29.6175C12.1331 28.1508 12.6816 28.2988 13.6366 26.9902C14.3435 26.021 17.7929 25.1656 19.5309 24.7894L19.4967 24.6338C18.6153 24.6723 17.2958 24.7174 15.9702 24.7158C13.6991 24.7141 12.7826 23.8696 12.1938 23.9758C9.93555 24.3888 11.5409 26.9191 8.8924 26.5604C6.24304 26.2033 6.33118 28.8866 6.33118 28.8866C7.08252 27.3941 7.85953 27.6039 8.45769 27.5788C9.15084 27.5496 9.82687 28.0496 10.799 27.2502C11.0129 27.0763 11.9799 25.5453 11.8413 26.3104C11.76 26.7569 11.3638 27.2678 11.048 27.6181C10.8221 27.869 10.6912 28.0605 11.1507 28.313L11.807 28.6826C12.8801 29.2847 12.7022 29.9695 12.0039 29.9352C11.5058 29.9084 10.9179 29.6701 10.425 29.62C10.2248 29.6007 9.99802 29.681 10.3138 29.829C10.4807 29.9059 10.6681 30.018 10.8332 30.1777C11.6196 30.947 10.6792 30.6434 12.9315 30.5247C13.4107 30.4979 13.7513 30.4545 13.9935 30.406C14.8894 30.2145 13.8343 29.8089 13.6366 29.6175ZM25.2208 30.8968C25.0393 30.6209 24.893 30.2346 24.7244 29.8892C24.365 29.1542 24.7176 29.2955 24.4959 28.8724C24.2478 28.4042 24.1228 28.8632 23.4973 27.9275C23.3749 27.7411 23.1259 27.823 23.096 28.2704C23.0643 28.7177 23.8319 29.14 24.181 30.2237C24.5336 31.3107 24.8228 31.4361 24.537 32.1017C24.2546 32.769 22.8615 32.7289 22.8615 32.7289C23.9483 33.8343 26.1612 32.3258 25.2208 30.8968ZM36.935 36L36.4814 35.8395L49.8138 0L50.2648 0.160546L36.935 36Z" fill="#fff"/></svg>