<svg width="135" height="25" viewBox="0 0 135 25" fill="none" xmlns="http://www.w3.org/2000/svg"><g clip-path="url(#clip0_112_43)" fill="#fff"><path d="M0 22.6591V20.8622L4.8369 20.8083L9.65575 20.7544L11.0635 20.0895C15.4672 17.9871 17.3082 12.8659 15.2326 8.49943C14.5107 7.00799 12.8322 5.33687 11.2981 4.58217C9.52941 3.71965 8.6631 3.59387 4.04278 3.59387H0V1.77899V-0.0358887L4.74666 0.0539568C10.0889 0.143802 10.6664 0.251616 13.0668 1.49148C18.8242 4.47435 21.2607 11.5901 18.4993 17.3762C16.893 20.7903 13.9873 23.1622 10.3235 24.0966C9.16845 24.3841 8.32019 24.438 4.47594 24.438H0V22.6591Z"/><path d="M53.9639 19.2269V17.43H57.3569C60.5334 17.43 60.7861 17.412 61.147 17.0706C61.6524 16.6034 61.6524 15.8307 61.1831 15.2198C60.9846 14.9682 59.9197 14.3034 58.8008 13.7463C55.5341 12.0752 54.4331 10.7455 54.4331 8.44546C54.4151 6.43292 55.4438 4.88758 57.393 3.97115C58.3135 3.5399 58.5842 3.50396 61.5982 3.45005L64.7927 3.37817V5.17508V6.98996L62.0133 7.04387C58.873 7.09777 58.4759 7.2595 58.4759 8.35561C58.4759 9.25407 59.0715 9.81111 61.0568 10.7635C64.2152 12.2729 65.1718 13.2252 65.5508 15.2018C65.8395 16.819 65.4064 18.1308 64.1972 19.3348C62.6811 20.8262 61.9231 21.0239 57.5735 21.0239H53.9639V19.2269Z"/><path d="M86.7393 20.7365C82.877 19.8021 80.4946 16.5856 80.4946 12.2731C80.4946 8.91285 82.1731 5.91201 84.8442 4.49245C86.252 3.73775 87.9305 3.41431 90.385 3.41431H92.4064V5.21122V7.00812H90.6377C87.6958 7.00812 85.9993 7.76283 85.1691 9.46989C84.5916 10.6379 84.4652 13.0278 84.9164 14.3934C85.3315 15.5973 86.4505 16.7294 87.6236 17.1247C88.8148 17.538 90.6738 17.52 91.6484 17.0708L92.4064 16.7294V13.477V10.2426H94.2112H96.016V14.4473V18.6521L95.4385 19.1552C93.5254 20.7545 89.6992 21.4553 86.7393 20.7365Z"/><path d="M35.0134 12.2191V3.54004L38.7674 3.64785C41.2039 3.71973 42.9005 3.86348 43.6585 4.04317C48.9466 5.33695 51.4733 10.8714 49.109 15.9387C48.1344 18.0052 46.474 19.4248 44.1097 20.2334C42.7741 20.7006 42.4493 20.7365 38.8577 20.8084L35.0134 20.8803V12.2191ZM43.0448 16.7293C44.9038 15.9028 45.6799 14.6988 45.8062 12.4886C45.8784 11.2667 45.8243 10.8894 45.4813 10.0988C44.7053 8.28388 43.1892 7.43933 40.3918 7.24167L38.8035 7.13386V12.2191V17.2864L40.482 17.2145C41.6912 17.1606 42.3951 17.0348 43.0448 16.7293Z"/><path d="M71.1096 12.309V3.77368H73.0047H74.8997V12.309V20.8443H73.0047H71.1096V12.309Z"/><path d="M101.611 12.309V3.77368H103.506H105.401V7.00812V10.2426H108.559H111.718V7.00812V3.77368H113.613H115.508V12.309V20.8443H113.613H111.718V17.3403V13.8364H108.559H105.401V17.3403V20.8443H103.506H101.611V12.309Z"/><path d="M125.795 14.1059V7.3675H123.269H120.742V5.57059V3.77368H127.781H134.819V5.57059V7.3675H132.293H129.766V14.1059V20.8443H127.781H125.795V14.1059Z"/><path d="M3.73596 17.8255L2.52673 16.6215L4.69251 14.4653L6.85828 12.309L4.69251 10.1527L2.52673 7.99638L3.7901 6.73855L5.05347 5.48071L8.48262 8.89484L11.9118 12.309L8.53676 15.6692C6.6778 17.538 5.10762 19.0474 5.05347 19.0474C4.99933 19.0474 4.40374 18.5083 3.73596 17.8255Z"/></g><defs><clipPath id="clip0_112_43"><path fill="#fff" d="M0 0H135V24.618H0z"/></clipPath></defs></svg>