<svg width="748" height="137" viewBox="0 0 748 137" fill="none" xmlns="http://www.w3.org/2000/svg"><g clip-path="url(#clip0_3269_5671)" fill="#00BAF2"><path d="M0 126.1V116.1L26.8 115.8L53.5 115.5L61.3 111.8C85.7 100.1 95.9 71.5998 84.4 47.2998C80.4 38.9998 71.1 29.6998 62.6 25.4998C52.8 20.6998 48 19.9998 22.4 19.9998H0V9.8998V-0.200195L26.3 0.299805C55.9 0.799805 59.1 1.3998 72.4 8.2998C104.3 24.8998 117.8 64.4998 102.5 96.6998C93.6 115.7 77.5 128.9 57.2 134.1C50.8 135.7 46.1 136 24.8 136H0V126.1Z"/><path d="M299 107V96.9998H317.8C335.4 96.9998 336.8 96.8998 338.8 94.9998C341.6 92.3998 341.6 88.0998 339 84.6998C337.9 83.2998 332 79.5998 325.8 76.4998C307.7 67.1998 301.6 59.7998 301.6 46.9998C301.5 35.7998 307.2 27.1998 318 22.0998C323.1 19.6998 324.6 19.4998 341.3 19.1998L359 18.7998V28.7998V38.8998L343.6 39.1998C326.2 39.4998 324 40.3998 324 46.4998C324 51.4998 327.3 54.5998 338.3 59.8998C355.8 68.2998 361.1 73.5998 363.2 84.5998C364.8 93.5998 362.4 100.9 355.7 107.6C347.3 115.9 343.1 117 319 117H299V107Z"/><path d="M480.6 115.4C459.2 110.2 446 92.3 446 68.3C446 49.6 455.3 32.9 470.1 25C477.9 20.8 487.2 19 500.8 19H512V29V39H502.2C485.9 39 476.5 43.2 471.9 52.7C468.7 59.2 468 72.5 470.5 80.1C472.8 86.8 479 93.1 485.5 95.3C492.1 97.6 502.4 97.5 507.8 95L512 93.1V75V57H522H532V80.4V103.8L528.8 106.6C518.2 115.5 497 119.4 480.6 115.4Z"/><path d="M194 67.9997V19.6997L214.8 20.2997C228.3 20.6997 237.7 21.4997 241.9 22.4997C271.2 29.6997 285.2 60.4997 272.1 88.6997C266.7 100.2 257.5 108.1 244.4 112.6C237 115.2 235.2 115.4 215.3 115.8L194 116.2V67.9997ZM238.5 93.0997C248.8 88.4997 253.1 81.7997 253.8 69.4997C254.2 62.6997 253.9 60.5997 252 56.1997C247.7 46.0997 239.3 41.3997 223.8 40.2997L215 39.6997V67.9997V96.1997L224.3 95.7997C231 95.4997 234.9 94.7997 238.5 93.0997Z"/><path d="M394 68.5V21H404.5H415V68.5V116H404.5H394V68.5Z"/><path d="M563 68.5V21H573.5H584V39V57H601.5H619V39V21H629.5H640V68.5V116H629.5H619V96.5V77H601.5H584V96.5V116H573.5H563V68.5Z"/><path d="M697 78.5V41H683H669V31V21H708H747V31V41H733H719V78.5V116H708H697V78.5Z"/><path d="M20.7 99.2L14 92.5L26 80.5L38 68.5L26 56.5L14 44.5L21 37.5L28 30.5L47 49.5L66 68.5L47.3 87.2C37 97.6 28.3 106 28 106C27.7 106 24.4 103 20.7 99.2Z"/></g><defs><clipPath id="clip0_3269_5671"><path fill="#fff" d="M0 0H748V137H0z"/></clipPath></defs></svg>