<svg width="15" height="17" viewBox="0 0 15 17" fill="none" xmlns="http://www.w3.org/2000/svg"><path d="M15 8.82838L14.9975 8.253H14.9933C14.9273 6.25477 14.1699 4.39057 12.8451 2.96409L12.8503 2.95891L12.4542 2.56682L12.4518 2.56912C11.0807 1.28759 9.32855 0.58374 7.5 0.58374C5.67145 0.58374 3.91952 1.28759 2.54819 2.56912L2.5444 2.56548L2.15873 2.95316L2.16181 2.95661C0.832771 4.38386 0.0730121 6.25113 0.00668678 8.253H0L0.0023494 8.82819H0.00650598C0.0728313 10.8295 0.832771 12.6969 2.16181 14.1244L2.15711 14.1294L2.5538 14.5224L2.55651 14.5195C3.92675 15.7965 5.67524 16.4974 7.5 16.4974C9.32476 16.4974 11.0733 15.7965 12.4435 14.5197L12.4473 14.5238L12.8487 14.1207L12.8449 14.1173C14.1698 12.6912 14.9272 10.827 14.9937 8.82838H15ZM12.1603 3.60102L12.2221 3.54829C12.2611 3.51493 12.3004 3.48157 12.3381 3.44744C12.3737 3.41561 12.409 3.38244 12.4439 3.34947C13.6786 4.67011 14.3864 6.39857 14.4526 8.25338L10.7228 8.253C10.7051 7.02131 10.573 5.81283 10.3383 4.73588C10.3444 4.73319 10.3505 4.73032 10.3569 4.72763L10.4411 4.69005C10.4825 4.67165 10.5239 4.65343 10.564 4.63407C10.6027 4.61566 10.641 4.5961 10.6791 4.57674L10.7492 4.54127C10.7924 4.5196 10.8358 4.49774 10.8788 4.47493C10.9146 4.45576 10.95 4.43543 10.9854 4.4153L11.0658 4.36967C11.1063 4.34666 11.1468 4.32384 11.1867 4.29988C11.2234 4.27783 11.2596 4.25482 11.2959 4.23181L11.3745 4.18196C11.4121 4.15819 11.4497 4.13441 11.4873 4.10949C11.5267 4.08322 11.5655 4.0558 11.604 4.02839L11.6583 3.99023C11.6989 3.96186 11.7392 3.93348 11.7793 3.90395C11.8153 3.87749 11.8507 3.84988 11.886 3.82247L11.9458 3.77607C11.9852 3.74558 12.0246 3.7151 12.0638 3.68327C12.0961 3.65624 12.1281 3.62863 12.1603 3.60102ZM12.0459 2.9545C12.026 2.97329 12.006 2.99169 11.9857 3.00991C11.9469 3.0448 11.9071 3.07855 11.8675 3.11249L11.8187 3.15409C11.7895 3.17921 11.7602 3.20452 11.7302 3.22887C11.6913 3.2605 11.6519 3.2908 11.6127 3.32128L11.5619 3.36078C11.5301 3.38551 11.4981 3.41024 11.4658 3.43421C11.423 3.46604 11.3794 3.49633 11.3257 3.53391L11.2921 3.55749C11.2596 3.58031 11.2274 3.60313 11.1945 3.62498C11.1544 3.65183 11.1139 3.67713 11.0733 3.70283L11.0091 3.74347C10.9782 3.76303 10.9477 3.7824 10.9155 3.80157C10.8813 3.82208 10.8464 3.84183 10.8117 3.86158L10.7277 3.90932C10.6955 3.92773 10.6637 3.94594 10.6307 3.96339C10.5913 3.98448 10.5515 4.00442 10.5116 4.02417L10.4404 4.05983C10.4066 4.07709 10.373 4.09434 10.339 4.11045C10.2996 4.12905 10.2598 4.14649 10.2201 4.16413L10.2027 4.1718C9.8691 2.90331 9.40337 1.91531 8.8556 1.30024C10.037 1.54662 11.1269 2.11088 12.0459 2.9545ZM4.81934 8.2528C4.83614 7.08842 4.95578 5.94915 5.16777 4.93336C5.18512 4.93911 5.20247 4.94486 5.21982 4.95042L5.31163 4.9811C5.34633 4.99299 5.3812 5.00487 5.41645 5.01542C5.46018 5.02884 5.5041 5.04092 5.54801 5.053L5.64235 5.07946C5.6794 5.09 5.71663 5.10055 5.75386 5.10994C5.80193 5.12202 5.85054 5.13295 5.89898 5.1435L5.98518 5.16305C6.02223 5.17168 6.0591 5.18031 6.09542 5.1874C6.14241 5.19699 6.18976 5.20504 6.23711 5.21309L6.34139 5.23131C6.375 5.23744 6.40861 5.24358 6.44205 5.24837C6.49753 5.25681 6.55319 5.26333 6.60904 5.26985L6.70084 5.28116C6.73102 5.28519 6.76139 5.28921 6.79193 5.29209C6.85934 5.2988 6.92711 5.30321 6.99488 5.30762L7.07277 5.31318C7.09663 5.3151 7.12048 5.3172 7.14452 5.31836C7.38072 5.33024 7.61982 5.32986 7.85476 5.31836C7.87843 5.3174 7.90193 5.31529 7.92542 5.31337L7.995 5.30838C8.06621 5.30378 8.13723 5.29918 8.20825 5.29209C8.23753 5.28921 8.26645 5.28538 8.29536 5.28154L8.39711 5.26908C8.45096 5.26275 8.50464 5.25643 8.55777 5.24856C8.58994 5.24377 8.62175 5.23802 8.65355 5.23227L8.75801 5.21405C8.80699 5.20581 8.85614 5.19756 8.90404 5.18759C8.93801 5.18088 8.97108 5.17302 9.00452 5.16535L9.09867 5.14407C9.14801 5.13314 9.19735 5.12241 9.24632 5.10994C9.28265 5.10074 9.31898 5.09039 9.3553 5.08003L9.44602 5.05472C9.49211 5.04226 9.53837 5.02942 9.58392 5.01542C9.62042 5.00411 9.65657 4.99203 9.69271 4.97976L9.78199 4.95004C9.7988 4.94448 9.81578 4.93892 9.83223 4.93355C10.0444 5.94953 10.164 7.0888 10.1808 8.253H4.81934V8.2528ZM10.1805 8.82819C10.1637 9.99296 10.044 11.1322 9.83205 12.1476C9.81886 12.1432 9.80566 12.1388 9.79247 12.1346L9.6853 12.0987C9.65133 12.087 9.61717 12.0757 9.58355 12.0656C9.53801 12.0514 9.49193 12.0387 9.44584 12.0263L9.3506 11.9996C9.31572 11.9896 9.28066 11.9797 9.24596 11.9711C9.20006 11.9592 9.15361 11.949 9.10717 11.9386L9.01807 11.9185C8.98012 11.9097 8.94217 11.9009 8.90295 11.8928C8.8594 11.884 8.81548 11.8765 8.7712 11.869L8.65861 11.8493C8.62464 11.843 8.59066 11.8368 8.55777 11.832C8.50681 11.8242 8.45548 11.8181 8.40398 11.8121L8.29337 11.7985C8.26518 11.7947 8.23681 11.7912 8.20735 11.7879C8.14084 11.7816 8.07416 11.777 8.00729 11.7726L7.92524 11.7667C7.90193 11.7647 7.87843 11.7626 7.85494 11.7617C7.73693 11.7559 7.61855 11.7529 7.49964 11.7529C7.3809 11.7529 7.26235 11.7559 7.14434 11.7617C7.12084 11.7628 7.09753 11.7649 7.07422 11.7667L7.0012 11.7718C6.93127 11.7764 6.86151 11.7812 6.79139 11.7881C6.76211 11.791 6.73319 11.7948 6.7041 11.7987L6.59729 11.8119C6.54524 11.8179 6.49319 11.824 6.44295 11.8319C6.40789 11.837 6.37301 11.8436 6.33831 11.8499L6.23855 11.8673C6.19084 11.8754 6.14313 11.8834 6.09542 11.8932C6.05729 11.9011 6.01934 11.9099 5.98157 11.9187L5.90693 11.9358C5.85578 11.9471 5.80464 11.9582 5.75548 11.9709C5.71681 11.9804 5.67867 11.9914 5.64036 12.0023L5.55361 12.0267C5.50771 12.0393 5.46181 12.052 5.41753 12.0656C5.3794 12.0771 5.34163 12.0899 5.30386 12.1028L5.21711 12.1315C5.20084 12.1369 5.1844 12.1423 5.16813 12.1476C4.95614 11.1317 4.83669 9.99277 4.8197 8.82819H10.1805ZM7.5 1.15893C8.35916 1.15893 9.19645 2.38582 9.70265 4.37369C9.67699 4.38251 9.65133 4.39095 9.62548 4.39939L9.52735 4.43198C9.49518 4.44291 9.46337 4.45365 9.4303 4.46381C9.38765 4.47685 9.34446 4.48854 9.30126 4.50043L9.21036 4.52574C9.17946 4.53456 9.14855 4.54318 9.11747 4.55105C9.07175 4.56274 9.02584 4.57271 8.97994 4.58287L8.90241 4.60051C8.86861 4.60837 8.835 4.61623 8.80066 4.62295C8.75783 4.63157 8.71464 4.63886 8.67163 4.64614L8.56988 4.66398C8.54006 4.66934 8.51042 4.6749 8.48006 4.67931C8.42819 4.68698 8.37578 4.69312 8.32319 4.69925L8.23157 4.71057C8.20627 4.71402 8.18114 4.71728 8.15566 4.71977C8.09313 4.7261 8.03024 4.73012 7.96735 4.73415L7.89127 4.73971C7.87048 4.74144 7.84988 4.74316 7.82873 4.74412C7.60988 4.75524 7.38922 4.75524 7.16982 4.74412C7.14922 4.74316 7.12843 4.74144 7.10801 4.73971L7.02795 4.73396C6.96633 4.72993 6.90416 4.72591 6.84325 4.71996C6.81633 4.71728 6.7894 4.71363 6.76247 4.71018L6.66036 4.69753C6.61319 4.69197 6.56621 4.6866 6.5194 4.67951C6.49012 4.6751 6.46121 4.66973 6.43229 4.66436L6.32368 4.64538C6.28211 4.63828 6.24036 4.63138 6.19879 4.62295C6.1659 4.61643 6.13337 4.60876 6.10084 4.60128L6.00072 4.57866C5.96114 4.56984 5.92139 4.56121 5.88199 4.55105C5.84711 4.54223 5.81241 4.53245 5.77789 4.52248L5.68265 4.49583C5.64488 4.48547 5.60711 4.47512 5.56952 4.46362C5.53355 4.45269 5.49795 4.44061 5.46235 4.42853L5.37 4.39766C5.3456 4.38961 5.3212 4.38175 5.29699 4.37331C5.80355 2.38563 6.64066 1.15893 7.5 1.15893ZM6.14404 1.30043C5.59627 1.91551 5.13054 2.90369 4.79675 4.17218L4.76711 4.15915C4.73187 4.14343 4.69645 4.1279 4.66175 4.11121C4.62705 4.09473 4.59253 4.07709 4.55801 4.05964L4.48283 4.02168C4.44506 4.00269 4.40729 3.98371 4.3697 3.96377C4.33645 3.94594 4.30355 3.92734 4.27066 3.90855L4.19783 3.86714C4.15988 3.84586 4.12193 3.82438 4.0847 3.80214C4.05145 3.7822 4.01873 3.7615 3.98584 3.7406L3.9197 3.6988C3.88157 3.67483 3.84343 3.65087 3.80639 3.62594C3.77386 3.60428 3.74187 3.58165 3.7097 3.55903L3.65458 3.52049C3.61428 3.49231 3.57398 3.46412 3.53458 3.43517C3.5044 3.41274 3.4744 3.38954 3.44458 3.36653L3.36669 3.30613C3.33452 3.28121 3.30217 3.25609 3.27072 3.23059C3.23928 3.20509 3.20837 3.17863 3.17747 3.15217L3.13482 3.11594C3.09452 3.08143 3.05422 3.0473 3.01446 3.01164C2.99386 2.99323 2.97343 2.97444 2.95319 2.95565C3.87271 2.11107 4.96265 1.54681 6.14404 1.30043ZM2.55614 3.34927L2.55759 3.35062C2.59193 3.38302 2.62627 3.41542 2.66133 3.44687C2.69982 3.48157 2.73922 3.51512 2.77843 3.54867L2.83608 3.59814C2.86934 3.62652 2.90241 3.65509 2.93639 3.68289C2.97578 3.7151 3.0159 3.74616 3.0562 3.77722L3.11801 3.82515C3.15199 3.85161 3.18596 3.87807 3.22048 3.90376C3.25898 3.93214 3.29819 3.95975 3.33723 3.98697L3.40265 4.03299C3.43952 4.05887 3.4762 4.08495 3.51307 4.10949C3.55319 4.13633 3.59404 4.16202 3.63488 4.18772L3.69361 4.22491C3.73337 4.25022 3.77295 4.27553 3.81343 4.29988C3.85627 4.32557 3.89964 4.35011 3.94319 4.37465L4.00771 4.41127C4.04548 4.43294 4.08343 4.45461 4.12157 4.47493C4.16566 4.49851 4.21012 4.52094 4.25494 4.54338L4.32199 4.57731C4.35994 4.59668 4.39789 4.61623 4.43584 4.63407C4.4794 4.65477 4.52331 4.67433 4.56759 4.69369L4.65325 4.73185C4.65633 4.73319 4.6594 4.73472 4.66247 4.73588C4.42771 5.81245 4.29578 7.02093 4.27789 8.25319H0.547229C0.613554 6.39857 1.32163 4.66992 2.55614 3.34927ZM2.83825 13.4815L2.775 13.5356C2.73687 13.5682 2.69873 13.6008 2.66078 13.6347C2.62554 13.6665 2.59066 13.6993 2.55596 13.7321C1.32163 12.4111 0.613554 10.6824 0.547229 8.82819H4.27735C4.29506 10.0599 4.42699 11.2685 4.66157 12.3453C4.65614 12.3478 4.65072 12.3501 4.6453 12.3526L4.55892 12.3911C4.51753 12.4095 4.47614 12.4278 4.43602 12.4471C4.39681 12.4657 4.35795 12.4855 4.31928 12.5054L4.26542 12.5328C4.21735 12.5568 4.1691 12.5808 4.12102 12.6064C4.07964 12.6287 4.03879 12.6523 3.99795 12.6757L3.95205 12.7019C3.9056 12.7282 3.8588 12.7543 3.81361 12.7815C3.77458 12.8047 3.73626 12.8292 3.69795 12.8538L3.6338 12.8944C3.59331 12.9201 3.55283 12.9456 3.51289 12.9721C3.47548 12.997 3.4388 13.0231 3.40211 13.0488L3.35892 13.0793C3.31265 13.1117 3.26657 13.1441 3.21958 13.1784C3.18271 13.206 3.14657 13.2342 3.11042 13.2624L3.0506 13.3088C3.01229 13.3383 2.97398 13.368 2.93639 13.3987C2.90331 13.4257 2.8706 13.4535 2.83825 13.4815ZM2.95392 14.1263C2.97416 14.1073 2.99458 14.0885 3.015 14.0701C3.0497 14.0391 3.08494 14.0092 3.12036 13.9789L3.1659 13.9397C3.2006 13.91 3.2353 13.8801 3.27108 13.8514C3.30958 13.8199 3.34898 13.7896 3.38819 13.7593L3.4341 13.7237C3.46753 13.6976 3.50114 13.6717 3.53476 13.6468C3.57434 13.6174 3.61446 13.5895 3.65494 13.5615L3.70952 13.5233C3.74169 13.5007 3.77386 13.4781 3.80639 13.4564C3.84669 13.4296 3.88753 13.4041 3.92819 13.3784L3.96994 13.3519C4.00825 13.3274 4.04657 13.303 4.08416 13.2804C4.13115 13.2524 4.17886 13.2257 4.22801 13.1979L4.2703 13.174C4.30355 13.1548 4.33681 13.1358 4.3706 13.1178C4.40964 13.0969 4.44922 13.077 4.48861 13.0574L4.55476 13.024C4.59 13.006 4.62542 12.988 4.66283 12.9704C4.69843 12.9533 4.73458 12.9374 4.77072 12.9215L4.79747 12.9096C5.13127 14.1779 5.59681 15.1659 6.14458 15.7811C4.96283 15.5344 3.87289 14.9701 2.95392 14.1263ZM7.5 15.9223C6.64048 15.9223 5.80337 14.6956 5.29753 12.7075C5.32247 12.6989 5.34759 12.6906 5.37289 12.6826L5.47066 12.65C5.50374 12.6387 5.53681 12.6275 5.57024 12.6172C5.61488 12.6036 5.65988 12.5915 5.70488 12.5794L5.77681 12.5593C5.81241 12.5491 5.84801 12.539 5.88289 12.5299C5.92139 12.5204 5.96024 12.5117 5.99928 12.5031L6.08693 12.4832C6.12452 12.4743 6.16211 12.4655 6.20006 12.4579C6.24072 12.4496 6.28175 12.4427 6.32277 12.4358L6.43193 12.4168C6.46139 12.4115 6.49066 12.4061 6.52012 12.4017C6.56873 12.3944 6.61771 12.3886 6.66687 12.3827L6.77042 12.37C6.795 12.3668 6.81958 12.3637 6.8438 12.3612C6.91428 12.3543 6.98512 12.3497 7.05741 12.3451L7.10331 12.3413C7.1259 12.3394 7.14849 12.3374 7.17054 12.3365C7.38958 12.3259 7.61151 12.3259 7.82892 12.3365C7.85187 12.3376 7.87464 12.3396 7.89723 12.3413L7.94584 12.3453C8.01614 12.3497 8.08663 12.3543 8.15675 12.3612C8.18187 12.3637 8.20663 12.3668 8.23175 12.3702L8.33422 12.3827C8.38301 12.3885 8.43163 12.3944 8.47988 12.4017C8.50988 12.4061 8.5397 12.4117 8.56952 12.417L8.67632 12.4356C8.71771 12.4425 8.7591 12.4494 8.80066 12.4579C8.83482 12.4648 8.8688 12.4726 8.90277 12.4805L8.98771 12.4998C9.03108 12.5094 9.07446 12.519 9.11765 12.5298C9.15416 12.539 9.1903 12.5495 9.22681 12.5599L9.31482 12.5844C9.35313 12.5949 9.39163 12.6053 9.43012 12.6172C9.46699 12.6285 9.50331 12.6408 9.53982 12.6532L9.63867 12.6864C9.66 12.6935 9.68151 12.7004 9.70265 12.7077C9.19645 14.6956 8.35934 15.9223 7.5 15.9223ZM8.85596 15.7808C9.40355 15.1657 9.86928 14.1779 10.2031 12.9092L10.2295 12.9211C10.2658 12.9372 10.3023 12.9531 10.339 12.9705C10.3737 12.9872 10.4082 13.0047 10.4427 13.0223L10.5249 13.0639C10.5598 13.0816 10.5952 13.0994 10.6301 13.1182C10.6672 13.1379 10.7039 13.1588 10.7404 13.1795L10.813 13.2208C10.847 13.2401 10.8811 13.2593 10.916 13.2804C10.95 13.3007 10.9838 13.3222 11.0174 13.3437L11.0814 13.3839C11.1192 13.4077 11.1569 13.4315 11.1947 13.4568C11.227 13.4781 11.2585 13.5005 11.2899 13.5225L11.3402 13.558C11.3823 13.5875 11.4244 13.6169 11.4663 13.6477C11.4976 13.6708 11.5285 13.6947 11.5594 13.7189L11.5919 13.744C11.6382 13.7797 11.6845 13.8155 11.7296 13.8519C11.758 13.8751 11.7862 13.8991 11.8142 13.9231L11.8748 13.9748C11.912 14.0065 11.9492 14.0383 11.9857 14.0711C12.006 14.0895 12.026 14.1079 12.0459 14.1265C11.1267 14.9701 10.037 15.5344 8.85596 15.7808ZM12.4439 13.7317C12.4093 13.6991 12.3743 13.6663 12.3389 13.6343C12.2977 13.5975 12.2559 13.5618 12.214 13.5262L12.1847 13.5011C12.1448 13.4667 12.1048 13.4324 12.0638 13.3987C12.0201 13.363 11.9758 13.3291 11.9317 13.295L11.8813 13.2557C11.8475 13.2294 11.8142 13.2035 11.7799 13.1782C11.7439 13.1517 11.7076 13.1262 11.6709 13.1005L11.5908 13.0442C11.5567 13.02 11.5225 12.9959 11.4873 12.9723C11.4445 12.9437 11.4007 12.9163 11.3573 12.8887L11.2892 12.8457C11.2554 12.8243 11.2218 12.8026 11.1875 12.7821C11.1477 12.7581 11.1076 12.7353 11.0673 12.7127L10.9979 12.6732C10.9583 12.6507 10.9187 12.6281 10.8793 12.6068C10.8407 12.5861 10.8016 12.5664 10.7626 12.5468L10.6719 12.501C10.6363 12.4828 10.6005 12.4648 10.5643 12.4475C10.5213 12.427 10.4778 12.4078 10.4344 12.3884L10.3455 12.3488C10.343 12.3476 10.3408 12.3465 10.3383 12.3455C10.5728 11.2697 10.7048 10.061 10.7227 8.828H14.4528C14.3864 10.6826 13.6786 12.4113 12.4439 13.7317Z" fill="#6D798F"/></svg>