<svg width="255" height="40" viewBox="0 0 255 40" fill="none" xmlns="http://www.w3.org/2000/svg"><path d="M58.147 28.2847C64.6172 21.8146 64.6172 11.3244 58.147 4.85419L34.7165 28.2847C41.1867 34.7549 51.6769 34.7549 58.147 28.2847Z" fill="#F20EB5"/><path d="M29.8631 16.5693C29.8631 25.7195 37.2503 33.1372 46.3629 33.1372L46.3629 0.00140381C37.2503 0.00140341 29.8631 7.4191 29.8631 16.5693Z" fill="#E9F0FF"/><path d="M46.4309 33.1388C55.5811 33.1388 62.9988 25.7516 62.9988 16.6391L29.863 16.6391C29.863 25.7516 37.2807 33.1388 46.4309 33.1388Z" fill="#E9F0FF"/><path d="M15.8179 33.1374L9.89473e-07 0.0016757L31.6358 0.00167847L15.8179 33.1374Z" fill="#E9F0FF"/><path d="M23.6947 16.636L15.7857 -2.23637e-05L31.6036 -2.09808e-05L23.6947 16.636Z" fill="#F20EB5"/><path d="M91.7659 24.8115L97.7506 6.48992H94.312L91.5034 15.4145L89.9022 21.5042H89.8235L88.1961 15.4145L85.3874 6.48992H81.8439L87.8286 24.8115H91.7659Z" fill="#fff"/><path d="M104.746 25.1265C107.292 25.1265 109.287 24.1553 110.416 22.6066L108.605 20.5855C107.765 21.6617 106.767 22.4491 105.114 22.4491C102.909 22.4491 101.78 21.1104 101.78 19.1418V18.8005H110.888V17.6981C110.888 13.9445 108.92 10.7947 104.641 10.7947C100.625 10.7947 98.2891 13.6033 98.2891 17.9343C98.2891 22.3179 100.704 25.1265 104.746 25.1265ZM104.694 13.3146C106.426 13.3146 107.397 14.6008 107.397 16.4907V16.7269H101.78V16.5169C101.78 14.627 102.935 13.3146 104.694 13.3146Z" fill="#fff"/><path d="M117.204 24.8115V15.7557C117.204 14.2858 118.543 13.5508 119.934 13.5508C121.535 13.5508 122.192 14.5483 122.192 16.4907V24.8115H125.551V16.1494C125.551 12.7371 123.976 10.7947 121.168 10.7947C119.042 10.7947 117.887 11.9234 117.336 13.3933H117.204V11.1097H113.844V24.8115H117.204Z" fill="#fff"/><path d="M133.554 24.8115H135.969V22.1341H133.371V13.787H136.179V11.1097H133.371V7.35612H130.352V9.69226C130.352 10.6372 130.037 11.1097 129.04 11.1097H127.99V13.787H130.011V21.3204C130.011 23.5516 131.244 24.8115 133.554 24.8115Z" fill="#fff"/><path d="M147.283 24.8115H150.643V11.1097H147.283V20.1655C147.283 21.6354 145.944 22.3441 144.606 22.3441C143.005 22.3441 142.296 21.3204 142.296 19.4305V11.1097H138.936V19.7717C138.936 23.1841 140.511 25.1265 143.319 25.1265C145.577 25.1265 146.679 23.8928 147.152 22.5279H147.283V24.8115Z" fill="#fff"/><path d="M157.885 24.8115V16.4119C157.885 14.9157 159.066 14.2858 161.323 14.2858H162.373V11.1097H161.638C159.46 11.1097 158.357 12.5009 158.016 13.9445H157.885V11.1097H154.525V24.8115H157.885Z" fill="#fff"/><path d="M170.24 25.1265C172.786 25.1265 174.781 24.1553 175.909 22.6066L174.098 20.5855C173.258 21.6617 172.261 22.4491 170.607 22.4491C168.402 22.4491 167.274 21.1104 167.274 19.1418V18.8005H176.382V17.6981C176.382 13.9445 174.413 10.7947 170.135 10.7947C166.119 10.7947 163.783 13.6033 163.783 17.9343C163.783 22.3179 166.197 25.1265 170.24 25.1265ZM170.187 13.3146C171.92 13.3146 172.891 14.6008 172.891 16.4907V16.7269H167.274V16.5169C167.274 14.627 168.429 13.3146 170.187 13.3146Z" fill="#fff"/><path d="M197.432 24.8115H200.424V14.837H193.495V17.7506H197.091V18.9318C197.091 21.0054 195.332 22.0554 193.18 22.0554C190.424 22.0554 188.639 20.323 188.639 17.1206V14.1808C188.639 10.9522 190.424 9.24603 193.127 9.24603C195.306 9.24603 196.592 10.4272 197.248 12.0021L200.057 10.3485C198.744 7.67111 196.382 6.17493 193.127 6.17493C188.245 6.17493 184.964 9.56101 184.964 15.7032C184.964 21.8454 188.219 25.1265 192.523 25.1265C195.28 25.1265 197.012 23.7615 197.327 21.9766H197.432V24.8115Z" fill="#fff"/><path d="M212.418 24.8115H215.778V11.1097H212.418V20.1655C212.418 21.6354 211.079 22.3441 209.74 22.3441C208.139 22.3441 207.43 21.3204 207.43 19.4305V11.1097H204.071V19.7717C204.071 23.1841 205.646 25.1265 208.454 25.1265C210.712 25.1265 211.814 23.8928 212.286 22.5279H212.418V24.8115Z" fill="#fff"/><path d="M221.339 9.11478C222.704 9.11478 223.308 8.40607 223.308 7.43487V6.9099C223.308 5.9387 222.704 5.22998 221.339 5.22998C219.948 5.22998 219.371 5.9387 219.371 6.9099V7.43487C219.371 8.40607 219.948 9.11478 221.339 9.11478ZM219.659 24.8115H223.019V11.1097H219.659V24.8115Z" fill="#fff"/><path d="M235.418 24.8115H238.778V5.38747H235.418V13.3671H235.287C234.815 11.7921 233.318 10.7947 231.507 10.7947C228.069 10.7947 226.153 13.3671 226.153 17.9343C226.153 22.5279 228.069 25.1265 231.507 25.1265C233.318 25.1265 234.788 24.0765 235.287 22.5279H235.418V24.8115ZM232.583 22.3441C230.851 22.3441 229.67 21.0842 229.67 19.1418V16.7794C229.67 14.837 230.851 13.5508 232.583 13.5508C234.185 13.5508 235.418 14.417 235.418 15.7557V20.113C235.418 21.5304 234.185 22.3441 232.583 22.3441Z" fill="#fff"/><path d="M248.191 25.1265C250.737 25.1265 252.732 24.1553 253.861 22.6066L252.05 20.5855C251.21 21.6617 250.212 22.4491 248.559 22.4491C246.354 22.4491 245.225 21.1104 245.225 19.1418V18.8005H254.333V17.6981C254.333 13.9445 252.365 10.7947 248.086 10.7947C244.07 10.7947 241.734 13.6033 241.734 17.9343C241.734 22.3179 244.149 25.1265 248.191 25.1265ZM248.139 13.3146C249.871 13.3146 250.842 14.6008 250.842 16.4907V16.7269H245.225V16.5169C245.225 14.627 246.38 13.3146 248.139 13.3146Z" fill="#fff"/></svg>