<svg width="15" height="27" viewBox="0 0 15 27" fill="none" xmlns="http://www.w3.org/2000/svg"><path d="M5.696 18.944V12.932C7.808 12.86 9.44 12.344 10.592 11.384C11.768 10.424 12.356 9.14 12.356 7.532V6.848C12.356 5.48 11.924 4.388 11.06 3.572C10.196 2.732 9.008 2.312 7.496 2.312C5.936 2.312 4.7 2.72 3.788 3.536C2.9 4.352 2.276 5.444 1.916 6.812L0.00800003 6.128C0.248 5.312 0.572 4.556 0.98 3.86C1.412 3.164 1.928 2.564 2.528 2.06C3.152 1.556 3.884 1.16 4.724 0.872C5.564 0.583999 6.512 0.439999 7.568 0.439999C9.752 0.439999 11.468 1.04 12.716 2.24C13.964 3.44 14.588 5.06 14.588 7.1C14.588 8.204 14.408 9.188 14.048 10.052C13.688 10.892 13.184 11.624 12.536 12.248C11.912 12.848 11.18 13.328 10.34 13.688C9.524 14.048 8.648 14.3 7.712 14.444V18.944H5.696ZM6.704 26.324C6.128 26.324 5.696 26.18 5.408 25.892C5.144 25.604 5.012 25.208 5.012 24.704V24.308C5.012 23.804 5.144 23.408 5.408 23.12C5.696 22.832 6.128 22.688 6.704 22.688C7.304 22.688 7.736 22.832 8 23.12C8.288 23.408 8.432 23.804 8.432 24.308V24.704C8.432 25.208 8.288 25.604 8 25.892C7.736 26.18 7.304 26.324 6.704 26.324Z" fill="#6D798F"/></svg>