<svg width="123" height="42" viewBox="0 0 123 42" fill="none" xmlns="http://www.w3.org/2000/svg"><path fill-rule="evenodd" clip-rule="evenodd" d="M68.7105 5.90138H70.2584L69.6599 3.99576H69.3091L68.7105 5.90138ZM70.577 6.90144H68.4081L67.9463 8.38477H66.7733L68.5834 2.89661H70.4257L72.2439 8.38477H71.0388L70.577 6.90144Z" fill="#3A414E"/><path fill-rule="evenodd" clip-rule="evenodd" d="M74.2581 3.91954V8.38477H73.0481V2.89661H77.2316V3.91954H74.2581Z" fill="#3A414E"/><path fill-rule="evenodd" clip-rule="evenodd" d="M82.5419 7.36184V8.38477H78.1974V2.89661H82.4534V3.91954H79.3978V5.07205H81.776V6.0706H79.3978V7.36184H82.5419Z" fill="#3A414E"/><path fill-rule="evenodd" clip-rule="evenodd" d="M88.6561 2.89661V8.38477H87.4461V6.08584H84.8781V8.38477H83.6681V2.89661H84.8781V5.03394H87.4461V2.89661H88.6561Z" fill="#3A414E"/><path fill-rule="evenodd" clip-rule="evenodd" d="M94.1262 3.90429H92.3193V8.38477H91.1061V3.90429H89.2992V2.89661H94.1262V3.90429Z" fill="#3A414E"/><path fill-rule="evenodd" clip-rule="evenodd" d="M99.7577 6.70021C99.5807 7.7826 98.7038 8.53722 97.3604 8.53722C95.6067 8.53722 94.6091 7.37861 94.6091 5.71691C94.6091 4.05522 95.6147 2.89661 97.3604 2.89661C98.6395 2.89661 99.5003 3.58263 99.7014 4.58117H98.4464C98.3097 4.14669 97.9316 3.91039 97.3604 3.91039C96.3307 3.91039 95.84 4.70313 95.84 5.71691C95.84 6.72308 96.3307 7.52343 97.3604 7.52343C97.9798 7.52343 98.3981 7.21854 98.5108 6.70021H99.7577Z" fill="#3A414E"/><path fill-rule="evenodd" clip-rule="evenodd" d="M105.068 3.90429H103.261V8.38477H102.048V3.90429H100.241V2.89661H105.068V3.90429Z" fill="#3A414E"/><path fill-rule="evenodd" clip-rule="evenodd" d="M109.447 6.73222C109.447 6.2703 109.145 6.03248 108.522 6.03248H107.09V7.4091H108.506C109.113 7.4091 109.447 7.19262 109.447 6.73222ZM109.283 4.45768C109.283 4.05065 109.005 3.85094 108.456 3.85094H107.09V5.07358H108.464C109.015 5.07205 109.283 4.87235 109.283 4.45768ZM110.699 6.79321C110.699 7.7079 110.068 8.38477 108.686 8.38477H105.872V2.89661H108.612C109.906 2.89661 110.535 3.56586 110.535 4.34945C110.535 4.84948 110.299 5.27939 109.922 5.45623V5.6102C110.339 5.7718 110.699 6.24744 110.699 6.79321Z" fill="#3A414E"/><path fill-rule="evenodd" clip-rule="evenodd" d="M115.898 5.71691C115.898 4.71075 115.404 3.91039 114.32 3.91039C113.243 3.91039 112.741 4.71075 112.741 5.71691C112.741 6.72308 113.243 7.52343 114.32 7.52343C115.404 7.52343 115.898 6.72308 115.898 5.71691ZM117.135 5.71691C117.135 7.31763 116.147 8.53722 114.32 8.53722C112.49 8.53722 111.504 7.31763 111.504 5.71691C111.504 4.1162 112.49 2.89661 114.32 2.89661C116.147 2.89661 117.135 4.1162 117.135 5.71691Z" fill="#3A414E"/><path fill-rule="evenodd" clip-rule="evenodd" d="M68.369 12.9581V16.7937H68.5283L70.6827 12.9581H72.2434V18.4463H71.122V14.5268H70.9627L68.76 18.4463H67.2556V12.9581H68.369Z" fill="#3A414E"/><path fill-rule="evenodd" clip-rule="evenodd" d="M78.6796 12.9581V18.4463H77.4696V16.1474H74.9017V18.4463H73.6918V12.9581H74.9017V15.0955H77.4696V12.9581H78.6796Z" fill="#3A414E"/><path fill-rule="evenodd" clip-rule="evenodd" d="M84.9551 12.9581V18.4463H83.745V16.1474H81.1769V18.4463H79.9669V12.9581H81.1769V15.0955H83.745V12.9581H84.9551Z" fill="#3A414E"/><path fill-rule="evenodd" clip-rule="evenodd" d="M90.3147 15.7784C90.3147 14.7723 89.8207 13.9719 88.7362 13.9719C87.6598 13.9719 87.1578 14.7723 87.1578 15.7784C87.1578 16.7846 87.6598 17.585 88.7362 17.585C89.8207 17.585 90.3147 16.7846 90.3147 15.7784ZM91.552 15.7784C91.552 17.3791 90.5641 18.5987 88.7362 18.5987C86.9067 18.5987 85.9204 17.3791 85.9204 15.7784C85.9204 14.1777 86.9067 12.9581 88.7362 12.9581C90.5641 12.9581 91.552 14.1777 91.552 15.7784Z" fill="#3A414E"/><path fill-rule="evenodd" clip-rule="evenodd" d="M96.2538 16.7937C96.2538 16.3318 95.9513 16.094 95.3286 16.094H93.8965V17.4706H95.3125C95.9191 17.4706 96.2538 17.2541 96.2538 16.7937ZM96.0897 14.5192C96.0897 14.1122 95.8113 13.9125 95.2626 13.9125H93.8965V15.1351H95.2706C95.8209 15.1336 96.0897 14.9339 96.0897 14.5192ZM97.5056 16.8547C97.5056 17.7694 96.8749 18.4463 95.4927 18.4463H92.6785V12.9581H95.4187C96.7124 12.9581 97.3415 13.6274 97.3415 14.411C97.3415 14.911 97.105 15.3409 96.7284 15.5177V15.6717C97.1452 15.8333 97.5056 16.309 97.5056 16.8547Z" fill="#3A414E"/><path fill-rule="evenodd" clip-rule="evenodd" d="M99.9251 15.9629H101.473L100.874 14.0573H100.524L99.9251 15.9629ZM101.792 16.963H99.6226L99.1608 18.4463H97.9878L99.798 12.9581H101.64L103.458 18.4463H102.253L101.792 16.963Z" fill="#3A414E"/><path fill-rule="evenodd" clip-rule="evenodd" d="M108.734 18.4676H104.263V12.9581H105.455V17.4417H107.887V12.9581H109.079V17.4417H109.895V19.8183H108.734V18.4676Z" fill="#3A414E"/><path fill-rule="evenodd" clip-rule="evenodd" d="M111.974 12.9581V16.7937H112.133L114.286 12.9581H115.848V18.4463H114.727V14.5268H114.567L112.365 18.4463H110.86V12.9581H111.974Z" fill="#3A414E"/><path fill-rule="evenodd" clip-rule="evenodd" d="M121.299 11.5861C121.235 12.3071 120.691 12.7553 119.785 12.7553C118.881 12.7553 118.335 12.3071 118.273 11.5861H119.153C119.185 11.8437 119.392 12.0571 119.785 12.0571C120.17 12.0571 120.377 11.8528 120.417 11.5861H121.299ZM118.409 13.0282V16.8151H118.569L120.723 13.0282H122.284V18.4463H121.162V14.5756H121.001L118.8 18.4463H117.296V13.0282H118.409Z" fill="#3A414E"/><path fill-rule="evenodd" clip-rule="evenodd" d="M68.4656 24.1952V28.6604H67.2556V23.1722H71.4391V24.1952H68.4656Z" fill="#3A414E"/><path fill-rule="evenodd" clip-rule="evenodd" d="M76.3164 25.8401C76.3164 24.8339 75.8224 24.0336 74.738 24.0336C73.6616 24.0336 73.1596 24.8339 73.1596 25.8401C73.1596 26.8462 73.6616 27.6466 74.738 27.6466C75.8224 27.6466 76.3164 26.8462 76.3164 25.8401ZM77.5537 25.8401C77.5537 27.4408 76.5658 28.6604 74.738 28.6604C72.9086 28.6604 71.9222 27.4408 71.9222 25.8401C71.9222 24.2394 72.9086 23.0198 74.738 23.0198C76.5658 23.0198 77.5537 24.2394 77.5537 25.8401Z" fill="#3A414E"/><path fill-rule="evenodd" clip-rule="evenodd" d="M82.123 24.933C82.123 24.4482 81.8511 24.1799 81.1173 24.1799H79.8704V25.6861H81.1173C81.8527 25.6861 82.123 25.4087 82.123 24.933ZM83.3458 24.9178C83.3458 26.0246 82.5864 26.6938 81.2847 26.6938H79.8704V28.6604H78.6797V23.1722H81.2847C82.5864 23.1722 83.3458 23.8262 83.3458 24.9178Z" fill="#3A414E"/><path fill-rule="evenodd" clip-rule="evenodd" d="M88.5445 25.8401C88.5445 24.8339 88.0506 24.0336 86.9661 24.0336C85.8897 24.0336 85.3877 24.8339 85.3877 25.8401C85.3877 26.8462 85.8897 27.6466 86.9661 27.6466C88.0506 27.6466 88.5445 26.8462 88.5445 25.8401ZM89.7819 25.8401C89.7819 27.4408 88.7939 28.6604 86.9661 28.6604C85.1367 28.6604 84.1504 27.4408 84.1504 25.8401C84.1504 24.2394 85.1367 23.0198 86.9661 23.0198C88.7939 23.0198 89.7819 24.2394 89.7819 25.8401Z" fill="#3A414E"/><path fill-rule="evenodd" clip-rule="evenodd" d="M94.3886 24.0458H92.6573V24.5321C92.6573 25.9209 92.4079 26.9087 92.0765 27.5033H94.3886V24.0458ZM96.3789 27.5033V29.88H95.2108V28.5293H91.4329V29.88H90.2648V27.5033H90.8601C91.2463 26.8401 91.5455 25.837 91.5455 24.2317V23.0198H95.5567V27.5033H96.3789Z" fill="#3A414E"/><path fill-rule="evenodd" clip-rule="evenodd" d="M98.6381 26.177H100.186L99.5874 24.2714H99.2366L98.6381 26.177ZM100.505 27.1771H98.3356L97.8738 28.6604H96.7008L98.511 23.1722H100.353L102.172 28.6604H100.966L100.505 27.1771Z" fill="#3A414E"/><path fill-rule="evenodd" clip-rule="evenodd" d="M67.2556 33.2339H69.1462L70.0874 35.4246H70.2483L71.1896 33.2339H73.048V38.7221H71.9201V34.4413H71.7576L70.7037 36.885H69.5999L68.546 34.4413H68.3835V38.7221H67.2556V33.2339Z" fill="#3A414E"/><path fill-rule="evenodd" clip-rule="evenodd" d="M78.4078 35.9017C78.4078 34.8956 77.9138 34.0952 76.8293 34.0952C75.7529 34.0952 75.2509 34.8956 75.2509 35.9017C75.2509 36.9079 75.7529 37.7082 76.8293 37.7082C77.9138 37.7082 78.4078 36.9079 78.4078 35.9017ZM79.6451 35.9017C79.6451 37.5024 78.6572 38.722 76.8293 38.722C74.9999 38.722 74.0135 37.5024 74.0135 35.9017C74.0135 34.301 74.9999 33.0814 76.8293 33.0814C78.6572 33.0814 79.6451 34.301 79.6451 35.9017Z" fill="#3A414E"/><path fill-rule="evenodd" clip-rule="evenodd" d="M85.5988 36.885C85.4218 37.9674 84.5448 38.722 83.2013 38.722C81.4474 38.722 80.4498 37.5634 80.4498 35.9017C80.4498 34.24 81.4555 33.0814 83.2013 33.0814C84.4805 33.0814 85.3413 33.7674 85.5424 34.766H84.2874C84.1506 34.3315 83.7725 34.0952 83.2013 34.0952C82.1715 34.0952 81.6807 34.8879 81.6807 35.9017C81.6807 36.9079 82.1715 37.7082 83.2013 37.7082C83.8208 37.7082 84.2391 37.4033 84.3517 36.885H85.5988Z" fill="#3A414E"/><path fill-rule="evenodd" clip-rule="evenodd" d="M86.7251 33.2339H87.9399V35.3788H89.2834L90.3856 33.2339H91.639L90.3035 35.9017L91.713 38.7221H90.458L89.2931 36.4155H87.9399V38.7221H86.7251V33.2339Z" fill="#3A414E"/><path fill-rule="evenodd" clip-rule="evenodd" d="M96.0928 37.0695C96.0928 36.6076 95.7903 36.3698 95.1676 36.3698H93.7356V37.7464H95.1515C95.7581 37.7464 96.0928 37.5299 96.0928 37.0695ZM95.9287 34.795C95.9287 34.3879 95.6503 34.1882 95.1016 34.1882H93.7356V35.4109H95.1097C95.66 35.4093 95.9287 35.2096 95.9287 34.795ZM97.3446 37.1305C97.3446 38.0452 96.7139 38.7221 95.3317 38.7221H92.5176V33.2339H95.2577C96.5514 33.2339 97.1805 33.9031 97.1805 34.6867C97.1805 35.1868 96.944 35.6167 96.5675 35.7935V35.9475C96.9842 36.1091 97.3446 36.5847 97.3446 37.1305Z" fill="#3A414E"/><path fill-rule="evenodd" clip-rule="evenodd" d="M103.534 38.7221H104.746V33.2339H103.534V38.7221ZM101.645 36.9079C101.645 36.3926 101.352 36.1015 100.546 36.1015H99.5213V37.7159H100.546C101.352 37.7159 101.645 37.4308 101.645 36.9079ZM98.3097 38.7221V33.2339H99.5213V35.0938H100.733C102.092 35.0938 102.889 35.7783 102.889 36.9003C102.889 38.0376 102.091 38.7221 100.733 38.7221H98.3097Z" fill="#3A414E"/><path fill-rule="evenodd" clip-rule="evenodd" d="M11.3541 36.9887C11.058 37.3363 10.6059 37.4537 10.3388 37.2509C10.1039 37.0726 10.0975 36.7021 10.3018 36.3789C10.1329 36.4201 9.98322 36.507 9.88346 36.6442C9.63085 36.9902 9.77727 37.5055 10.2149 37.7952C10.6526 38.0864 11.2141 38.0391 11.4667 37.6946C11.6437 37.4552 11.6228 37.132 11.4474 36.8607C11.4201 36.9034 11.3895 36.9476 11.3541 36.9887ZM26.3324 12.4444C25.8047 11.9657 25.9607 11.0206 25.9607 11.0206C25.7387 11.1974 25.4555 12.4322 25.9253 13.0573C26.4692 13.7829 26.9567 13.8835 27.3879 14.6732C27.441 14.5604 27.3734 14.2784 27.2608 14.0665C27.0919 13.7448 27.0259 13.478 27.4249 13.3683C28.5529 13.0573 29.6019 14.6001 30.2182 14.5741C31.0806 14.5391 31.2737 13.8058 31.3107 13.7707C31.3477 13.7357 30.857 14.0878 30.3019 14.0253C29.4233 13.9247 29.0163 12.9887 28.0283 12.7966C27.396 12.6762 26.8618 12.9246 26.3324 12.4444ZM25.7323 29.6331C25.4394 30.0401 25.6631 30.6148 26.4402 30.8298C27.1401 31.0234 27.6035 31.2246 27.9463 31.5524C28.4499 32.0296 28.6848 32.089 28.8055 32.086L7.30261 3.8082L7.01781 4.00485C7.01781 4.00485 19.4265 20.3245 24.9454 27.5857C25.1514 27.8555 25.9913 29.2718 25.7323 29.6331ZM25.6486 30.9213C24.8312 30.9411 23.8932 31.217 22.9487 30.3877C21.7242 29.3144 20.4482 30.0005 20.4482 30.0005C20.4482 30.0005 21.2544 30.7627 20.8055 31.0768C20.075 31.589 20.6124 32.1896 20.548 32.4244C20.482 32.6576 19.7467 32.7064 18.5158 32.1729C17.8159 31.8664 17.1755 31.8771 16.754 31.9411C16.4354 31.9914 16.5416 32.211 16.6124 32.2735C16.6124 32.2735 17.1305 32.7232 17.3316 32.8482C17.4941 32.9458 17.906 33.2705 18.0605 33.1653C18.2101 33.0632 17.8835 32.4884 17.8835 32.4884C17.8835 32.4884 20.3099 33.2568 21.1578 33.2568C22.1442 33.2568 21.2206 31.7003 21.9961 31.6271C22.3871 31.589 22.8763 32.1683 23.6808 32.278C24.2423 32.3558 24.7829 32.1286 25.3348 31.9975C25.9221 31.8588 26.1442 32.5494 26.2262 33.1577C26.2407 33.2568 26.2616 33.5083 26.3743 33.6928C26.5673 32.8162 26.8264 30.8953 25.6486 30.9213ZM31.7886 32.7217C31.4684 31.9045 30.8586 32.2567 30.585 32.1668C30.3115 32.0768 29.9575 31.7536 29.8433 30.8862C29.729 30.0172 28.9519 30.4868 28.9519 30.4868C28.9519 30.4868 29.8513 32.1988 30.2134 33.1104C30.577 34.0205 30.8827 33.3147 31.3252 33.8147C31.7709 34.3148 31.7194 36.882 31.4668 37.7083C31.1305 38.8029 30.4563 39.5743 29.7693 40.0941C30.3952 40.0255 31.5617 38.8608 31.8899 38.097C32.2665 37.2204 32.0508 36.4109 32.0508 36.4109L32.577 36.3667L32.2552 35.5709L32.7636 35.4978C32.7669 35.4978 32.1072 33.5358 31.7886 32.7217ZM10.8827 34.3453C10.2391 34.1776 9.54557 34.1471 8.85852 34.234C8.14895 34.3346 7.57775 34.5251 6.98402 34.4962C6.39351 34.4825 5.84001 34.2629 5.47959 33.8574C5.31708 33.6791 5.19962 33.4702 5.11435 33.2491C5.39914 32.6897 5.95425 32.1225 6.94219 31.6012C10.3967 29.7794 9.25434 27.7244 9.03873 25.3431C8.92932 24.1342 9.18837 23.032 9.84324 22.4741C10.7684 21.6828 12.3227 21.7804 12.3227 21.7804C12.1457 21.5655 10.0637 20.8581 8.47397 21.2956C6.77163 21.7652 6.45626 22.9344 6.16342 23.7653C5.91081 24.4864 5.57935 25.334 4.07492 25.9331C1.54394 26.9408 1.7145 28.8297 1.7145 28.8297C1.7145 28.8297 0.797361 26.9637 3.25593 25.3874C6.37903 23.3857 5.1771 21.8475 6.22135 20.9297C7.03712 20.2148 8.01218 20.3291 9.50213 20.7148C9.23503 20.4145 5.27686 18.8397 4.81829 22.1844C4.42891 25.0276 1.56647 24.6312 1.06928 27.3067C0.720129 29.2047 2.61233 30.7947 2.61233 30.7947C2.61233 30.7947 1.09986 27.9211 4.07492 26.7594C6.13285 25.9575 7.30582 25.0306 7.61154 24.1159C7.59384 24.4086 7.59706 24.7196 7.6051 25.0596C7.63728 26.3463 8.2825 27.3509 8.08459 29.1605C7.97517 30.156 6.05723 31.1499 4.98723 32.1729C5.02424 31.714 5.15457 31.2688 5.39592 30.9014C5.66624 30.5096 6.10872 30.0889 6.3018 29.6254C6.52223 29.1681 6.5528 28.6818 6.48201 28.2885C6.42408 27.9683 6.30502 27.7137 6.17791 27.4988C6.12963 27.5171 6.08458 27.5354 6.03953 27.5491C6.25675 28.0308 6.37742 28.7626 5.95908 29.473C5.75152 29.88 5.38305 30.1682 4.99045 30.6453C4.63325 31.1179 4.38546 31.7125 4.35328 32.3604C4.34363 32.5662 4.36455 32.7766 4.40155 32.9885C3.9639 34.0754 4.4627 35.4795 4.86173 36.1289C5.33961 36.9018 5.78852 37.4674 5.55522 38.3653C5.3203 39.2633 6.14251 38.9523 6.72497 38.9614C6.9084 38.9629 7.09987 38.9645 7.27364 38.9645C7.65659 38.9629 7.81427 38.6992 7.57936 38.3425C7.17228 37.7266 6.52545 36.8149 6.01057 36.4247C5.55039 36.0756 4.79898 35.1578 4.86817 34.0952C5.54717 34.8605 6.31145 35.1014 6.94219 35.1563C7.68394 35.2188 8.38386 34.9535 8.95345 34.8682C9.55201 34.7782 10.165 34.7935 10.7202 34.9215C11.2737 35.0526 11.7773 35.2935 12.165 35.6152C12.5593 35.9353 12.7765 36.3606 12.8907 36.7707C13.1047 37.5787 12.519 38.3364 12.046 38.7343C12.0749 38.7648 12.1119 38.7937 12.1441 38.8212C12.9712 38.3486 13.4169 37.5238 13.256 36.539C13.1047 35.5709 12.1811 34.6441 10.8827 34.3453ZM10.2085 19.2101C11.2238 20.227 12.3147 19.8184 12.8022 19.8733C13.2897 19.9266 13.8513 21.1127 13.5552 22.2621C13.2592 23.4116 13.1417 23.2134 12.939 23.9345C12.6848 24.8431 13.8706 25.4941 13.5955 26.331C13.5198 26.5643 13.3493 26.8981 13.5552 27.1588C13.8754 27.5674 14.3951 27.0292 15.05 27.1207C15.5633 27.1908 16.0154 27.0277 16.2391 26.8996C16.1618 26.5444 14.6832 26.7624 14.3517 26.1892C14.2069 25.9362 13.8191 23.3232 14.6767 22.1554C15.4651 21.0852 14.733 20.7499 14.194 19.8855C14.9326 19.4998 16.6719 18.6796 16.6719 18.6796C17.2415 19.3016 17.6437 19.8382 17.9897 20.5883C18.1731 20.9602 18.2986 21.3612 18.2841 21.7636C18.2954 22.1722 18.1345 22.5747 17.8626 22.939C18.223 22.8857 18.5528 22.2743 18.6526 21.8033C18.7475 21.3307 18.6751 20.8444 18.54 20.3946C18.0379 18.9372 16.8698 17.8945 16.8698 17.8945C16.8698 17.8945 15.2898 18.4082 13.8239 19.1629C13.3622 18.3396 12.8971 18.486 12.3195 18.5332C11.7467 18.5805 11.4008 18.0073 11.4008 18.0073C11.8449 18.1415 12.4627 18.1643 13.2914 17.8548C15.1482 17.1597 14.4434 15.7038 14.4434 15.7038C14.4434 15.7038 14.482 16.7603 13.3718 16.9097C12.6815 17.0011 10.8698 16.5758 10.8698 16.5758C10.8698 16.5758 12.3211 16.4157 12.6172 15.623C13.0194 14.5376 14.1715 14.9644 14.1715 14.9644C14.1715 14.9644 13.5568 14.2784 12.6091 14.815C12.0315 15.1458 11.0725 15.251 9.89634 14.6854C8.72176 14.1214 8.29537 15.0574 8.05723 15.0803C7.82071 15.1062 7.63567 14.7373 7.76761 14.3531C7.90116 13.9674 9.25112 13.6046 11.2833 13.5314C12.6252 13.4826 13.2833 13.7326 13.5745 13.9095C13.5778 13.8043 13.2157 13.3332 12.1103 13.0756C11.0049 12.8164 11.0774 12.388 11.1288 11.6486C11.1803 10.9093 10.0476 11.205 9.77244 11.112C9.4973 11.019 9.75313 10.4382 9.75313 10.4382C9.35732 10.5464 9.05482 10.8498 9.0693 11.3026C9.07735 11.6044 9.38306 11.8224 9.68716 11.9642C9.99127 12.1075 10.0411 12.3667 9.49408 12.6685C9.0516 12.9124 8.41765 13.2295 7.56809 13.5756C5.6775 14.3439 8.03792 15.6687 7.20767 16.0742C6.3742 16.4798 6.17147 17.0103 6.12481 17.2999C6.02183 17.957 6.48523 18.4463 6.48523 18.4463C8.11033 17.6094 9.1932 18.1948 10.2085 19.2101ZM19.8288 16.8609C19.8288 16.2023 20.0074 15.8852 20.1989 15.8776C20.7845 15.8547 20.91 16.6414 20.9181 16.8548C20.9422 17.4813 20.4547 17.7817 20.4547 17.7817C20.873 17.8152 21.2029 17.2664 21.2576 16.9173C21.3364 16.4005 21.2399 16.2221 21.0468 15.8791C21.0468 15.8791 22.2713 17.0027 22.1409 18.2497C21.9929 19.6629 20.3131 20.4038 20.3131 20.4038C20.8103 20.573 22.2503 20.4358 23.1707 19.3229C23.6791 18.7086 23.9012 17.774 23.2849 16.2999C22.7266 14.9614 21.6614 13.8287 22.7942 11.2645C23.898 8.76431 26.8183 8.43807 28.5754 9.62565C28.6896 9.70187 28.7556 9.79487 28.7942 9.89244C28.9084 10.1882 28.0879 10.5754 28.4467 10.7538C28.6944 10.8773 29.0179 10.9093 29.2978 11.1105C29.5537 11.295 29.6052 11.452 29.7355 11.5663C29.8336 11.6532 29.8771 11.67 29.972 11.67C29.1772 10.7873 29.0452 9.78115 28.9165 8.71858C28.2922 8.56613 27.3027 8.08591 26.3244 7.97768C25.7113 7.90907 24.2278 7.8176 22.7395 8.51125C21.0629 9.29179 19.2898 10.8117 19.2898 14.3348C19.2882 15.8501 19.8288 16.9478 19.8288 16.8609ZM1.16904 25.0626C2.03308 24.8401 2.03308 24.2318 2.04435 24.1068C2.18272 24.2806 2.23099 24.4711 2.23421 24.7181C2.61555 24.247 2.52383 23.4299 1.589 22.9421C1.589 22.9421 1.64209 24.0153 0.918037 24.3934C0.16341 24.7867 0.0459518 25.0382 0.00411739 25.427C-0.0135818 25.6175 0.0250346 25.8157 0.134448 25.9682C0.232597 26.1222 0.398326 26.2304 0.5544 26.267C0.32592 25.9758 0.280868 25.2913 1.16904 25.0626ZM19.2415 10.0617C17.124 10.176 16.3839 9.45643 14.9374 8.7948C13.486 8.13165 12.2391 8.61644 12.0202 8.92896C12.6944 8.96859 13.4603 9.22318 14.9132 10.0876C17.8449 11.8346 19.2415 10.0617 19.2415 10.0617ZM18.2922 5.8007C17.9848 5.87845 17.2399 5.99279 17.5874 7.62247C17.9366 9.25367 18.865 8.85883 19.1144 8.64998C19.1144 8.64998 17.8529 8.52497 17.8159 7.11177C17.7805 5.69551 19.5021 5.9562 19.5021 5.9562C19.3992 5.84644 18.7797 5.67722 18.2922 5.8007ZM37.1595 26.5292C36.7427 25.1221 35.4137 22.253 34.5046 20.945C33.5907 19.6355 33.1241 20.5745 32.7604 20.8703C32.3952 21.166 31.3268 22.8719 30.8586 20.6736C30.3887 18.4738 27.9961 16.5697 27.9961 16.5697C28.4901 18.2253 28.3582 19.4373 28.2294 20.4998C28.1007 21.5609 28.3855 21.9329 28.3855 22.5731C28.3855 23.2165 26.3582 23.6372 26.2504 24.1312C26.1474 24.6251 29.2705 26.6542 32.2439 24.6205C33.1385 24.0092 33.6953 26.3813 33.9801 27.0231C34.2681 27.6665 33.6937 27.8646 34.371 28.6056C35.0484 29.3465 34.5271 29.9715 34.5271 30.4334C34.5271 30.8664 35.869 31.9549 36.1152 31.717C36.548 31.3085 35.5682 28.8754 35.1788 28.0354C34.7878 27.1939 34.1635 24.4757 33.7226 23.7348C33.4684 23.311 32.1619 23.6113 32.1619 23.6113L32.0702 23.282C32.0702 23.282 32.252 23.0625 32.4193 22.8948C33.7757 21.5594 33.6695 22.1036 35.0758 23.7348C36.4805 25.3645 34.7878 26.0093 36.0106 26.8493C37.2351 27.6909 37.5746 27.9378 37.1595 26.5292ZM14.8714 4.66343C14.8714 4.66343 15.1321 4.74728 15.6309 4.75795C16.1297 4.7671 16.3774 4.32805 16.3774 4.32805C15.1626 4.21371 14.807 3.80667 14.807 3.80667C14.807 3.80667 15.9655 3.75026 16.5512 3.67709C17.1369 3.60239 18.2053 3.33103 18.2053 3.33103C18.2053 3.33103 18.1651 4.23963 18.157 4.7671C18.1522 5.29457 18.8666 5.17871 19.1047 5.10706C19.4056 5.01712 19.4523 3.96522 19.5021 3.06577C19.5392 2.38585 19.0082 2.37975 18.7041 2.50018C18.2568 2.67702 17.4072 3.09168 16.4885 3.35847C15.5697 3.62373 14.1313 3.43012 14.1313 3.43012L14.0524 3.71368L15.2624 4.41952L14.8714 4.66343ZM16.8618 8.97774L17.19 8.84511C17.19 8.84511 16.939 8.14842 16.9213 7.53252C16.9068 6.91358 17.1739 5.54611 17.1739 5.54611H16.8634C16.8634 5.54611 16.7218 6.55075 16.5383 7.43038C16.3565 8.31001 15.8706 8.13775 15.6325 8.12098C15.3943 8.10421 13.5054 7.84657 13.5054 7.84657V8.11031C13.5054 8.11031 13.6244 8.12555 14.5802 8.25666C15.5359 8.38776 16.8618 8.97774 16.8618 8.97774ZM18.0396 12.8499C17.2608 13.3241 15.98 13.0893 15.98 13.0893C16.1522 13.318 17.0806 13.5893 17.5488 13.5817C17.9543 13.5741 18.3131 13.4216 18.6317 13.0893C19.3268 12.3682 19.0436 11.1669 18.8746 11.016C18.8762 11.016 18.799 12.388 18.0396 12.8499ZM16.2375 34.2401C14.4466 32.5448 15.0999 32.7156 16.2375 31.2033C17.079 30.0828 21.1868 29.0934 23.256 28.6589L23.2158 28.479C22.1667 28.5232 20.5947 28.5751 19.0162 28.5735C16.3115 28.572 15.2206 27.5948 14.519 27.7183C11.8304 28.1955 13.7419 31.121 10.5882 30.7063C7.43294 30.2932 7.53752 33.3955 7.53752 33.3955C8.43213 31.6698 9.35732 31.9122 10.0701 31.8832C10.8955 31.8497 11.7 32.4274 12.8585 31.5036C13.1128 31.3024 14.2648 29.5324 14.0991 30.4166C14.0025 30.9334 13.5311 31.5234 13.1546 31.9289C12.8859 32.2186 12.7298 32.4396 13.2769 32.7323C13.4716 32.8375 13.7274 32.9778 14.0589 33.1592C15.3364 33.8559 15.124 34.6471 14.2922 34.6075C13.7 34.577 13.0001 34.301 12.4128 34.2431C12.1747 34.2202 11.9044 34.3132 12.2809 34.484C12.4788 34.5739 12.7025 34.7035 12.8988 34.888C13.8352 35.7768 12.7153 35.4261 15.3976 35.2889C15.9688 35.2584 16.3742 35.2081 16.6622 35.1517C17.729 34.9307 16.4724 34.4611 16.2375 34.2401ZM30.0315 35.7188C29.8159 35.4002 29.6422 34.9535 29.441 34.5541C29.013 33.705 29.433 33.8681 29.1691 33.3787C28.873 32.8375 28.725 33.3681 27.98 32.2857C27.8336 32.0707 27.5376 32.1652 27.5022 32.6836C27.4636 33.2004 28.3775 33.6882 28.7942 34.9413C29.2142 36.1975 29.5585 36.3423 29.2174 37.1122C28.8811 37.8836 27.2222 37.8363 27.2222 37.8363C28.5175 39.1154 31.1514 37.3714 30.0315 35.7188Z" fill="#3A414E"/><path fill-rule="evenodd" clip-rule="evenodd" d="M43.9813 41.6186L43.4423 41.4326L59.3168 0L59.8542 0.185988L43.9813 41.6186Z" fill="#3A414E"/></svg>