<svg width="31" height="18" viewBox="0 0 31 18" fill="none" xmlns="http://www.w3.org/2000/svg"><path d="M30.9377 8.06495L30.5003 6.88651C30.4717 6.81119 30.4233 6.74459 30.3601 6.69338L29.1381 5.69171C29.0577 5.62536 29.0023 5.53435 28.9811 5.43337C28.9599 5.33239 28.9741 5.22735 29.0213 5.13523L29.4553 4.28741C29.5017 4.1963 29.5158 4.09264 29.4954 3.9928L28.8109 0.663727C28.7929 0.57998 28.7512 0.50287 28.6907 0.441134L28.3969 0.143252C28.3189 0.0624133 28.2135 0.0121846 28.1005 0.00194439C27.9874 -0.00829586 27.8744 0.0221523 27.7826 0.0876037L26.4237 1.06963C26.3624 1.11405 26.3131 1.17248 26.2802 1.23985L25.0682 3.6851C25.0202 3.78259 24.9386 3.86028 24.8378 3.90442L22.257 5.02066C22.1736 5.05673 22.1028 5.11589 22.0533 5.19088L21.1084 6.62464C21.0675 6.68684 21.0118 6.73839 20.9461 6.77487C20.8804 6.81136 20.8066 6.83169 20.7312 6.83414L18.2838 6.89306C18.2074 6.89548 18.1315 6.87947 18.0629 6.84644C17.9942 6.81342 17.9349 6.76438 17.8901 6.70363C17.8452 6.64288 17.8163 6.57227 17.8058 6.49801C17.7953 6.42374 17.8035 6.34808 17.8298 6.27766L17.8932 6.10744C17.9154 6.04803 17.9248 5.98476 17.9208 5.92162C17.9168 5.85848 17.8995 5.79684 17.87 5.74057C17.8406 5.68429 17.7995 5.63462 17.7495 5.59466C17.6995 5.5547 17.6415 5.52533 17.5794 5.5084L16.9483 5.33164C16.8811 5.31328 16.8105 5.30992 16.7417 5.32182C16.673 5.33371 16.6078 5.36056 16.551 5.40038L14.2139 7.03709C14.1313 7.09493 14.0316 7.12481 13.9301 7.1222L12.7215 7.09601C12.6388 7.09467 12.5572 7.11486 12.485 7.15455C12.4129 7.19423 12.3528 7.25197 12.3108 7.32188L11.9202 7.97657C11.8771 8.04683 11.8157 8.10448 11.7422 8.14353C11.6687 8.18258 11.5859 8.20159 11.5023 8.19858C11.4188 8.19557 11.3376 8.17066 11.2672 8.12643C11.1968 8.0822 11.1399 8.02027 11.1022 7.94711L10.6348 7.01745C10.584 6.91742 10.5723 6.80266 10.6019 6.69476C10.6314 6.58686 10.7001 6.49324 10.795 6.43151L11.4628 5.99614C11.498 5.97376 11.5362 5.95615 11.5763 5.94377C11.6633 5.73643 11.7721 5.15371 11.2672 5.5084L10.1173 6.31694C10.0268 6.38084 9.96256 6.47436 9.93623 6.58062C9.9099 6.68687 9.92319 6.79885 9.9737 6.89634L10.2708 7.43318C10.3068 7.5065 10.3222 7.5879 10.3155 7.669C10.3088 7.75009 10.2801 7.82798 10.2325 7.89463C10.185 7.96129 10.1201 8.01433 10.0447 8.04828C9.96928 8.08224 9.886 8.09591 9.80342 8.08786L7.96043 7.88164C7.88784 7.87664 7.81744 7.85511 7.75484 7.81874C7.69224 7.78236 7.63917 7.73217 7.59984 7.67214L7.26597 7.05346C7.24073 7.01075 7.22269 6.96432 7.21255 6.91598L7.00221 5.93395C6.98453 5.85158 6.94406 5.77558 6.88524 5.71428C6.82642 5.65297 6.75151 5.60874 6.66873 5.58642C6.58596 5.5641 6.49851 5.56456 6.41599 5.58776C6.33347 5.61095 6.25905 5.65598 6.20091 5.7179L4.72852 7.26623C4.65327 7.34612 4.55149 7.39717 4.44138 7.41026L3.59334 7.50847C3.51979 7.51695 3.44935 7.54244 3.38781 7.58285C3.32628 7.62326 3.27543 7.67742 3.23943 7.74088C3.19854 7.81298 3.13856 7.87292 3.06582 7.91437L2.16102 8.43157C2.06116 8.4883 1.98623 8.57925 1.95067 8.6869L1.33968 10.556C1.31873 10.6332 1.31873 10.7145 1.33968 10.7917L1.71028 12.5823C1.73577 12.6937 1.71791 12.8104 1.6602 12.9096L1.28626 13.5643C1.24531 13.6339 1.18643 13.6916 1.11553 13.7319C1.04462 13.7721 0.964186 13.7933 0.882274 13.7934H0.46493C0.395252 13.7938 0.326539 13.8094 0.263818 13.8392C0.201097 13.869 0.145955 13.9121 0.102428 13.9654C0.0588996 14.0188 0.0280866 14.081 0.0122433 14.1475C-0.00359999 14.214 -0.00407287 14.2832 0.0108593 14.3499L0.131054 14.8737C0.141886 14.9234 0.161067 14.9709 0.187813 15.0144L1.15605 16.5595C1.20468 16.6362 1.27536 16.6972 1.3592 16.7346C1.44304 16.7721 1.53631 16.7845 1.62729 16.7701C1.71826 16.7558 1.80288 16.7154 1.87052 16.654C1.93816 16.5927 1.98579 16.5131 2.00743 16.4253L2.04082 16.2878C2.06183 16.2091 2.10383 16.1373 2.1625 16.0798C2.22118 16.0222 2.29442 15.9811 2.3747 15.9605L3.08251 15.7542C3.16279 15.7336 3.23603 15.6925 3.29471 15.6349C3.35338 15.5774 3.39538 15.5056 3.41639 15.4269L3.67347 14.4678C3.70237 14.3728 3.76192 14.2895 3.84319 14.2305C3.92446 14.1714 4.02306 14.1398 4.1242 14.1404H5.05905C5.16019 14.1404 5.2586 14.1726 5.33951 14.2321L6.83193 15.332C6.92687 15.4015 7.04518 15.433 7.16294 15.4203C7.2807 15.4075 7.38913 15.3514 7.46629 15.2632L7.93372 14.7264C7.97692 14.6709 8.03246 14.6259 8.09611 14.5947C8.15975 14.5635 8.22983 14.547 8.30098 14.5463L10.5313 14.7427C10.6258 14.7512 10.7155 14.7878 10.7884 14.8475L14.5411 17.8951C14.6081 17.9493 14.6892 17.9842 14.7753 17.9958C14.8614 18.0073 14.9491 17.9951 15.0286 17.9605L17.7931 16.7494C17.8799 16.711 17.9766 16.6996 18.0702 16.7166L20.5408 17.1651C20.6284 17.1809 20.7188 17.1718 20.8013 17.1389L23.0115 16.2649C23.1048 16.2259 23.1827 16.1581 23.2333 16.0719C23.2839 15.9857 23.3045 15.8857 23.292 15.787L23.1651 14.9195C23.1521 14.8288 23.167 14.7364 23.2081 14.6541C23.2492 14.5718 23.3144 14.5035 23.3955 14.458L24.2936 13.9669C24.3626 13.9297 24.4402 13.9102 24.519 13.9102C24.5978 13.9102 24.6753 13.9297 24.7443 13.9669L26.584 14.9261C26.6569 14.9644 26.7389 14.9831 26.8216 14.9803C26.9043 14.9774 26.9848 14.953 27.0548 14.9097L27.2217 14.8049C27.2759 14.7702 27.3369 14.7468 27.4009 14.7364C27.4648 14.726 27.5302 14.7287 27.593 14.7444C27.6558 14.7601 27.7146 14.7884 27.7656 14.8276C27.8166 14.8668 27.8588 14.9159 27.8894 14.9719L28.1065 15.3647C28.1445 15.4442 28.1584 15.5328 28.1466 15.6198C28.1347 15.7069 28.0976 15.7887 28.0397 15.8557L27.9328 15.9866C27.8584 16.0752 27.8206 16.1878 27.8268 16.3024C27.8329 16.4169 27.8827 16.525 27.9662 16.6053L27.9863 16.625C28.0693 16.7023 28.1785 16.747 28.293 16.7506C28.4074 16.7542 28.5193 16.7165 28.6073 16.6446L28.9912 16.3173C29.0504 16.2693 29.0965 16.2077 29.1257 16.1381C29.1548 16.0684 29.1659 15.9928 29.1582 15.9179L28.8644 13.1289C28.8524 13.0487 28.819 12.973 28.7675 12.9096L27.8193 11.8032C27.7769 11.7543 27.7245 11.7146 27.6654 11.6868C27.6064 11.659 27.542 11.6437 27.4766 11.6418C27.4111 11.64 27.3459 11.6516 27.2853 11.676C27.2248 11.7005 27.1701 11.7371 27.1249 11.7836L26.9646 11.9276C26.9133 11.9804 26.8499 12.0204 26.7796 12.0443C26.7093 12.0682 26.6343 12.0753 26.5606 12.0651H26.4471C26.3303 12.0488 26.2241 11.9898 26.1497 11.9C26.0754 11.8101 26.0385 11.696 26.0464 11.5806L26.19 9.56418C26.1987 9.446 26.2538 9.33572 26.3436 9.25648L27.846 7.94711C27.9114 7.88958 27.9589 7.81515 27.9831 7.73236C28.0074 7.64956 28.0073 7.56176 27.9829 7.47901L27.6791 6.46097C27.6515 6.34844 27.6683 6.22983 27.7262 6.12896C27.7841 6.0281 27.8788 5.95246 27.9913 5.91723C28.1037 5.882 28.2256 5.88979 28.3324 5.93904C28.4393 5.98829 28.5231 6.07535 28.5672 6.18273L29.2583 8.14678C29.2812 8.21152 29.3185 8.27041 29.3676 8.31913C29.4167 8.36785 29.4764 8.40515 29.5421 8.4283L30.3301 8.70654C30.42 8.74894 30.5215 8.76199 30.6196 8.74378C30.7176 8.72557 30.8072 8.67705 30.8751 8.60534C30.943 8.53362 30.9857 8.44248 30.997 8.34524C31.0083 8.248 30.9875 8.14978 30.9377 8.06495ZM28.427 4.84062C28.3648 4.95069 28.322 5.07019 28.3001 5.19415C28.2401 5.18947 28.1798 5.18947 28.1198 5.19415C27.9205 5.19307 27.7245 5.24405 27.552 5.34185C27.3795 5.43966 27.2367 5.58076 27.1382 5.75064C27.0616 5.88125 27.0126 6.0257 26.9942 6.17532C26.9759 6.32494 26.9885 6.47665 27.0314 6.62137L27.3018 7.52156L25.8962 8.76219C25.6765 8.95463 25.5423 9.22366 25.5223 9.5118L25.3787 11.5282C25.3597 11.8085 25.4492 12.0854 25.6293 12.3038C25.8094 12.5223 26.0668 12.6661 26.3503 12.7067H26.4605C26.6378 12.7314 26.8185 12.7146 26.988 12.6577C27.1574 12.6008 27.3107 12.5054 27.4354 12.3793L28.1966 13.2697L28.3268 14.4874C28.1519 14.2743 27.903 14.1317 27.6278 14.0871C27.3525 14.0424 27.07 14.0987 26.8344 14.2452L26.7676 14.2877L25.0315 13.381C24.8642 13.291 24.6764 13.2439 24.4856 13.2439C24.2948 13.2439 24.107 13.291 23.9397 13.381L23.0783 13.8917C22.8793 14.0007 22.7188 14.1665 22.618 14.367C22.5173 14.5675 22.481 14.7933 22.514 15.0144L22.6242 15.7248L20.621 16.5104L18.2037 16.0619C17.9782 16.0212 17.7453 16.0486 17.536 16.1405L14.8883 17.2993L11.2157 14.3303C11.0413 14.1916 10.8285 14.1072 10.6047 14.0881L8.36108 13.8917H8.26759C8.10325 13.8911 7.94077 13.9257 7.79144 13.993C7.64211 14.0603 7.50951 14.1586 7.40286 14.2812L7.06898 14.6773L5.73348 13.6952C5.54054 13.5536 5.30673 13.4757 5.06573 13.4727H4.13088C3.88021 13.4724 3.63652 13.5535 3.43782 13.7034C3.23911 13.8532 3.09657 14.0633 3.03243 14.3008L2.80539 15.1519L2.20776 15.3254C1.92307 15.4099 1.68339 15.6002 1.54001 15.8557L0.775434 14.6904L0.715336 14.4252H0.878935C1.07877 14.4249 1.27499 14.373 1.44788 14.2747C1.62078 14.1765 1.76424 14.0353 1.86387 13.8655L2.23781 13.2108C2.37571 12.975 2.42084 12.6979 2.36468 12.4317L1.99074 10.7066L2.565 8.9586L3.38634 8.49049C3.53652 8.40453 3.66447 8.2858 3.76028 8.14351L4.51817 8.05513C4.78701 8.02407 5.03567 7.89985 5.21931 7.70487L6.41459 6.43151L6.5448 7.04364C6.5703 7.15881 6.61425 7.26929 6.67501 7.37098L7.03893 7.99948C7.12825 8.1485 7.25164 8.27514 7.39938 8.36944C7.54712 8.46373 7.71518 8.5231 7.89031 8.54287L9.7333 8.7491H9.86352C10.1532 8.7499 10.432 8.64081 10.6414 8.44467C10.7555 8.58506 10.9024 8.69634 11.0698 8.76901C11.2372 8.84168 11.42 8.87359 11.6027 8.86202C11.7854 8.85044 11.9625 8.79573 12.1189 8.70254C12.2753 8.60934 12.4065 8.48044 12.5011 8.32682L12.835 7.77689L13.9268 7.7998C14.1734 7.7998 14.4135 7.72173 14.6112 7.57721L16.8649 5.9896L17.1988 6.07798C17.1407 6.24621 17.1245 6.42562 17.1516 6.60123C17.1787 6.77683 17.2482 6.94354 17.3544 7.08741C17.4607 7.23128 17.6004 7.34814 17.7621 7.42822C17.9238 7.5083 18.1027 7.54929 18.2838 7.54775L20.7679 7.46919C20.9508 7.46345 21.1297 7.41429 21.289 7.32592C21.4483 7.23755 21.5834 7.11261 21.6827 6.9618L22.5942 5.57714L25.1183 4.48382C25.3632 4.37747 25.5619 4.18964 25.6792 3.95352L26.8711 1.5541L28.0464 0.712829L28.1799 0.850313L28.8477 4.055L28.427 4.84062ZM29.8693 7.78671L29.5354 6.87015L29.8693 7.15494L30.1398 7.89146L29.8693 7.78671Z" fill="#fff"/></svg>