<svg width="255" height="41" viewBox="0 0 255 41" fill="none" xmlns="http://www.w3.org/2000/svg"><path d="M58.147 28.9273C64.6172 22.4571 64.6172 11.9669 58.147 5.49677L34.7165 28.9273C41.1867 35.3975 51.6769 35.3975 58.147 28.9273Z" fill="#F20EB5"/><path d="M29.8631 17.2119C29.8631 26.3621 37.2503 33.7798 46.3629 33.7798L46.3629 0.643982C37.2503 0.643982 29.8631 8.06168 29.8631 17.2119Z" fill="#0458FE"/><path d="M46.4309 33.7814C55.5811 33.7814 62.9988 26.3942 62.9988 17.2817L29.863 17.2817C29.863 26.3942 37.2807 33.7814 46.4309 33.7814Z" fill="#0458FE"/><path d="M15.8179 33.78L4.34824e-07 0.644252L31.6358 0.644255L15.8179 33.78Z" fill="#0458FE"/><path d="M23.6947 17.2786L15.7857 0.642556L31.6036 0.642557L23.6947 17.2786Z" fill="#F20EB5"/><path d="M91.7659 25.4541L97.7506 7.1325H94.312L91.5034 16.057L89.9022 22.1467H89.8235L88.196 16.057L85.3874 7.1325H81.8439L87.8286 25.4541H91.7659Z" fill="#6D798F"/><path d="M104.746 25.7691C107.292 25.7691 109.287 24.7979 110.416 23.2492L108.605 21.228C107.765 22.3042 106.767 23.0917 105.114 23.0917C102.909 23.0917 101.78 21.753 101.78 19.7844V19.4431H110.888V18.3407C110.888 14.5871 108.92 11.4373 104.641 11.4373C100.625 11.4373 98.2891 14.2459 98.2891 18.5769C98.2891 22.9604 100.704 25.7691 104.746 25.7691ZM104.694 13.9572C106.426 13.9572 107.397 15.2433 107.397 17.1332V17.3695H101.78V17.1595C101.78 15.2696 102.935 13.9572 104.694 13.9572Z" fill="#6D798F"/><path d="M117.204 25.4541V16.3983C117.204 14.9284 118.543 14.1934 119.934 14.1934C121.535 14.1934 122.192 15.1908 122.192 17.1332V25.4541H125.551V16.792C125.551 13.3797 123.976 11.4373 121.168 11.4373C119.042 11.4373 117.887 12.566 117.336 14.0359H117.204V11.7523H113.844V25.4541H117.204Z" fill="#6D798F"/><path d="M133.554 25.4541H135.969V22.7767H133.371V14.4296H136.179V11.7523H133.371V7.9987H130.352V10.3348C130.352 11.2798 130.037 11.7523 129.04 11.7523H127.99V14.4296H130.011V21.963C130.011 24.1941 131.244 25.4541 133.554 25.4541Z" fill="#6D798F"/><path d="M147.283 25.4541H150.643V11.7523H147.283V20.8081C147.283 22.278 145.944 22.9867 144.606 22.9867C143.004 22.9867 142.296 21.963 142.296 20.0731V11.7523H138.936V20.4143C138.936 23.8267 140.511 25.7691 143.319 25.7691C145.577 25.7691 146.679 24.5354 147.152 23.1704H147.283V25.4541Z" fill="#6D798F"/><path d="M157.885 25.4541V17.0545C157.885 15.5583 159.066 14.9284 161.323 14.9284H162.373V11.7523H161.638C159.46 11.7523 158.357 13.1434 158.016 14.5871H157.885V11.7523H154.525V25.4541H157.885Z" fill="#6D798F"/><path d="M170.24 25.7691C172.786 25.7691 174.781 24.7979 175.909 23.2492L174.098 21.228C173.258 22.3042 172.261 23.0917 170.607 23.0917C168.402 23.0917 167.274 21.753 167.274 19.7844V19.4431H176.382V18.3407C176.382 14.5871 174.413 11.4373 170.135 11.4373C166.119 11.4373 163.783 14.2459 163.783 18.5769C163.783 22.9604 166.197 25.7691 170.24 25.7691ZM170.187 13.9572C171.92 13.9572 172.891 15.2433 172.891 17.1332V17.3695H167.274V17.1595C167.274 15.2696 168.429 13.9572 170.187 13.9572Z" fill="#6D798F"/><path d="M197.432 25.4541H200.424V15.4796H193.495V18.3932H197.091V19.5744C197.091 21.648 195.332 22.698 193.18 22.698C190.424 22.698 188.639 20.9655 188.639 17.7632V14.8234C188.639 11.5948 190.424 9.88861 193.127 9.88861C195.306 9.88861 196.592 11.0698 197.248 12.6447L200.057 10.9911C198.744 8.31369 196.382 6.81751 193.127 6.81751C188.245 6.81751 184.964 10.2036 184.964 16.3458C184.964 22.488 188.219 25.7691 192.523 25.7691C195.28 25.7691 197.012 24.4041 197.327 22.6192H197.432V25.4541Z" fill="#6D798F"/><path d="M212.418 25.4541H215.778V11.7523H212.418V20.8081C212.418 22.278 211.079 22.9867 209.74 22.9867C208.139 22.9867 207.43 21.963 207.43 20.0731V11.7523H204.071V20.4143C204.071 23.8267 205.646 25.7691 208.454 25.7691C210.712 25.7691 211.814 24.5354 212.286 23.1704H212.418V25.4541Z" fill="#6D798F"/><path d="M221.339 9.75736C222.704 9.75736 223.308 9.04865 223.308 8.07745V7.55247C223.308 6.58127 222.704 5.87256 221.339 5.87256C219.948 5.87256 219.371 6.58127 219.371 7.55247V8.07745C219.371 9.04865 219.948 9.75736 221.339 9.75736ZM219.659 25.4541H223.019V11.7523H219.659V25.4541Z" fill="#6D798F"/><path d="M235.418 25.4541H238.778V6.03005H235.418V14.0096H235.287C234.815 12.4347 233.318 11.4373 231.507 11.4373C228.069 11.4373 226.153 14.0096 226.153 18.5769C226.153 23.1704 228.069 25.7691 231.507 25.7691C233.318 25.7691 234.788 24.7191 235.287 23.1704H235.418V25.4541ZM232.583 22.9867C230.851 22.9867 229.67 21.7268 229.67 19.7844V17.422C229.67 15.4796 230.851 14.1934 232.583 14.1934C234.185 14.1934 235.418 15.0596 235.418 16.3983V20.7556C235.418 22.173 234.185 22.9867 232.583 22.9867Z" fill="#6D798F"/><path d="M248.191 25.7691C250.737 25.7691 252.732 24.7979 253.861 23.2492L252.05 21.228C251.21 22.3042 250.212 23.0917 248.559 23.0917C246.354 23.0917 245.225 21.753 245.225 19.7844V19.4431H254.333V18.3407C254.333 14.5871 252.365 11.4373 248.086 11.4373C244.07 11.4373 241.734 14.2459 241.734 18.5769C241.734 22.9604 244.149 25.7691 248.191 25.7691ZM248.139 13.9572C249.871 13.9572 250.842 15.2433 250.842 17.1332V17.3695H245.225V17.1595C245.225 15.2696 246.38 13.9572 248.139 13.9572Z" fill="#6D798F"/></svg>