<svg xmlns="http://www.w3.org/2000/svg" viewBox="0 0 350 135" version="1.1" id="svg22" width="350" height="135"><g id="d5feac24-3cf4-4e3b-9095-a58e86045d06" data-name="SAFE ZONE" transform="translate(0 -173.76)"><path id="1376c15d-6647-4466-9358-c97b81d2808f" data-name="&lt;Составной контур&gt;" d="M 0,0 V 308.7592 H 537.25978 V 0 Z M 441.5,212.9995 H 95.75979 V 95.7597 H 441.5 Z" fill="none"/></g><g id="6c322349-0e2d-45c0-b018-1318df84bbc3" data-name="LOGO" transform="translate(-95.38 -94.5)"><g id="467390fb-e479-4223-bbac-f0546cb4ae27" data-name="&lt;Группа&gt;"><path id="e3e00503-4570-4d4f-9c94-13248eafc32d" data-name="&lt;Составной контур&gt;" d="m 130.35789,168.0717 -20.0044,44.9278 h -14.5937 l 21.9721,-48.044 c -10.3301,-5.247 -17.2168,-14.7573 -17.2168,-32.3022 0,-24.5957 15.5772,-36.8936 34.106,-36.8936 h 18.8564 V 212.9995 H 140.852 V 168.0717 Z M 140.852,106.4179 h -6.72311 c -10.166,0 -20.0044,6.7227 -20.0044,26.2354 0,18.8564 9.0186,24.9233 20.0044,24.9233 h 6.72311 z" fill="red"/><path id="426c2572-ff31-40d1-8641-2ae80a190106" data-name="&lt;Составной контур&gt;" d="m 214.311,130.3574 v 82.6421 h -12.62591 v -37.0576 h -19.0206 v 37.0576 H 169.875 v -82.6421 h 12.78949 v 35.0898 h 19.0206 v -35.0898 z m 65.75249,98.8755 h -11.4781 v -16.2334 h -35.4179 v 16.2334 h -11.4781 v -26.7276 h 5.0835 c 7.5425,-17.5449 8.3623,-43.125 8.3623,-65.0971 v -7.0508 h 38.3697 v 72.1479 h 6.5586 z m -19.1846,-88.5449 h -14.2656 v 1.4755 c 0,17.3809 -0.8199,42.7969 -7.7066,60.3418 h 21.9722 z m 54.4385,73.4589 c -17.0528,0 -27.5469,-13.6093 -27.5469,-39.0244 0,-26.5639 7.3789,-45.9126 24.9238,-45.9126 13.7735,0 22.792,10.3301 22.792,38.3697 v 7.0507 h -34.4345 c 0,18.6924 5.247,28.5313 15.413,28.5313 7.2149,0 12.9541,-3.2793 16.2334,-5.5752 l 2.9522,9.8379 a 32.54408,32.54408 0 0 1 -20.333,6.7226 z m -14.1016,-50.0112 h 21.1524 c 0,-14.1016 -2.2959,-24.4316 -9.6739,-24.4316 -7.8711,0 -10.6582,9.6743 -11.4785,24.4316 z m 60.1777,7.7075 v 41.1563 h -12.79 v -82.6421 h 12.79 v 38.2056 l 19.8399,-38.2056 h 12.9541 l -20.4961,38.8618 23.4473,43.7803 h -13.9375 z m 37.3848,-0.164 c 0,-25.9082 10.0029,-42.4693 29.3516,-42.4693 7.3779,0 11.6416,1.9678 15.249,4.2632 l -1.8037,12.1338 c -3.4434,-2.9517 -8.3623,-5.7388 -13.6094,-5.7388 -9.1826,0 -15.7412,10.3301 -15.7412,31.1548 0,20.6602 4.9189,32.4658 15.249,32.4658 a 20.88217,20.88217 0 0 0 13.9375,-5.083 l 2.9512,9.5108 a 25.01753,25.01753 0 0 1 -17.2168,6.2304 c -17.709,0 -28.3672,-14.2646 -28.3672,-42.4677 z"/></g></g></svg>