<svg version="1.1" id="Слой_1" xmlns="http://www.w3.org/2000/svg" x="0" y="0" viewBox="0 0 390.3 259" xml:space="preserve"><style>.st0{fill-rule:evenodd;clip-rule:evenodd;fill:#39b18b}.st1{fill:#433d5b}.st1,.st2,.st3,.st4,.st5,.st7,.st8,.st9{fill-rule:evenodd;clip-rule:evenodd}.st2{fill:#c5b5ae}.st3{fill:#328c6f}.st4{fill:#5473aa}.st5{fill:#4c5292}.st7{fill:#f8c52f}.st8{fill:#f2b69d}.st9{fill:#c7c6c1}.st10{fill:#bb8e7a}.st10,.st11,.st12,.st13,.st14,.st15{fill-rule:evenodd;clip-rule:evenodd}.st11{fill:#c29b33}.st12{fill:#df6452}.st13{fill:#296e58}.st14{fill:#b15144}.st15{fill:#322f44}.st16{fill:#425c87}.st16,.st17,.st18,.st20,.st21,.st23{fill-rule:evenodd;clip-rule:evenodd}.st17{fill:#fffffe}.st18{fill:#3c4072}.st20{fill:#a7afb6}.st21{fill:#303257}.st23{fill:#977b32}</style><path class="st0" d="M372.4,213.2c-4.1,4.6,6.1,13.8-6.4,18.8c-12.4,5.1-3,14.5-8.6,16.9c-3.4,1.5-1,5.7-0.3,9.8h-25	c-1-5.2-1.5-11.3,0.1-16.8c3.8-13,10.4-0.1,10.9-11.8c0.5-11.6,3.6-22.3,7.9-20.8c4.3,1.5,8.9-0.8,10.4-8.4	c1.5-7.6,6.1-13.5,9.4-8.4c3.3,5.1,10.4-6.9,17.8,0.3C396,200,376.5,208.6,372.4,213.2z"/><path class="st0" d="M255,258.7h-16.1c-5.3-7.4,3.3-7.1,0.5-11.6c-4.7-7.5-5.8-12-0.5-12.8c1.8-0.3,2.1-3.9-2.5-7.6	c-4.6-3.7-2.8-8-1.4-11.2c1.4-3.3-7.9-12.4-0.3-15c7.7-2.5,8.1,7.2,11.8,6.9c3.7-0.3,1.2,11.7,4.5,11c3.4-0.7,4.8,3.5,1.5,10.7	c-3.2,7.2,1.2,6.2,4.2,16.5C258.4,250.7,255.9,255.2,255,258.7z"/><path class="st1" d="M374.4,199.9c-19.5,17.9-28.1,46.7-31,58.8h-0.8c2.9-12.1,11.5-41.2,31.3-59.4L374.4,199.9z"/><path class="st1" d="M249.5,258.7h-0.7c-0.8-10.4-3.1-32-8.8-50.4l0.7-0.2C246.4,226.7,248.7,248.4,249.5,258.7z"/><path class="st0" d="M139,258.9H0v-58.7c0-2.1,1.7-3.9,3.9-3.9h131.5c2,0,3.7,1.6,3.7,3.7V258.9z"/><path class="st2" d="M88.4,259L88.4,259l12.1-0.1L88.4,259z"/><path class="st3" d="M100.5,258.9H88.4l8.4-62.5l6.5,58h0l-0.9,4.4h15.3L100.5,258.9z M115.2,257.2l-6.3-2.8L110,203l5.8,51.4h2h-2	L115.2,257.2z"/><path class="st3" d="M56.1,258.9h-5c0.3,0,0.4-0.5,0.1-0.6l-9-4l0,0l0.6-57.9h9.2c2.2,0,4,1.8,4,4V258.9z M35.5,258.9H22.1	c0.3,0,0.4-0.5,0.1-0.6l-9-4l0,0h0l0.1,0c0.4-1.3,10.5-36.3,14.8-57.9h1.5l6.9,57.8l0.1,0.1h0l-0.1,0.1L35.5,258.9	C35.4,258.9,35.4,258.9,35.5,258.9z M6.5,258.9H0v-58.6c0-2.2,1.8-4,4-4h7.8c-0.7,21.6-4.1,56.2-4.3,57.9l-0.1,0.1L6.5,258.9	C6.5,258.8,6.5,258.9,6.5,258.9L6.5,258.9z"/><path class="st4" d="M181.8,227.9h3v-4.2h-3V227.9z"/><path class="st4" d="M200.7,229.8H198v-7.1h2.7c0.2,0,0.4,0.2,0.4,0.4v6.3C201.1,229.6,200.9,229.8,200.7,229.8z"/><path class="st5" d="M195.6,228.4h-12.8c-0.3,0-0.6-0.3-0.6-0.6v-3.2c0-0.3,0.3-0.6,0.6-0.6h12.8c0.3,0,0.6,0.3,0.6,0.6v3.2	C196.1,228.1,195.9,228.4,195.6,228.4z M179.7,223.2v6c0,0.3,0.3,0.6,0.6,0.6H198c0.3,0,0.6-0.3,0.6-0.6v-6c0-0.3-0.3-0.6-0.6-0.6	h-17.7C180,222.6,179.7,222.9,179.7,223.2z"/><path class="st5" d="M208.8,259h-48.7l3.9-29.1c0.2-1.2,1.2-2.2,2.5-2.2h38.1L208.8,259z"/><path class="st4" d="M219.6,259h-27.7l3.9-29.1c0.2-1.3,1.2-2.2,2.5-2.2h14.9c1.3,0,2.3,0.9,2.5,2.2L219.6,259z"/><path d="M364,153H114.6c-1.8,0-3.2-1.4-3.2-3.2V3.2c0-1.8,1.4-3.2,3.2-3.2H364c1.8,0,3.2,1.4,3.2,3.2v146.6	C367.2,151.6,365.8,153,364,153z" fill-rule="evenodd" clip-rule="evenodd" fill="#0458fe"/><path class="st7" d="M88,122.9c0,0,3.2,3.9,4.9,8.1c1.7,4.3-3.7,4.7-3.7,4.7L88,122.9z"/><path class="st8" d="M96,164.1l12.4,5.5l-1,3.1H97.1L96,164.1z"/><path class="st4" d="M71,87.9c-0.3,1.1-1,2-1.9,2.6c-1.2,0.8-2.7,1.1-4.2,0.7c-0.3-0.1-0.6-0.2-0.9-0.4v0c-2-1.1-3.1-3.5-2.4-5.8	c0.8-2.6,3.5-4.1,6.1-3.3c0.7,0.2,1.2,0.5,1.7,0.9c0.7,0.6,1.2,1.3,1.5,2.1C71.3,85.7,71.3,86.8,71,87.9z"/><path class="st8" d="M90.2,89.9v12c0,0.9-0.2,1.8-0.5,2.7c-0.3,0.8-0.7,1.6-1.3,2.3c0,0-0.1,0.1-0.3,0.3c-1.1,1.2-2.6,2.1-4.3,2.4	l-0.1,0c-0.8,0.2-1.4,0.4-1.8,0.7h0c-0.5,0.4-0.7,0.9-0.7,1.4v9.4L72,121v-15.8c-0.1-0.1-0.1-0.3-0.2-0.4c0-0.1-0.1-0.1-0.1-0.2	h-0.9c-1,0-1.8-0.8-1.8-1.8v-3.5c0-1,0.8-1.9,1.9-1.9h0.3v-7.6c0-4.3,3.4-7.7,7.7-7.7h3.7C86.8,82.2,90.2,85.6,90.2,89.9z"/><path class="st4" d="M90.1,90.7c-2-1.4-2.7-3.5-2.7-3.5s-1.3,7.2-12.5,8c0,0-0.2,3.4-1.3,4.3c-0.2,0.2-0.4,0.2-0.6,0.2	c-1.6,0-0.6-2.6-1.6-2.4h-0.4c-1,0-1.8,0.8-1.8,1.9v3.5c0,1,0.8,1.9,1.8,1.9h0.9c0,0.1,0.1,0.1,0.1,0.2c0,0.1,0.1,0.3,0.2,0.4v1.6	c-7.7-5.9-7.7-16.4-4.6-22c3.6-6.3,12.9-7,16.9-5c3.7,1.8,3.8,3.2,3.8,3.2C93.6,83.5,90.1,90.7,90.1,90.7z"/><path class="st9" d="M83.1,109.6c0.1,0,0.2-0.1,0.3-0.1c0.1,0,0.2,0,0.3,0C83.4,109.6,83.2,109.6,83.1,109.6z"/><path class="st10" d="M74.5,112.3c-1,0-1.9-0.1-2.5-0.3v-7c1.8,1.9,4.6,3.5,7.3,4.3c0.8,0.2,1.6,0.3,2.4,0.3c0.6,0,1.2-0.1,1.7-0.1	c-0.1,0-0.2,0.1-0.3,0.1c-0.5,0.1-0.8,0.3-1.1,0.5h0c-0.2,0.2-0.4,0.4-0.5,0.7C78.5,112,76.2,112.3,74.5,112.3z"/><path class="st10" d="M107.3,172.7h-9c0,0,0,0,0,0c1.3,0,2.2,0,2.2,0h3.8c0,0-0.8-2.6-2.8-3.8c-0.7-0.5-2.3-0.8-3.9-1	c-0.1-1-0.3-2.1-0.5-3.3l11,4.8L107.3,172.7z"/><path class="st7" d="M83.4,120.5c0,0,4.3,0.5,6.2,4.5c3.2,6.7,9,49.7,9,49.7H57.3l4.5-50.8l11.9-3.3L83.4,120.5z"/><path class="st11" d="M88.4,174.7h-31l1.1-12.4c1.4,0.5,2.9,1.1,4.7,1.8c2.6,1,5.4,1.9,8.2,2.8c0.1,0.1,4.9,3.3,17,6.4V174.7z"/><path class="st11" d="M69.3,157.8L69.3,157.8c-3-1.5-5.4-3-6.5-4.2c-1.7-1.9-0.3-6.7,4.3-18c-0.5,0-0.9,0.1-1.4,0.1	c-0.5,0-1,0-1.5-0.1c0.8-2.4,1.3-4.2,1.3-4.2l4.7-3.3c0,0-4,13.9-4,20.6C66.3,155.5,69.3,157.8,69.3,157.8z"/><path class="st12" d="M121.3,254.4l9,4c0.2,0.1,0.2,0.4-0.1,0.4h-15.3l1-4.4H121.3z"/><path class="st1" d="M122.6,180.2v16.1h-0.1l-1.3,58.1l-5.5,0l-6.5-58H82.1c-8.5,0-15-7.8-13.4-16.2l1-5.5h47.3	c1.8,0,3.4,0.8,4.4,2.2h0C122.2,177.8,122.6,179,122.6,180.2z"/><path class="st3" d="M121.3,254.4h-3.5v0L121.3,254.4z"/><path class="st13" d="M115.2,257.2L115.2,257.2l0.6-2.8h2v0h-1.9L115.2,257.2z"/><path class="st14" d="M116.4,257.8l-1.2-0.5l0.6-2.8h5.5L116.4,257.8z"/><path class="st4" d="M128.8,174.7H94.1v-2h34.4c0.2,0,0.3,0.2,0.3,0.4V174.7z"/><path class="st15" d="M112.3,223.6L110,203l0.1-6.6h0.1v-16.1c0-1.2-0.4-2.4-1.1-3.3c-1-1.4-2.6-2.2-4.3-2.3h12.4	c1.7,0,3.3,0.9,4.3,2.2l-9,6.7L112.3,223.6z"/><path class="st4" d="M107.3,174.7H88.4v-1.6c0-0.2,0.2-0.4,0.4-0.4h18.2c0.2,0,0.4,0.2,0.4,0.4V174.7z"/><path class="st8" d="M90.1,171.3c0,0,2,1.4,4.4,1.4c2.4,0,6,0,6,0h3.8c0,0-0.8-2.6-2.8-3.8c-1.9-1.2-9.5-1.4-9.5-1.4L90.1,171.3z"/><path class="st4" d="M131.1,157.8h-19.3c-0.4,0-0.8,0.3-0.9,0.7l-3.8,14.2h21.1L132,159C132.1,158.4,131.7,157.8,131.1,157.8z"/><path class="st7" d="M73.7,120.6c0,0-2.1,4.4-5.4,12.2c-0.4,1-0.8,2-1.2,2.9c-6.1,0.5-9.7-2.6-9.7-2.6c1-2.9,2-5.4,2.8-7.1	C63.2,120,73.7,120.6,73.7,120.6z"/><path class="st8" d="M92.1,167.5l-2,4c0,0-15.9-3.2-26.9-7.4c-11-4.2-13.7-4.8-12-10.4c0.9-2.8,2.5-8.4,4.2-14c0.6-2.1,1.3-4.1,2-6	c0.1-0.2,0.1-0.4,0.2-0.6c0,0,3.6,3.1,9.7,2.6c-4.6,11.3-6,16.1-4.3,18C67,158.3,92.1,167.5,92.1,167.5z"/><path class="st8" d="M72,120.6c0,0,2.8,3.6,7.6,3.6c4.8-0.1,1.7-3.6,1.7-3.6H72z"/><path class="st16" d="M107.3,174.7h-2.5c0,0-0.1,0-0.1,0H88.4v-1.6c0-0.2,0.2-0.4,0.4-0.4h18.2c0.2,0,0.4,0.2,0.4,0.4V174.7z"/><path class="st12" d="M108.8,254.4l9,4c0.2,0.1,0.1,0.4-0.1,0.4h-15.3l1-4.4H108.8z"/><path class="st1" d="M110.2,180.2v16.1h-0.1l-1.3,58.1l-5.5,0l-6.5-58H69.7c-8.5,0-15-7.8-13.4-16.2l1-5.5h47.3	c1.8,0,3.5,0.9,4.5,2.3C109.8,177.9,110.2,179,110.2,180.2z"/><path class="st15" d="M88.3,189.2v-14.5h16.3c1.8,0,3.5,0.9,4.5,2.3L88.3,189.2z"/><path class="st13" d="M102.4,258.8l0.9-4.4l5.5,0h-5.5L102.4,258.8z"/><path class="st14" d="M102.4,258.8l1-4.4h5.5L102.4,258.8z"/><path class="st12" d="M57.3,133.6c-0.7,1.9-1.3,4-2,6l-12-10.6v-11.8L57.3,133.6z"/><path class="st8" d="M20.1,54.8v3.1c0,0-0.1,0.7,0.5,1.3c0.5,0.5,1.1,0.9,2.4,0.8c0.1,0,0,18.3,0,18.3s3.2,2.2,6.7,2.2	c2.9,0,3.5-2.2,3.5-2.2s0-6.2,0-8.2v0.1c0-1.8-0.2-3.1,2.6-4.2l0.1,0c0.1,0,0.1,0,0.2-0.1l0,0c1.2-0.4,2.2-1.1,3.1-1.9	c0.3-0.3,0.5-0.5,0.5-0.5l0,0C41.1,62,42,60,42,57.9V46c0-0.6-0.1-1.2-0.2-1.8c-0.5,1.4-2.1,0.4-3.4-0.6c-1-0.7-1.8-1.5-2-1.3l0,0.1	c-0.1,0.9-2.8,1.7-5.3,0.5c-2.5-1.2-3.8,0.1-3.7,0.8c0.1,0.7-2.2,2.9-1.2,4.8c1,1.9-1.9,1.2-0.5,3.7c1.5,2.4-0.8,6.7-0.8,3.6	c0-3-2.3-3.1-2.3-3.1C21.2,52.6,20.1,53.6,20.1,54.8z"/><path class="st9" d="M33.3,70.2C33.3,70.2,33.3,70.2,33.3,70.2C33.3,70.1,33.3,70.1,33.3,70.2L33.3,70.2z"/><path class="st10" d="M33.3,70.2L33.3,70.2C33.3,70.1,33.3,70.1,33.3,70.2C30.7,69.7,26.1,67.7,23,60c0,0,0,0,0,0	c0.3,0.4,4.7,6.2,10.5,6.2c0.8,0,1.7-0.1,2.5-0.4c-0.1,0-0.1,0-0.1,0.1l-0.1,0c-2.7,1.1-2.5,2.3-2.5,4.1V70.2z"/><path class="st17" d="M40.2,57.1l-9-0.1c0,0-0.7,5.6,5.5,5.3C40.5,62.1,40.2,57.1,40.2,57.1z"/><path class="st1" d="M16.1,46.8c-2.3-2.8,1.9-4.3,2.3-7.8c0.3-3.5,6.3-1,6.9-3.2c0.6-2.2,3.4-2.2,5.1-1.4c1.7,0.8,4.7,1.3,7.9,0.5	c3.3-0.8,4.8,1.9,4.7,3.6c-0.1,1.6,3.2,1.7,2.4,3.8c-0.8,2.1-3.7,2-3.7,2c-0.8,2.5-5.3-2.8-5.5-1.8c-0.1,0.9-2.8,1.7-5.3,0.5	c-2.5-1.2-3.8,0.1-3.7,0.8c0.1,0.7-2.2,2.9-1.2,4.8c1,1.9-1.9,1.2-0.5,3.7c1.5,2.4-0.8,6.6-0.8,3.6c0-3-2.3-3.1-2.3-3.1	c-1.4,0-2.5,1-2.4,2.2v3.1c0,1.2,1.1,2.2,2.4,2.2c0.1,0,0.2,0,0.5,0c0,0,0.7,1.3,0.3,2.1c-0.3,0.8,0.3,1.6-0.3,1.8c0,0-0.1,0-0.1,0	c-2.8,0.4-2.3-1.8-4.7-2.7c-2.5-0.9-0.9-3.9-2.7-6.9C13.7,51.4,18.5,49.6,16.1,46.8z"/><path class="st12" d="M43.7,113.4c0,4.5,0,9.1-0.1,13c0,6-0.1,10.3-0.1,10.3H5.3c0,0-0.4-16.4,0-23.1c0.2-3.8,0.5-12,1.3-18.8v0	c0.4-3.3,0.9-6.3,1.6-8.4c0.4-1,0.8-1.8,1.2-2.3c0.2-0.2,0.5-0.4,0.7-0.6c1.5-1.2,3.7-2.2,5.7-3.1c3.6-1.4,7.1-2.2,7.1-2.2l10.2-0.1	c11.6,2.7,9.9,5.7,10.3,13.7C43.7,95.4,43.8,104.4,43.7,113.4z"/><path class="st14" d="M43.6,126.4c-3.7-0.4-17.6-6.8-25.6-14c-6.1-5.5-10.1-11.9-11.3-17.5v0c0.4-3.3,0.9-6.3,1.6-8.4	c0.2,0.9,1.8,3.8,11.8,13.3c13.2,12.6,23.1,13.7,23.6,13.7c0,4.2,0,8.4-0.1,12l-0.1-0.1V126.4z"/><path class="st14" d="M29.5,91.5l-19-7.3l-0.3-0.8c1.5-1.2,3.7-2.2,5.7-3.1L29.5,91.5z"/><path class="st12" d="M16,83c0,0,13.5,9.2,22.9,13.6c9.5,4.4,10.5,2,15.3-1.2c4.8-3.2,19.2-14.7,19.2-14.7l1.6,4.3	c0,0-20.1,25.4-29.6,25c-13.1-0.5-34.8-16.6-34.8-16.6s-5-3.5-1.8-8.6C12.2,79.8,16,83,16,83z"/><path class="st8" d="M73.5,80.7c0,0,5.7-5.4,7.7-6.1c2-0.7,11.3-1.8,12-1.9c0.7-0.1-0.4,2.3-3.7,2.7c-3.3,0.4-5.8,1.2-5.8,1.2	s1.2,5.1-0.4,7.3c-1.6,2.3-8.3,1.1-8.3,1.1L73.5,80.7z"/><path class="st5" d="M43.6,136.7l-1.3,117.6l-0.1,0.1l-5.7-0.1l-0.1-0.1l-14-117.8L43.6,136.7z"/><path class="st12" d="M42.2,254.3l9,4c0.3,0.1,0.2,0.6-0.1,0.6H35.5c0,0-0.1,0-0.1-0.1l1-4.5l0.1-0.1L42.2,254.3L42.2,254.3z"/><path class="st2" d="M29.5,196.4l-0.6-4.9L29.5,196.4z"/><path class="st13" d="M30.1,201.6l-0.6-5.3L30.1,201.6z"/><path class="st18" d="M30.1,201.6l-1.2-10.2c0.4-2.1,0.6-3.9,0.8-5.5c1-9.6,1.7-27.8,2-39.3l0.3-1.7C32,144.9,34.2,188.6,30.1,201.6	z"/><path class="st12" d="M33.2,79.6H23.1v-6.1h10.8L33.2,79.6z"/><path class="st9" d="M23,78.3v-2.4l0,0C23,77.3,23,78.2,23,78.3z"/><path class="st10" d="M23,78.3c0-0.1,0-1,0-2.4l0,0L23,78.3L23,78.3C23,78.3,23,78.3,23,78.3z"/><path class="st14" d="M23,78.3C23,78.3,23,78.3,23,78.3L23,78.3L23,78.3L23,78.3z"/><path class="st14" d="M23.1,78.3v-2.4l2.9,2.3L23.1,78.3z"/><path class="st10" d="M55.3,139.7c0.6-1.9,1.2-3.7,1.8-5.5h0L55.3,139.7z"/><path class="st14" d="M55.3,139.7l-11.7-10.3c0-0.9,0-1.9,0-3c0-0.3,0-0.6,0-0.9l13.4,8.7C56.5,136,55.9,137.8,55.3,139.7z"/><path class="st14" d="M43.6,129.3L43.6,129.3l-0.1-3c0,0,0.1,0,0.1,0C43.6,127.4,43.6,128.4,43.6,129.3z"/><path d="M43.7,126.4C43.6,126.4,43.6,126.4,43.7,126.4l-0.1-1l0.1,0.1C43.7,125.8,43.7,126.1,43.7,126.4z" fill-rule="evenodd" clip-rule="evenodd" fill="#894037"/><path class="st5" d="M5.3,136.7c-0.3,18.7,6.1,34.2,6.6,48.7c0.6,17.6-4.2,66.9-4.4,68.9c0,0,0.1,0.1,0.2,0.1l5.5-0.1l0.1,0	c0.5-1.6,14.6-50.7,16.5-68.3c1.5-14.6,2.3-49.4,2.3-49.4S12.1,136.7,5.3,136.7z"/><path class="st12" d="M13.2,254.3l9,4c0.3,0.1,0.2,0.6-0.1,0.6H6.5c0,0-0.1,0-0.1-0.1l1-4.5l0.1-0.1L13.2,254.3L13.2,254.3z"/><path class="st14" d="M35.4,258.8l1.1-4.5l5.7,0L35.4,258.8z"/><path class="st2" d="M6.5,259L6.5,259L6.5,259L6.5,259z"/><path class="st13" d="M6.5,258.9L6.5,258.9L6.5,258.9C6.5,258.9,6.5,258.9,6.5,258.9z"/><path class="st14" d="M6.5,258.9C6.5,258.9,6.5,258.9,6.5,258.9l0.9-4.6l5.7-0.1L6.5,258.9z"/><path class="st8" d="M302.2,54.3c-1.4-0.1-2.6,0.8-2.8,2.1l-0.2,1.5l0-0.3l0,0.3l-0.2-7.3l-0.2-0.3c-0.7-0.6-2.4-2.2-2.9-3.1	l-0.1-0.1c0,0,0,0,0-0.1c-0.4-1.1,0.3-3.4,0.1-4.8c-0.1-0.4-0.2-0.7-0.4-0.9c-1.9-1.6-9.8-0.9-11.9-0.7c-0.3,0-0.5,0.1-0.5,0.1	l-0.3,1.8c-0.5,3.6-1.4,11.8-0.5,15.9c0.6,2.7,2,3.8,3.3,4.6c0,0,0.2,0.1,0.4,0.2c7.2,4.3,14.1-1.8,14.1-1.8	c0.3,0.2,0.8,0.4,1.2,0.4c1.4,0.1,2.7-0.8,2.8-2.1l0.5-3.1C304.5,55.5,303.6,54.5,302.2,54.3z"/><path class="st5" d="M289,78.7c0,0-11.3,1.8-14,13.4c-2.7,11.6-2.4,15.3-2.4,15.3s4.5,9.9,4.4,10c0,0.1,6.9-4.9,6.9-7	C284,108.4,289,78.7,289,78.7z"/><path class="st18" d="M277.2,113.3l-4.6-5.8c0,0,0-0.1,0-0.3c0-1,0.2-5.2,2.4-15c1.3-5.9,4.9-9.2,8.1-11.1c-1.8,1.1-3.4,2.7-4.1,4.8	C278.3,88.4,277.7,101.2,277.2,113.3z M285.2,79.9c2-0.9,3.5-1.2,3.8-1.2C288.1,78.9,286.7,79.3,285.2,79.9z"/><path class="st7" d="M286.3,124.9l-32.4,6.7c-0.4,0.1-0.8-0.3-0.7-0.8l9.4-35.4c0.1-0.2,0.3-0.3,0.5-0.1L286.3,124.9z"/><path class="st20" d="M272.6,107.4l-9.5-12.2c0,0,0,0,0,0c0,0,0,0,0,0L272.6,107.4z"/><path class="st21" d="M277.2,113.3l-4.6-5.8L277.2,113.3z"/><path class="st11" d="M253.8,131.5c-0.4,0-0.7-0.4-0.6-0.8l0.3-1l-0.3,1C253.1,131.1,253.4,131.5,253.8,131.5c0.1,0,0.1,0,0.1,0l0,0	C253.9,131.5,253.9,131.5,253.8,131.5z M269,128.4l-6.2-33c0-0.1-0.1-0.1-0.1-0.1c0,0-0.1,0-0.1,0.1c0-0.1,0.1-0.1,0.2-0.1	c0.1,0,0.2,0,0.2,0.1c0,0,0,0,0,0l9.5,12.2l4.2,19.4c0,0,0,0,0,0L269,128.4z M277.2,113.3l-3.6-4.6L277.2,113.3z"/><path class="st7" d="M262.9,95.4l6.2,33l-15,3.1c-0.5,0.1-0.9-0.3-0.8-0.8l9.4-35.3C262.7,95.3,262.8,95.3,262.9,95.4z"/><path class="st5" d="M314.9,130.7c-0.1,3.5-0.1,6-0.1,6h-38.3c0,0,1-45.8,2.5-50.9c1.9-6.1,11.1-7.4,11.1-7.4l6.9-0.2	c0,0,9.8,3.3,13.5,5.9c1.8,1.2,2.7,6.3,3.3,12.1c0.6,6.5,0.7,13.8,0.9,17.3C315.1,117.7,315,125.3,314.9,130.7z"/><path class="st8" d="M285,241.4c-0.3,7.6-0.5,12.9-0.5,12.9h-5.7c0,0-0.6-5.2-1.3-12.9H285z"/><path class="st18" d="M298.9,133.3l-4.1-2.4h-10.6l4.5-47.9l0,0v44.3c0,0.4,0.3,0.7,0.7,0.7h8.1c0,0,1.2,1.1,2.4,2l0.6,0.5l0.1,0	c0.9,0.6,1.7,1.2,2.3,1.2c0.1,0,0.1,0,0.2,0c1.1,0,4.1-0.7,6.2-1.2L298.9,133.3z M314.9,130.7h-0.1l-5.4-0.1	c1.3-0.3,2.2-0.5,2.2-0.5l-1-0.9l1,0.9c0,0,1-0.7,2.7-2h0.6C314.9,128.9,314.9,129.8,314.9,130.7z M309.4,128h-5.1H309.4	C309.4,128,309.4,128,309.4,128z"/><path class="st4" d="M302,136.7c0,0-7.4,22.5-11.7,40.1v0c-1.5,6-2.6,11.4-2.9,15.1c-0.8,8.8-1.9,33.9-2.5,49.5h-7.6	c-1.6-15.7-4-41.4-4.2-52.8c-0.4-18.2,3.4-51.8,3.4-51.8H302z"/><path class="st0" d="M278.8,254.2l-9.4,4.2c-0.2,0.1-0.2,0.4,0.1,0.4h16l-1-4.6H278.8z"/><path class="st0" d="M289.5,81.6h42.8c0.4,0,0.8,0.3,0.8,0.8v44.9c0,0.4-0.3,0.8-0.8,0.8h-42.8c-0.4,0-0.8-0.3-0.8-0.8V82.4	C288.7,82,289.1,81.6,289.5,81.6z"/><path class="st3" d="M321,128h-6.6c2.4-1.9,6.2-4.8,10.2-8.2c2.8-2.4,5.8-5,8.5-7.6L321,128z"/><path class="st5" d="M320.5,81.6h-18.1l-5.3-3.3c0,0,11.5,0.2,16.3,0.2C314.9,78.5,317.5,79.7,320.5,81.6z"/><path class="st8" d="M311.7,130c0,0-7.3,1.8-8.7,1.7c-1.4-0.1-5.3-3.7-5.3-3.7h11.8L311.7,130z"/><path class="st0" d="M289.5,81.6h14.8c0.4,0,0.7,0.3,0.7,0.7v44.9c0,0.4-0.3,0.7-0.7,0.7h-14.8c-0.4,0-0.7-0.3-0.7-0.7V82.4	C288.7,81.9,289.1,81.6,289.5,81.6z"/><path class="st8" d="M324.5,119.8c-4.1,3.4-7.8,6.4-10.2,8.2c-1.7,1.3-2.7,2-2.7,2l-2.2-2c0,0,5.2-5.4,11.1-12.3L324.5,119.8z"/><path class="st5" d="M333.1,112.2c-2.7,2.6-5.7,5.2-8.5,7.6l-4.1-4.1c4.5-5.3,9.3-11.4,12.6-16.7V88.6c3.9,2.8,7.5,5.7,9.9,7.6	C345.9,98.6,340.3,105.3,333.1,112.2z"/><path class="st12" d="M285.5,243.4h-8.8l-0.6-5.8h10L285.5,243.4z"/><path class="st8" d="M299.9,59.5v18.9c0,0-2.5,1.5-5.9,1.5c-3.4,0-3.8-1.5-3.8-1.5V67.8c0-1-0.3-1.8-0.6-2.3c-0.3-0.5-0.7-0.8-1-0.9	c-0.1,0-0.1-0.1-0.2-0.1c-0.2-0.1-0.3-0.1-0.3-0.1l2.1-1.7v-3.2H299.9z"/><path class="st12" d="M282.5,42.7c0.1-1.1,0.4-1.8,0.4-1.8s10.4-1.4,12.4,0.6c1.1,1-0.2,4.4,0.4,5.7c0.5,1.1,3.3,3.5,3.3,3.5	l0.2,7.3l0.2-1.5c0.2-1.2,1.5-2.1,2.8-2c1.4,0.1,2.3,1.2,2.2,2.4c0,0,8.1-7.2,5.4-14.4c-0.3-0.7-2-0.9-2-1.6	c-0.5-5.3-4-7.8-12.5-8.6c-9.8-0.9,2.1-7.4-8.5-4.1C276.1,31.4,282.5,42.7,282.5,42.7z"/><path class="st17" d="M283,55.7l9.6-0.4c0,0,0.5,6-6,5.8C282.6,61,283,55.7,283,55.7z"/><path class="st11" d="M253.9,128l1.7-6.2h0L253.9,128z"/><path class="st11" d="M253.9,128l1.7-6.2l3.1,0.1L253.9,128z"/><path class="st8" d="M257.2,122.2l-1-0.2c-1.1-0.2-1.8-1.2-1.6-2.3l1.1-6c0.2-1.1,1.2-1.8,2.3-1.6l1.7,0.3c1.2,0.2,1.9,1.4,1.5,2.5	l-1.8,5.9C259.2,121.8,258.2,122.4,257.2,122.2z"/><path d="M273.6,108.7l-1-1.2L273.6,108.7z" fill-rule="evenodd" clip-rule="evenodd" fill="#23263f"/><path class="st23" d="M276.8,126.8l-4.2-19.4l4.6,5.8C277.1,118.1,276.9,122.9,276.8,126.8z"/><path class="st18" d="M276.8,126.8L276.8,126.8c0.1-3.9,0.3-8.7,0.4-13.5l0,0L276.8,126.8z"/><path class="st10" d="M290.2,71v-3.2c0-1-0.3-1.8-0.6-2.3c-0.3-0.5-0.7-0.8-1-0.9c-0.1,0-0.1-0.1-0.2-0.1c1,0.2,1.9,0.2,2.7,0.2	c5.7,0,8.7-3.2,8.7-3.2C298.6,68.3,292.4,70.5,290.2,71z"/><path class="st3" d="M304.3,128h-14.8c-0.4,0-0.7-0.3-0.7-0.7V82.4c0-0.4,0.3-0.7,0.7-0.7h14.8c0.4,0,0.7,0.3,0.7,0.7v44.9	C305,127.7,304.7,128,304.3,128z"/><path class="st21" d="M300.6,130.5L300,130C300.3,130.2,300.5,130.4,300.6,130.5L300.6,130.5z"/><path class="st10" d="M300.7,130.5c-0.2-0.2-0.4-0.3-0.7-0.5l-2.4-2h11.8L300.7,130.5z"/><path class="st18" d="M333.1,99v-7.9l2.5,4.1L333.1,99z"/><path class="st8" d="M307.6,254.2h-5.7c0,0-1-5.3-2.5-12.9h7.7C307.3,249,307.6,254.2,307.6,254.2z"/><path class="st4" d="M307,241.4h-7.7c-2.7-14.2-6.7-36.5-7.9-47.8c-0.5-4.5-0.8-10.5-1-16.8c-0.6-18.4-0.4-40.1-0.4-40.1h24.8	c-0.2,17.1-8,41.4-8.6,57.2C305.8,205,306.5,227.2,307,241.4z"/><path class="st0" d="M301.8,254.2l-9.4,4.2c-0.2,0.1-0.2,0.4,0.1,0.4h16l-1-4.6H301.8z"/><path class="st12" d="M307.5,243.4h-8.8l-1.2-5.8h10L307.5,243.4z"/><path class="st2" d="M287.6,190.5L287.6,190.5c0.5-3.6,1.5-8.4,2.7-13.7C289.7,179.7,287.6,190.5,287.6,190.5z"/><path class="st16" d="M287.6,190.4l1.1-53.8l1.6,40.1C289.1,182,288.1,186.8,287.6,190.4z"/><path class="st2" d="M293.4,258l8.4-3.7L293.4,258L293.4,258z"/><path class="st3" d="M293.4,258l8.4-3.7h5.7l-7.6,3L293.4,258z"/><path class="st2" d="M270.3,258l8.4-3.7L270.3,258L270.3,258z"/><path class="st3" d="M270.3,258l8.4-3.7h5.7l-7.6,2.9L270.3,258z"/><path class="st2" d="M278,246.9l0-0.1C278,246.8,278,246.9,278,246.9z M284.9,244.5c0-0.4,0-0.8,0-1.2h0.1L284.9,244.5z"/><path class="st10" d="M278,246.9c0,0,0-0.1,0-0.1l-0.3-3.4h7.3c0,0.4,0,0.8,0,1.2l0,0L278,246.9z"/><path class="st2" d="M300.3,246.5L300,245C300.1,245.5,300.2,246,300.3,246.5L300.3,246.5z M299.8,244.1l-0.1-0.7l0,0	C299.8,243.6,299.8,243.8,299.8,244.1z"/><path class="st10" d="M300.3,246.5c-0.1-0.5-0.2-1-0.3-1.6l-0.2-0.9c0-0.2-0.1-0.4-0.1-0.7h7.4l0,1L300.3,246.5z"/><path class="st0" d="M170.8,73.4h5.4V45.7H167v23.9C167,71.7,168.7,73.4,170.8,73.4z"/><path class="st8" d="M177.7,43.8v12.9c0,1-0.2,2-0.5,2.8c-0.3,0.9-0.8,1.7-1.4,2.4c0,0-0.1,0.1-0.3,0.3c-1.2,1.3-2.8,2.2-4.6,2.5	l-0.1,0l0,0c-0.3,0.1-0.7,0.2-1,0.3c-0.6,0.2-1,0.4-1,0.4c-0.4,0.4-0.6,0.8-0.7,1.3c0,0.1,0,0.1,0,0.2v12.1c0,0-1,0.1-4,0	c-3.5,0-5.7,0-5.7,0V60.4c-0.1-0.1-0.1-0.3-0.2-0.4c0-0.1-0.1-0.2-0.1-0.2l0,0h-1c-1.2,0-2.1-0.9-2.1-2V54c0-1.1,0.9-2,2.1-2h0.3	v-8.2c0-4.6,3.7-8.3,8.3-8.3h3.8C174,35.5,177.7,39.2,177.7,43.8z"/><path class="st20" d="M158.3,62.9l-0.2-2.4c0.1,0.1,0.1,0.1,0.2,0.2V62.9z"/><path class="st10" d="M163.2,67.8c-2.6,0-4.6-0.6-4.6-0.6l-0.3-4.3v-2.3c3.2,3.2,6.2,4.3,8.4,4.6c0.5,0.4,1,0.7,1.5,1.1	c-0.1,0.2-0.1,0.4-0.2,0.6C166.5,67.6,164.7,67.8,163.2,67.8z"/><path class="st0" d="M178,45.7c0,0-5.8,5-16.2,6.2v21.9h-1.2c-4.3,0-7.9-3.5-7.9-7.9c0,0-1.3-13.7-0.7-19.2	c0.6-5.2,3.9-11,10.2-11.8h7C178,35.4,181.2,42.5,178,45.7z"/><path class="st7" d="M185.5,136.7h-43.1l0.4-7.4v0l1.7-32.7l0.1-2.5l0.4-7.6l1.2-0.5c-0.7-1-1.3-1.7-1.9-2.1c0.3-0.7,0.6-1.3,1-1.8	c0.4-0.4,0.8-0.7,1.3-0.9c0.4-0.2,0.9-0.3,1.3-0.4c5.2-1.6,10.3-2,10.3-2s3.5-0.2,7.5-0.1c0.7,0,1.4,0.1,2.2,0.1	c1.2,0.1,2.5,0.1,3.6,0.3c3,0.3,5.6,0.7,6.4,1l0.1,0c1.2,0.4,2.4,0.8,3.7,1.5c0,0,1.7,11.1,2.8,29.2c0,0.6,0.1,1.1,0.1,1.7	c-7.2,1.6-14.3,2.7-20.1,3.4c-2.2,0.3-4.2,0.5-5.9,0.7c-2.2,0.2-4.1,0.4-5.5,0.5c-1.8,0.2-2.8,0.2-2.8,0.2l0.1,3.9	c7.3,0.1,25.2,1.8,34.6,0.2l0,0C185.3,126.1,185.4,131.2,185.5,136.7z"/><path class="st20" d="M174.3,122c-2.8,0-5.7-0.1-8.6-0.2C168.6,121.9,171.5,122,174.3,122c4,0,7.8-0.2,10.8-0.7c0,0,0,0,0,0h0l0,0	C182.2,121.8,178.4,122,174.3,122z M153.3,117L153.3,117c1.4-0.1,3.2-0.3,5.5-0.5l0,0C156.5,116.7,154.7,116.9,153.3,117z"/><path class="st11" d="M142.8,129.3L142.8,129.3l0.2-3.8c1.6-1.1,1.4-2.7,3.7-2.8c2.3-0.1,3.9-1.6,3.9-1.6c3.4,0,9.1,0.4,15.2,0.7	c2.8,0.1,5.8,0.2,8.6,0.2c4,0,7.8-0.2,10.8-0.7l0,0l0,0c-0.6,0.2-11.4,3.7-26.4,4C146.4,125.5,142.8,129.3,142.8,129.3z M143.2,120.1l1.2-23.5l0.1-2.5l3.5-0.7l10.6,23.2c-2.2,0.2-4.1,0.4-5.5,0.5l-2.7,0.2v-0.1C147.2,117.4,144.9,118.6,143.2,120.1z"/><path class="st8" d="M150.5,121.1c0,0-1.6,1.5-3.9,1.6c-2.3,0.1-2,1.8-3.9,2.9c-1.6,1-3.2,0.7-2.2-1.8c1.1-2.5,3.9-6.2,10-6.7V121.1	z"/><path d="M177.1,62.5c-0.3,1.6-1.1,3.5-3,4.7h-4.6c0,0-3-2.1-3.9-2.9c-1-0.7,0.9-1,3-0.2c1.3,0.5,2.4,0.5,3.3,0.4	c0.6-0.1,1-0.2,1.3-0.4c0.7-0.4,2.8-1.4,4.1-4.6C177.2,59.5,177.4,60.8,177.1,62.5z" fill-rule="evenodd" clip-rule="evenodd" fill="#df9d86"/><path class="st8" d="M158.3,78.6c0,0,7.2,5.5,9.7,0C170.5,73.2,158.3,78.6,158.3,78.6z"/><path class="st12" d="M185.5,136.7l-10,117.6h-5.7l-7.2-117.6H185.5z"/><path class="st0" d="M175.4,254.2l9.4,4.2c0.2,0.1,0.2,0.4-0.1,0.4h-16l1-4.6H175.4z"/><path class="st12" d="M168,136.7l-11.5,117.6h-5.7l-8.5-117.6H168z"/><path class="st0" d="M156.5,254.2l9.4,4.2c0.2,0.1,0.2,0.4-0.1,0.4h-16l1-4.6H156.5z"/><path d="M172.1,64.5c-0.2,0-0.3,0-0.3,0c0.6-0.1,1-0.2,1.3-0.4c0.7-0.4,2.8-1.4,4.1-4.6c0,0,0,0.3,0,0.9	c0,0.5,0,1.3-0.2,2.1C175.6,64.3,173,64.5,172.1,64.5z" fill-rule="evenodd" clip-rule="evenodd" fill="#ae7b6b"/><path class="st4" d="M150.4,117.2l0.1,3.9c7.3,0,25.3,1.8,34.6,0.2c3.6-0.6,5.9-1.6,5.8-3c-0.4-5.2-4-33.1-7.6-35.8	c-1.4-1-3.3-1.9-5.2-2.5c1.2,0.4,2.4,1,3.7,1.7c0,0,1.7,11,2.7,29c0,0,0.2,1.7-0.1,1.8C167,116.3,150.4,117.2,150.4,117.2z"/><path d="M150.6,117.2c0.4,0,1.3-0.1,2.6-0.2l0,0C151.9,117.1,151,117.2,150.6,117.2z" fill-rule="evenodd" clip-rule="evenodd" fill="#838b90"/><path class="st23" d="M150.5,117.2l2.7-0.2c-1.3,0.1-2.2,0.2-2.6,0.2C150.6,117.2,150.5,117.2,150.5,117.2z"/><path class="st10" d="M150.4,117.2L150.4,117.2C150.5,117.2,150.4,117.2,150.4,117.2z"/><path class="st16" d="M156.6,119.7c-1.5,0-3.7-0.5-6.2-2.5c0,0,0,0,0.1,0c0,0,0.1,0,0.1,0c0.4,0,1.3-0.1,2.6-0.2l5.4,2.4	C158.7,119.4,157.9,119.7,156.6,119.7z"/><path class="st4" d="M174.1,67.2c0,0-0.6,5.3-1,11.7c-0.7,10.7-3.3,25.9-4.9,30.4c-1,2.7-2.2,4.9-3.5,6.5c-3.5,4.3-8,4.8-11.4,1.2	c-0.9-0.9-1.7-2.2-2.4-3.7c-3-6.4-5.2-12-6.4-16.8c-1.4-5.3-1.5-9.6-0.1-12.7c0.3-0.7,0.6-1.3,1-1.8c0.4-0.4,0.8-0.7,1.3-0.9	c0.4-0.2,0.9-0.4,1.3-0.4c2.3-0.4,4.8,1.3,6.2,7.7c2,9.2,3.2,17.9,4.9,16.5c2.1-1.8,6.4-15.9,8.2-26.2c1.1-6.1,2.2-11.4,2.2-11.4	H174.1z"/><path class="st2" d="M165.8,190.2l-0.4-5.9L165.8,190.2z"/><path class="st14" d="M165.8,190.2l-1.2-19.2l3.3-34.3L165.8,190.2z"/><path class="st3" d="M149.8,258.9l1-4.6h5.7L149.8,258.9z"/><path class="st3" d="M168.7,258.9l1-4.6h5.7L168.7,258.9z"/><path class="st12" d="M128.8,10.3c0,1.7-1.4,3.1-3.1,3.1c-1.7,0-3.1-1.4-3.1-3.1s1.4-3.1,3.1-3.1C127.4,7.2,128.8,8.6,128.8,10.3z"/><path class="st4" d="M142.6,10.3c0,1.7-1.4,3.1-3.1,3.1c-1.7,0-3.1-1.4-3.1-3.1s1.4-3.1,3.1-3.1C141.2,7.2,142.6,8.6,142.6,10.3z"/><path class="st7" d="M156.4,10.3c0,1.7-1.4,3.1-3.1,3.1c-1.7,0-3.1-1.4-3.1-3.1s1.4-3.1,3.1-3.1C155,7.2,156.4,8.6,156.4,10.3z"/><path class="st0" d="M355.6,13.4h-30.3c-1,0-1.7-0.8-1.7-1.7V8.9c0-1,0.8-1.7,1.7-1.7h30.3c1,0,1.7,0.8,1.7,1.7v2.8	C357.3,12.7,356.6,13.4,355.6,13.4z"/></svg>